<svg width="1920" height="900" viewBox="0 0 1920 900" fill="none" xmlns="http://www.w3.org/2000/svg">
<rect width="80" height="793" transform="matrix(-1 0 0 1 806 107)" fill="#DDDDDD"/>
<rect width="79" height="841" transform="matrix(-1 0 0 1 726 59)" fill="#DDDDDD"/>
<rect width="79" height="584" transform="matrix(-1 0 0 1 885 316)" fill="#DDDDDD"/>
<rect width="82" height="358" transform="matrix(-1 0 0 1 967 542)" fill="#DDDDDD"/>
<rect width="79" height="475" transform="matrix(-1 0 0 1 1046 425)" fill="#DDDDDD"/>
<rect width="79" height="254" transform="matrix(-1 0 0 1 1125 646)" fill="#DDDDDD"/>
<rect width="82" height="106" transform="matrix(-1 0 0 1 1207 794)" fill="#DDDDDD"/>
<rect width="74" height="59" transform="matrix(-1 0 0 1 1281 841)" fill="#DDDDDD"/>
<rect width="79" height="59" transform="matrix(-1 0 0 1 1360 841)" fill="#DDDDDD"/>
<rect width="79" height="59" transform="matrix(-1 0 0 1 1439 841)" fill="#DDDDDD"/>
<rect width="82" height="59" transform="matrix(-1 0 0 1 1521 841)" fill="#DDDDDD"/>
<rect width="79" height="59" transform="matrix(-1 0 0 1 1600 841)" fill="#DDDDDD"/>
<rect width="80" height="59" transform="matrix(-1 0 0 1 1680 841)" fill="#DDDDDD"/>
<rect width="79" height="59" transform="matrix(-1 0 0 1 1759 841)" fill="#DDDDDD"/>
<rect width="82" height="59" transform="matrix(-1 0 0 1 1841 841)" fill="#DDDDDD"/>
<rect width="79" height="59" transform="matrix(-1 0 0 1 1920 841)" fill="#DDDDDD"/>
<rect width="647" height="900" transform="matrix(-1 0 0 1 647 0)" fill="#DDDDDD"/>
</svg>
