<svg width="1906" height="666" viewBox="0 0 1906 666" fill="none" xmlns="http://www.w3.org/2000/svg">
<rect width="80" height="621" transform="matrix(-1 0 0 1 797 45)" fill="#DDDDDD"/>
<rect width="79" height="577" transform="matrix(-1 0 0 1 717 89)" fill="#DDDDDD"/>
<rect width="79" height="505" transform="matrix(-1 0 0 1 876 161)" fill="#DDDDDD"/>
<rect width="82" height="358" transform="matrix(-1 0 0 1 958 308)" fill="#DDDDDD"/>
<rect width="79" height="254" transform="matrix(-1 0 0 1 1037 412)" fill="#DDDDDD"/>
<rect width="79" height="254" transform="matrix(-1 0 0 1 1116 412)" fill="#DDDDDD"/>
<rect width="82" height="106" transform="matrix(-1 0 0 1 1198 560)" fill="#DDDDDD"/>
<rect width="74" height="59" transform="matrix(-1 0 0 1 1272 607)" fill="#DDDDDD"/>
<rect width="79" height="59" transform="matrix(-1 0 0 1 1351 607)" fill="#DDDDDD"/>
<rect width="79" height="59" transform="matrix(-1 0 0 1 1430 607)" fill="#DDDDDD"/>
<rect width="82" height="59" transform="matrix(-1 0 0 1 1512 607)" fill="#DDDDDD"/>
<rect width="79" height="59" transform="matrix(-1 0 0 1 1591 607)" fill="#DDDDDD"/>
<rect width="80" height="59" transform="matrix(-1 0 0 1 1671 607)" fill="#DDDDDD"/>
<rect width="79" height="59" transform="matrix(-1 0 0 1 1750 607)" fill="#DDDDDD"/>
<rect width="82" height="59" transform="matrix(-1 0 0 1 1827 607)" fill="#DDDDDD"/>
<rect width="79" height="59" transform="matrix(-1 0 0 1 1906 607)" fill="#DDDDDD"/>
<rect width="647" height="666" transform="matrix(-1 0 0 1 638 0)" fill="#DDDDDD"/>
</svg>
