<svg width="126" height="110" viewBox="0 0 126 110" fill="none" xmlns="http://www.w3.org/2000/svg">
<path d="M84.6667 105.852H40.6667M4 63.7544V25.7297C4 18.1241 4 14.3184 5.59857 11.4134C7.00471 8.85815 9.2468 6.78214 12.0065 5.48016C15.1439 4 19.254 4 27.4681 4H97.8681C106.082 4 110.184 4 113.321 5.48016C116.081 6.78214 118.33 8.85815 119.736 11.4134C121.333 14.3156 121.333 18.1166 121.333 25.7074V63.7741C121.333 71.3648 121.333 75.1604 119.736 78.0626C118.33 80.6178 116.081 82.7008 113.321 84.0028C110.187 85.4815 106.087 85.4815 97.8893 85.4815H27.444C19.246 85.4815 15.1408 85.4815 12.0065 84.0028C9.2468 82.7008 7.00471 80.6178 5.59857 78.0626C4 75.1576 4 71.3601 4 63.7544ZM81 44.7407L48 24.3704V65.1111L81 44.7407Z" stroke="black" stroke-width="8" stroke-linecap="square" stroke-linejoin="round"/>
</svg>
