<svg width="860" height="88" viewBox="0 0 860 88" fill="none" xmlns="http://www.w3.org/2000/svg">
<rect width="860" height="87.971" rx="12.5673" fill="#2B2B2B"/>
<rect x="300" y="39" width="150" height="10" rx="5" fill="#535353"/>
<rect x="480" y="39" width="90" height="10" rx="5" fill="#535353"/>
<rect x="600" y="39" width="160" height="10" rx="5" fill="#535353"/>
<g clip-path="url(#clip0_188_322)">
<path d="M51.0006 38.6639C50.3526 38.6535 49.7045 38.6882 49.0596 38.65C48.6254 38.6257 48.324 38.7889 48.0227 39.1117C46.8982 40.3231 45.7706 41.531 44.6429 42.7389H47.9028C49.0078 41.5553 50.1128 40.3751 51.2145 39.1915C51.3312 39.0665 51.558 38.952 51.477 38.7576C51.3992 38.5667 51.1627 38.6674 51.0006 38.6639Z" fill="#EA562A"/>
<path d="M40.9099 46.7687C40.5696 47.1367 40.2261 47.5011 39.8891 47.8725C39.3869 48.4209 38.8781 48.4626 38.2689 48.3307C38.162 48.3064 38.055 48.2647 37.9481 48.2474C36.2177 47.9523 34.9118 45.7864 35.3752 43.8774C35.709 42.5063 37.0667 41.0624 38.5541 41.1283C39.1698 41.1561 39.7854 41.1318 40.4011 41.1318C41.1918 41.1318 41.2048 41.1353 41.37 40.3161C41.6843 38.7646 42.313 37.3831 43.3337 36.2307C44.7531 34.6271 46.4867 33.7108 48.5541 33.499C50.1905 33.3324 51.72 33.6622 53.162 34.4779C54.2087 35.0714 55.0642 35.9079 55.7803 36.9145C55.9294 37.1228 56.059 37.3727 56.3636 37.3762C57.0765 37.3866 57.7732 37.5115 58.4472 37.7684C58.5606 37.81 58.7097 37.8829 58.8004 37.758C58.8847 37.6434 58.8069 37.5011 58.7518 37.3796C58.4375 36.6646 58.0778 35.9808 57.6112 35.3595C56.328 33.6518 54.7628 32.3779 52.8218 31.6316C51.4349 31.104 50.0285 30.9305 48.5573 31.0242C47.4524 31.0971 46.396 31.3296 45.3947 31.7844C42.6403 33.0339 40.6668 35.1408 39.5716 38.1433C39.4128 38.5737 39.2151 38.6986 38.8133 38.6743C37.4102 38.591 36.1821 39.0908 35.0933 40.0176C33.149 41.6767 32.4458 44.6202 33.4536 47.0534C34.5165 49.6184 36.4316 50.7778 39.2572 50.8229C40.0188 51.0763 40.683 50.5209 41.3506 49.7781C42.2611 48.7611 43.1912 47.7614 44.1244 46.7687H40.9099Z" fill="#EA562A"/>
<path d="M46.2761 46.7896C45.1905 47.9558 44.1082 49.1186 43.0227 50.2849C42.9157 50.3994 42.7278 50.5105 42.7958 50.691C42.812 50.7326 42.8379 50.7604 42.8509 50.7743C43.081 50.9825 44.0758 50.8888 44.0952 50.8888C45.022 50.8055 45.116 50.9513 45.5632 50.7673C45.871 50.6424 46.0946 50.4758 46.2339 50.3265C47.3292 49.1429 48.4342 47.9697 49.536 46.7896H46.2761Z" fill="#EA562A"/>
<path d="M57.3455 38.7576C56.3636 38.539 55.3623 38.7125 54.3707 38.6535C54.011 38.6327 53.7486 38.7576 53.4958 39.0318C52.339 40.2779 51.1821 41.5171 50.0253 42.7597H53.2884C53.6675 42.3536 54.0467 41.944 54.429 41.5379C54.5813 41.3748 54.7174 41.1492 54.9637 41.1526C55.8257 41.163 56.6909 41.0207 57.5269 41.4095C58.9624 42.0794 59.6948 43.565 59.5814 44.9152C59.4226 46.8139 58.2528 48.2092 56.3992 48.2786C54.5392 48.348 52.6792 48.3342 50.8192 48.3376C50.4368 48.3376 50.1225 48.4036 49.847 48.7264C49.3772 49.2713 48.8684 49.7746 48.3824 50.3092C48.2819 50.4202 48.0842 50.5209 48.1685 50.7153C48.2398 50.8819 48.4245 50.8021 48.5573 50.8021C49.8179 50.8055 51.0817 50.8055 52.3422 50.8055C52.3422 50.8125 52.3422 50.8159 52.3422 50.8229C53.2236 50.8229 54.1082 50.7986 54.9896 50.8298C55.8743 50.8611 56.746 50.868 57.6112 50.6111C59.9216 49.9274 61.3345 48.289 61.7978 45.8316C62.42 42.5653 60.3947 39.4345 57.3455 38.7576Z" fill="#EA562A"/>
<path d="M77.122 48.9907C75.8582 50.3305 74.2801 51.0004 72.3877 51.0004C70.4953 51.0004 68.9172 50.3305 67.6534 48.9907C66.3896 47.6508 65.761 46.0125 65.761 44.0757C65.761 42.1389 66.3929 40.5005 67.6534 39.1607C68.9172 37.8209 70.4953 37.151 72.3877 37.151C74.2801 37.151 75.8582 37.8209 77.122 39.1607C78.3858 40.5005 79.0144 42.1389 79.0144 44.0757C79.0144 46.0125 78.3858 47.6508 77.122 48.9907ZM69.5361 47.2482C70.2847 48.0674 71.2374 48.4735 72.3877 48.4735C73.5381 48.4735 74.4908 48.0639 75.2393 47.2482C75.9879 46.429 76.3637 45.3739 76.3637 44.0757C76.3637 42.7775 75.9879 41.7223 75.2393 40.9032C74.4908 40.0875 73.5381 39.6779 72.3877 39.6779C71.2341 39.6779 70.2847 40.0875 69.5361 40.9032C68.7876 41.7223 68.4117 42.7775 68.4117 44.0757C68.4117 45.3739 68.7843 46.429 69.5361 47.2482Z" fill="white"/>
<path d="M84.6723 43.5203V50.7991H82.0216V37.3523H84.6723V39.8029C85.0514 38.9768 85.6217 38.3277 86.3897 37.8556C87.1545 37.3836 87.9808 37.1475 88.8622 37.1475C90.8518 37.1475 92.1998 38.0222 92.9095 39.7751C94.1571 38.0222 95.7092 37.1475 97.5725 37.1475C98.9918 37.1475 100.139 37.6092 101.017 38.536C101.892 39.4627 102.329 40.8025 102.329 42.5554V50.7956H99.6788V43.4197C99.6788 40.9414 98.7164 39.7057 96.7916 39.7057C95.8907 39.7057 95.1065 40.0146 94.4357 40.629C93.765 41.2433 93.415 42.1423 93.3826 43.3225V50.8025H90.7319V43.4197C90.7319 42.1389 90.518 41.2017 90.0935 40.6012C89.669 40.0042 88.9983 39.7022 88.0812 39.7022C87.1674 39.7022 86.3703 40.0285 85.6898 40.6741C85.0125 41.3267 84.6723 42.2742 84.6723 43.5203Z" fill="white"/>
<path d="M108.674 43.5203V50.7991H106.024V37.3523H108.674V39.8029C109.102 38.9768 109.689 38.3277 110.437 37.8556C111.186 37.3836 111.996 37.1475 112.864 37.1475C114.284 37.1475 115.431 37.6092 116.309 38.536C117.184 39.4627 117.621 40.8025 117.621 42.5554V50.7956H114.971V43.4197C114.971 40.9414 114.008 39.7057 112.083 39.7057C111.166 39.7057 110.372 40.032 109.692 40.6776C109.015 41.3267 108.674 42.2742 108.674 43.5203Z" fill="white"/>
<path d="M121.481 34.6727C121.15 34.3187 120.982 33.8987 120.982 33.4093C120.982 32.9198 121.147 32.4999 121.481 32.1458C121.811 31.7918 122.206 31.6147 122.663 31.6147C123.12 31.6147 123.516 31.7918 123.846 32.1458C124.177 32.4999 124.342 32.9198 124.342 33.4093C124.342 33.8987 124.177 34.3187 123.846 34.6727C123.516 35.0268 123.12 35.2038 122.663 35.2038C122.206 35.2038 121.811 35.0268 121.481 34.6727ZM123.966 50.7991H121.315V37.3523H123.966V50.7991Z" fill="white"/>
<path d="M128.772 49.0809C127.589 47.8001 126.996 46.1167 126.996 44.0271C126.996 41.9376 127.602 40.2715 128.817 39.0219C130.032 37.7758 131.481 37.151 133.159 37.151C134.838 37.151 136.192 37.9077 137.219 39.4245V32.0452H139.87V50.7991H137.219V48.7755C136.241 50.2576 134.812 51.0004 132.936 51.0004C131.344 51.0004 129.954 50.3617 128.772 49.0809ZM129.647 44.1382C129.647 45.4259 130.032 46.4776 130.807 47.2864C131.578 48.0951 132.488 48.5012 133.529 48.5012C134.569 48.5012 135.453 48.0917 136.179 47.276C136.905 46.4568 137.268 45.4086 137.268 44.1278C137.268 42.847 136.905 41.7779 136.179 40.9171C135.453 40.0563 134.562 39.6293 133.506 39.6293C132.449 39.6293 131.542 40.0597 130.784 40.9171C130.026 41.7744 129.647 42.8504 129.647 44.1382Z" fill="white"/>
<path d="M151.494 50.7991V49.0045C150.453 50.3374 149.057 51.0004 147.304 51.0004C145.995 51.0004 144.909 50.6047 144.05 49.8133C143.192 49.0219 142.761 47.9632 142.761 46.6408C142.761 45.3183 143.218 44.3291 144.135 43.6696C145.048 43.0136 146.289 42.6838 147.851 42.6838H151.283V42.1771C151.283 40.3929 150.353 39.4974 148.49 39.4974C147.32 39.4974 146.108 39.9521 144.844 40.8615L143.661 39.0913C145.191 37.7932 146.928 37.1441 148.869 37.1441C150.353 37.1441 151.562 37.5432 152.501 38.345C153.441 39.1469 153.911 40.4034 153.911 42.125V50.7991H151.494ZM151.257 45.7939V44.6554H148.276C146.367 44.6554 145.411 45.2975 145.411 46.5748C145.411 47.2309 145.648 47.7341 146.121 48.0778C146.594 48.4214 147.252 48.595 148.098 48.595C148.94 48.595 149.679 48.3416 150.311 47.8348C150.943 47.335 151.257 46.6547 151.257 45.7939Z" fill="white"/>
<path d="M160.726 46.4533C160.726 47.092 160.884 47.6023 161.199 47.9806C161.513 48.3589 161.957 48.5498 162.524 48.5498C163.091 48.5498 163.636 48.2548 164.157 47.6647L165.246 49.6606C164.316 50.5526 163.286 51.0004 162.158 51.0004C161.03 51.0004 160.068 50.5839 159.271 49.7508C158.474 48.9178 158.075 47.7932 158.075 46.377V39.6293H156.487V37.3523H158.075V33.1316H160.726V37.3523H164.041V39.6259H160.726V46.4533Z" fill="white"/>
<path d="M175.142 50.7991V49.0045C174.102 50.3374 172.706 51.0004 170.953 51.0004C169.643 51.0004 168.558 50.6047 167.699 49.8133C166.84 49.0219 166.409 47.9632 166.409 46.6408C166.409 45.3183 166.866 44.3291 167.783 43.6696C168.697 43.0136 169.938 42.6838 171.5 42.6838H174.932V42.1771C174.932 40.3929 174.002 39.4974 172.139 39.4974C170.969 39.4974 169.757 39.9521 168.493 40.8615L167.31 39.0913C168.84 37.7932 170.577 37.1441 172.518 37.1441C174.002 37.1441 175.211 37.5432 176.15 38.345C177.09 39.1469 177.56 40.4034 177.56 42.125V50.7991H175.142ZM174.906 45.7939V44.6554H171.925C170.016 44.6554 169.06 45.2975 169.06 46.5748C169.06 47.2309 169.297 47.7341 169.77 48.0778C170.243 48.4214 170.901 48.595 171.746 48.595C172.589 48.595 173.328 48.3416 173.96 47.8348C174.588 47.335 174.906 46.6547 174.906 45.7939Z" fill="white"/>
</g>
<path d="M180.2 51V48.2375H182.963V51H180.2ZM193.241 51.375C191.949 51.375 190.866 51.0625 189.991 50.4375C189.116 49.8042 188.453 48.95 188.003 47.875C187.553 46.8 187.328 45.5875 187.328 44.2375C187.328 42.8875 187.549 41.675 187.991 40.6C188.441 39.525 189.099 38.6792 189.966 38.0625C190.841 37.4375 191.916 37.125 193.191 37.125C194.457 37.125 195.549 37.4375 196.466 38.0625C197.391 38.6792 198.103 39.525 198.603 40.6C199.103 41.6667 199.353 42.8792 199.353 44.2375C199.353 45.5875 199.103 46.8042 198.603 47.8875C198.112 48.9625 197.407 49.8125 196.491 50.4375C195.582 51.0625 194.499 51.375 193.241 51.375ZM186.891 57V37.5H189.216V47.2125H189.516V57H186.891ZM192.878 49.0125C193.712 49.0125 194.399 48.8 194.941 48.375C195.491 47.95 195.899 47.3792 196.166 46.6625C196.441 45.9375 196.578 45.1292 196.578 44.2375C196.578 43.3542 196.441 42.5542 196.166 41.8375C195.899 41.1208 195.487 40.55 194.928 40.125C194.37 39.7 193.657 39.4875 192.791 39.4875C191.974 39.4875 191.299 39.6875 190.766 40.0875C190.241 40.4875 189.849 41.0458 189.591 41.7625C189.341 42.4792 189.216 43.3042 189.216 44.2375C189.216 45.1708 189.341 45.9958 189.591 46.7125C189.841 47.4292 190.237 47.9917 190.778 48.4C191.32 48.8083 192.02 49.0125 192.878 49.0125ZM202.363 51V32.625H204.976V51H202.363ZM224.904 51L224.917 42.5875C224.917 41.6125 224.667 40.8542 224.167 40.3125C223.667 39.7625 223.009 39.4875 222.192 39.4875C221.692 39.4875 221.234 39.6042 220.817 39.8375C220.409 40.0625 220.075 40.4042 219.817 40.8625C219.567 41.3125 219.442 41.8792 219.442 42.5625L218.179 41.925C218.163 40.975 218.363 40.1417 218.779 39.425C219.204 38.7083 219.779 38.1542 220.504 37.7625C221.229 37.3625 222.042 37.1625 222.942 37.1625C224.4 37.1625 225.529 37.6 226.329 38.475C227.129 39.35 227.529 40.5125 227.529 41.9625L227.517 51H224.904ZM208.717 51V37.5H211.042V41.4H211.342V51H208.717ZM216.817 51L216.829 42.6375C216.829 41.6542 216.579 40.8833 216.079 40.325C215.588 39.7667 214.925 39.4875 214.092 39.4875C213.267 39.4875 212.6 39.7708 212.092 40.3375C211.592 40.9042 211.342 41.6458 211.342 42.5625L210.092 41.7625C210.092 40.8792 210.304 40.0917 210.729 39.4C211.154 38.7083 211.729 38.1625 212.454 37.7625C213.179 37.3625 214 37.1625 214.917 37.1625C215.875 37.1625 216.692 37.3667 217.367 37.775C218.042 38.175 218.554 38.7375 218.904 39.4625C219.263 40.1875 219.442 41.0292 219.442 41.9875L219.429 51H216.817Z" fill="#EA562A"/>
<defs>
<clipPath id="clip0_188_322">
<rect width="144.557" height="20" fill="white" transform="translate(33 31)"/>
</clipPath>
</defs>
</svg>
