<svg width="136" height="130" viewBox="0 0 136 130" fill="none" xmlns="http://www.w3.org/2000/svg">
<path d="M134.827 51.6932L123.522 40.388C122.989 39.8555 122.274 39.5614 121.521 39.5614H118.694V36.7345C118.694 35.982 118.395 35.264 117.87 34.7341L95.2626 12.1265C90.7268 7.59594 83.1309 0 67.825 0C52.5192 0 45.5168 7.01571 40.3901 12.1291C39.582 12.9372 39.3383 14.1533 39.7807 15.2104C40.2152 16.2676 41.2512 16.9564 42.3931 16.9564C65.1889 16.9564 67.8277 26.6322 67.8277 33.9128C67.8277 39.9615 64.402 44.5662 62.2162 46.9136L80.6828 65.3802C85.6796 61.9995 92.7775 58.0095 96.0893 58.3035V62.1744C96.0893 62.9268 96.3886 63.6448 96.9132 64.1747L111.043 78.3041C111.575 78.8287 112.291 79.1281 113.043 79.1281H113.138C113.923 79.1069 114.659 78.7546 115.168 78.1664L134.951 55.5587C135.934 54.4327 135.879 52.7503 134.827 51.6932Z" fill="#A4A4A4"/>
<path d="M4.27354 104.775C1.52078 107.527 0 111.189 0 115.417C0 123.461 6.53881 130 14.5825 130C18.6812 130 22.6156 128.259 25.371 125.228L76.3992 69.0973L58.1764 50.8691L4.27354 104.775Z" fill="#A4A4A4"/>
</svg>
