<svg class="hero__flag-img" width="170" height="40" viewBox="0 0 170 40" fill="none" xmlns="http://www.w3.org/2000/svg">
              <g clip-path="url(#clip0_1_2932)">
              <path fill-rule="evenodd" clip-rule="evenodd" d="M34.4667 16.32C35.2267 16.2467 35.9667 16.34 36.4134 16.6133C36.3134 17.4333 35.4067 18.1333 34.2801 18.2867C35.0467 18.3733 35.7134 18.7 36.0534 19.1467C35.6534 19.6867 35.0467 20.0933 34.1334 20.0733C34.5667 20.22 35.1001 20.6733 35.3134 21.2067C34.7801 21.6267 34.1201 21.8867 32.6201 21.3533C33.9934 21.9267 34.0601 22.2667 34.1601 22.7533C34.1867 22.88 34.2134 23.0133 34.2601 23.1667C34.2001 23.1933 34.1401 23.2267 34.0734 23.26C33.8134 23.4 33.5001 23.58 32.8401 23.4067C32.5267 23.3267 32.0801 22.98 31.6134 22.62C31.3867 22.4467 31.1601 22.2667 30.9401 22.12C31.0467 22.24 31.3401 22.4733 31.6667 22.7267C31.9934 22.98 32.3467 23.26 32.5601 23.4667C32.8934 23.8067 32.8267 24.14 32.7534 24.4533C32.7267 24.5733 32.7001 24.6933 32.7001 24.8067C32.6001 24.8067 32.4801 24.8267 32.3534 24.8533C32.0201 24.9133 31.6201 24.9867 31.3201 24.7267C31.2534 24.6667 30.8134 24.1333 30.3401 23.56C29.8267 22.94 29.2801 22.2733 29.1601 22.16C29.1867 22.2533 29.4534 22.6133 29.7801 23.06C30.1534 23.56 30.6001 24.1733 30.8601 24.6067C31.1401 25.04 30.9467 25.38 30.7867 25.66C30.7201 25.78 30.6601 25.8867 30.6401 25.9867C30.5067 25.9467 30.3601 25.9467 30.2067 25.9467C29.9001 25.9467 29.5867 25.9467 29.3801 25.6133C29.2934 25.46 29.1401 25.18 28.9667 24.86C28.6001 24.18 28.1201 23.3067 27.9067 22.9867C27.9867 23.2067 28.3334 23.96 28.6201 24.5733C28.8201 25.0067 28.9867 25.3667 29.0134 25.4333C29.1601 25.8667 28.9601 26.0667 28.7467 26.28C28.6401 26.3867 28.5334 26.4933 28.4601 26.6333C28.3401 26.5467 28.1867 26.5133 28.0334 26.48C27.7467 26.42 27.4467 26.3533 27.2934 25.96C27.2401 25.8067 27.1534 25.5067 27.0601 25.1733C26.9001 24.6067 26.7067 23.94 26.5934 23.7C26.6067 23.9667 26.6601 24.2867 26.7134 24.6467C26.7467 24.8667 26.7867 25.1 26.8201 25.3467C26.8801 25.7667 26.6401 25.9 26.3667 26.0467C26.2267 26.1267 26.0801 26.2067 25.9667 26.3267C25.8734 26.24 25.7401 26.1933 25.6134 26.14C25.3601 26.04 25.1001 25.94 25.0401 25.56C24.9534 25.0467 24.9401 23.8 24.9401 23.8C24.9134 23.8267 24.8867 23.84 24.8667 23.86C24.8201 23.8933 24.7867 23.92 24.7267 23.98C24.6267 23.8733 24.4934 23.8133 24.3534 23.76C24.1801 23.6867 24.0134 23.6133 23.9267 23.4467C23.8867 23.46 23.8667 23.48 23.8401 23.5067C23.8267 23.52 23.8067 23.5333 23.7867 23.5533C23.3134 24.34 23.2734 25.8533 23.9334 26.3933C23.7201 26.3933 23.5067 26.3733 23.3601 26.3067C23.6667 26.9 24.3067 27.1133 25.0467 26.84C25.0267 26.9867 25.0067 27.0667 24.9467 27.1667C25.7534 27.2933 26.0934 27.6067 26.4001 28.12C26.6334 28.5467 26.5601 29.0533 26.5001 29.46C26.4667 29.7133 26.4334 29.9267 26.4801 30.0667C26.5601 30.3 26.8334 30.52 27.2667 30.32C27.0534 31.24 25.9001 31.14 25.6001 30.6267C25.5001 31.0533 25.6001 31.5533 25.8201 31.74C25.4534 31.76 25.1534 31.6133 24.9601 31.3267C24.9334 31.3867 24.9201 31.46 24.9134 31.5333C24.9134 31.5667 24.9067 31.6 24.9001 31.6333C24.7067 31.5333 24.5734 31.4133 24.4867 31.3133C24.4134 31.5267 24.4801 31.6733 24.6134 31.9133C24.8134 32.2133 25.2067 32.36 25.5267 32.4733C25.5601 32.4867 25.5867 32.4933 25.6201 32.5067L25.6734 32.5267C26.4134 32.8 27.2134 33.1 27.9467 33C28.0401 33 28.4601 32.7867 28.5334 32.4467C28.5334 32.4467 28.529 32.4533 28.5201 32.4667C28.4667 32.3667 28.4134 32.2467 28.3734 32.1333C28.2734 32.1133 28.1867 32.0467 28.1867 31.9133V31.8733C28.0801 31.7867 28.0201 31.66 28.0201 31.54C28.0201 31.38 28.0801 31.2533 28.1867 31.1533V31.1133C28.1867 31.0267 28.2267 30.9667 28.2867 30.9133C28.4534 29.9867 29.1867 29.2267 30.1001 29.02L30.0601 29C30.1734 28.9 30.4067 28.6333 30.4267 28.4867C30.3201 28.52 30.1667 28.6467 30.0467 28.7467C30.0001 28.7867 29.9534 28.82 29.9201 28.8467V27.64C29.9201 27.64 29.9867 27.6933 30.0267 27.7267C30.1534 27.8333 30.3201 27.9733 30.4267 28C30.4067 27.8533 30.1734 27.5867 30.0601 27.4867H31.2867C31.1667 27.5867 30.9401 27.8533 30.9201 28C31.0267 27.9667 31.1867 27.84 31.3134 27.7333C31.3601 27.6933 31.4001 27.66 31.4401 27.6333V28.84C31.4067 28.8133 31.3667 28.78 31.3134 28.74C31.1867 28.6333 31.0267 28.5067 30.9201 28.4733C30.9401 28.6 31.0867 28.7933 31.2134 28.92C31.2467 28.92 31.2667 28.94 31.2667 28.9867H31.2867V29.0267C32.1801 29.2533 32.8734 29.9867 33.0401 30.9C33.0801 30.9533 33.1267 31.02 33.1267 31.1V31.14C33.2334 31.24 33.2934 31.3667 33.2934 31.5267C33.2934 31.6533 33.2267 31.78 33.1267 31.86V31.9C33.1267 32.0067 33.0401 32.1 32.9401 32.12C32.7734 32.5933 32.4667 33 32.0667 33.28V33.2533C32.0801 33.38 32.0601 33.56 31.9534 33.6533C31.8401 33.76 31.6934 33.8067 31.5467 33.8467C31.4401 33.88 31.3401 33.9067 31.2534 33.96C31.1801 34.0067 31.1201 34.0667 31.0667 34.12C30.9867 34.2 30.9134 34.28 30.8001 34.3067C30.6601 34.3533 30.5134 34.34 30.3601 34.3333C30.2334 34.3267 30.1001 34.32 29.9801 34.3467C29.8001 34.3933 29.6867 34.4733 29.5801 34.5467C29.4601 34.6267 29.3534 34.7 29.2001 34.7C29.0467 34.7 28.9801 34.6533 28.9067 34.5933C28.8201 34.5267 28.7134 34.4467 28.4467 34.4067C28.3001 34.3333 28.1467 34.24 27.9867 34.1467C27.7801 34.02 27.5734 33.8933 27.3801 33.8133C27.0334 33.6733 26.6534 33.62 26.2667 33.5733C26.0467 33.5467 25.8267 33.5133 25.6134 33.4667C25.3867 33.42 25.1667 33.36 24.9534 33.2933C24.6601 33.2067 24.3734 33.12 24.0534 33.08C23.9467 33.06 23.7467 33.0467 23.5201 33.04C23.0667 33.02 22.5001 32.9867 22.3867 32.8467C22.3267 32.7133 22.3801 32.6267 22.4534 32.5C22.5401 32.36 22.6534 32.1733 22.6867 31.82C22.6867 31.8067 22.6867 31.7733 22.7001 31.7333C22.7001 31.7 22.7067 31.6667 22.7134 31.6333C22.3934 31.7733 22.0267 31.72 21.8334 31.6333C21.6667 31.5667 21.2601 31.2667 21.2601 30.8133C21.6067 30.9733 22.3734 31.18 22.4734 30.3867C22.5734 29.6867 21.9401 29.0867 20.9867 29.3467C20.3134 29.5133 19.3601 30.9133 20.2267 31.5267C20.2867 31.5667 20.3534 31.6133 20.4201 31.6533C20.8267 31.9133 21.3001 32.2133 21.2267 32.8667C20.9534 32.52 20.5667 32.3533 20.0801 32.3933C20.5134 32.7133 20.8867 32.86 21.2801 33.02C21.5401 33.1267 21.8134 33.2333 22.1134 33.4C22.3667 33.5467 22.6001 33.7333 22.8134 33.9067C23.1601 34.1867 23.4667 34.4333 23.7801 34.4467C24.1867 34.4667 24.3934 33.9933 24.0067 33.6267C24.3934 33.54 24.9067 33.8467 25.0534 34.2533C25.2534 34.8133 25.0934 35.2133 24.7601 35.4333C25.2201 35.68 25.5667 36.1733 25.4001 36.8733C25.3401 37.1 25.2134 37.24 25.1001 37.3667C24.9201 37.56 24.7601 37.74 24.8867 38.18C24.5601 38.0933 24.3534 37.8733 24.2734 37.5667C24.2734 37.5533 24.2734 37.54 24.2667 37.5267C24.2201 37.32 24.1801 37.1133 24.0734 37.0133C24.1134 37.4533 23.8601 38.1 23.2667 38.3933C22.8601 38.5933 22.2201 38.6733 21.7267 38.1667C21.5334 38.74 20.8201 39.2333 20.1467 39.2133C19.8334 39.2133 19.5134 39.08 19.2801 38.9333C19.1001 39.36 18.6734 39.7933 18.2334 40C17.8067 39.7933 17.3801 39.36 17.2134 38.9333C16.9734 39.0733 16.6601 39.2133 16.3334 39.2133C15.6267 39.24 14.9534 38.74 14.7534 38.1667C14.2601 38.6733 13.6201 38.5933 13.2134 38.3933C12.6134 38.1 12.3601 37.4467 12.4067 37.0133C12.3001 37.12 12.2601 37.34 12.2201 37.5533V37.5667C12.1267 37.88 11.9134 38.1 11.5934 38.18C11.7267 37.7333 11.5667 37.56 11.3867 37.36C11.2667 37.2333 11.1467 37.0933 11.0801 36.8733C10.9134 36.1733 11.2601 35.68 11.7267 35.4333C11.3801 35.2067 11.2334 34.8133 11.4201 34.2533C11.5667 33.8467 12.0801 33.5467 12.4667 33.6267C12.0801 33.9933 12.3001 34.46 12.6934 34.4467C13.0134 34.4333 13.3267 34.18 13.6801 33.9C13.8934 33.7267 14.1134 33.5467 14.3601 33.4C14.6601 33.24 14.9267 33.1333 15.1801 33.0267C15.5801 32.8667 15.9534 32.7133 16.3867 32.3933C15.8934 32.3533 15.5201 32.52 15.2401 32.8667C15.1667 32.2067 15.6401 31.9133 16.0467 31.6533C16.1134 31.6133 16.1801 31.5667 16.2401 31.5267C17.1201 30.9133 16.1534 29.5133 15.5001 29.3467C14.5334 29.0867 13.9201 29.68 14.0001 30.3867C14.0867 31.18 14.8667 30.9733 15.1934 30.8133C15.2134 31.2667 14.8067 31.5667 14.6401 31.6333C14.4867 31.7067 14.2334 31.7467 13.9601 31.7C14.0001 31.7867 14.0401 31.8867 14.0601 31.9533C14.0934 32.0467 14.1667 32.1333 14.2334 32.2267C14.3267 32.3533 14.4267 32.48 14.4467 32.62C14.4667 32.72 14.4067 32.8333 14.3067 32.8933C14.0401 33.1 13.6134 33.0467 13.2467 33C13.1867 32.9933 13.1267 32.9867 13.0734 32.98C12.8201 32.96 12.3734 32.98 12.1267 33C11.1734 33.06 10.3334 33.54 9.59341 34.0667C9.46008 34.1533 9.08008 34.3867 8.77341 34.58C8.81341 34.7 8.88008 34.9 8.86007 35.0267C9.03341 35.1133 9.14008 35.3933 9.01341 35.6267C9.07341 35.7533 9.11341 35.9533 9.03341 36.0533C9.16674 36.2667 9.01341 36.5067 8.93341 36.5467C8.80007 36.6067 8.56674 36.6067 8.44007 36.4C8.22674 36.3467 8.12008 36.22 8.07341 36.08C7.69341 35.9733 7.54008 35.6467 7.75341 35.4C7.52674 35.28 7.44007 35.22 7.24008 35.0733C7.02674 35.0533 6.70674 34.9267 6.70674 34.58C6.30674 34.56 6.04674 34.3467 6.13341 33.8733C5.92007 33.8067 5.82008 33.7267 5.78008 33.46C5.74008 33.1667 5.96007 32.8933 6.13341 32.6867C6.18008 32.6333 6.22008 32.58 6.24674 32.54C6.24008 32.48 6.21341 32.3733 6.18674 32.26C6.14674 32.1067 6.11341 31.9333 6.11341 31.86C5.86674 31.7533 5.73341 31.5067 5.78008 31.26C5.53341 31.0667 5.58008 30.8 5.61341 30.62C5.62674 30.5467 5.63341 30.4867 5.62674 30.4533C5.56674 30.2733 5.44007 30.3 5.35341 30.36C5.35341 30.2333 5.39341 30.1667 5.44007 30.1067C5.24674 30.02 5.16674 29.8 5.24674 29.5533L3.07341 24.2733C2.81341 24.1867 2.72674 24.06 2.76674 23.8733C2.56008 23.8 2.40007 23.6133 2.40007 23.38V23.34C2.25341 23.4 2.04674 23.4 1.94007 23.18L1.36007 22.8267C1.38674 22.7933 1.36007 22.78 1.30007 22.76C1.22674 22.7333 1.12007 22.6867 1.01341 22.5667C0.773408 22.32 0.660075 21.92 0.693408 21.4333L1.22674 21.6467C1.22674 21.6467 1.22674 21.6333 1.22674 21.6267C1.24674 21.5667 1.26674 21.5133 1.30674 21.4733C1.25341 21.3933 1.23341 21.3133 1.24007 21.2467C1.23341 21.2467 1.22674 21.2333 1.21341 21.2267C1.20007 21.22 1.19341 21.2067 1.18007 21.2C1.22674 21.0733 1.31341 20.9333 1.40007 20.8133C1.40674 20.74 1.45341 20.6667 1.54674 20.6V20.5667C1.53341 20.5267 1.54674 20.46 1.59341 20.44C1.63341 20.44 1.67341 20.46 1.69341 20.48C1.90007 20.2867 2.14007 20.14 2.35341 20.0667C1.44007 20.0867 0.846742 19.6733 0.440075 19.14C0.786742 18.6933 1.44674 18.3667 2.18674 18.28C1.08007 18.1133 0.153408 17.4067 0.0734082 16.5867C0.526742 16.3133 1.26674 16.22 2.00007 16.2933C0.853408 15.8867 0.0334082 15.0067 -0.0065918 14.22C0.606742 14.04 1.24674 14.1333 1.81341 14.26C1.24007 13.8333 0.306742 13.0467 0.413408 11.8933C0.966742 11.76 2.00007 12.1467 2.41341 12.34C1.05341 11.5733 0.566741 9.76 1.28007 8.73333C1.54007 8.88667 2.36008 9.67333 3.03341 10.3267C3.47341 10.7467 3.84674 11.1133 3.97341 11.2067C2.98008 10.0533 2.50674 9.22667 2.22674 8.45333C1.90674 7.60667 1.89341 6.13333 2.92674 5.64C3.42007 6.77333 5.15341 9.67333 6.10674 10.8733C6.13341 10.8467 6.16008 10.82 6.18674 10.7933C6.26008 10.72 6.34008 10.64 6.43341 10.6267C6.66008 11.36 7.35341 12.3333 7.96674 12.8C7.99341 12.7333 8.05341 12.5667 8.16008 12.3867C8.50674 12.9 9.13341 13.52 9.74008 14.1067C10.2867 14.6467 10.8134 15.16 11.0801 15.5533C11.5134 16.1667 11.5134 16.7267 10.9134 17.3C10.9001 17.3133 10.8934 17.32 10.8801 17.3333C10.6401 17.58 10.2267 17.9933 10.6201 18.5667C11.1534 19.3533 12.2267 19.4467 12.8201 18.9933C12.8201 18.8467 12.8201 18.7133 12.8267 18.58C12.1334 18.3067 11.9734 17.3667 12.4934 16.78C12.6067 16.9933 12.7934 17.1467 13.0067 17.2333C13.0734 16.9933 13.1267 16.8667 13.1267 16.86L13.1467 16.8067H13.2067C13.2067 16.8067 13.4467 16.7933 13.7934 16.7533C13.4067 16.62 13.1601 16.2667 13.2134 15.7867C13.8067 16.3 14.4134 15.8133 14.5401 15.6733C14.9201 15.2267 15.0334 14.74 14.8734 13.98C14.7267 13.32 14.0667 12.2733 13.6201 11.94C13.6201 11.94 13.6067 11.9533 13.6001 11.96C13.5334 12.0267 13.4334 12.1267 13.2334 12.1067C13.1601 12.08 13.0667 12.04 12.9667 11.9933C12.8867 11.96 12.8134 11.92 12.7467 11.8933C12.3001 11.76 11.8534 11.8667 11.5667 12.04C11.0601 12.3533 11.0934 12.7 11.1267 12.9533C10.3267 12.5133 10.6134 11.78 11.6334 11.5133C11.0734 11.5133 10.6001 11.9133 10.3534 12.12C10.2867 12.1733 10.2401 12.2133 10.2067 12.2333C9.82008 12.52 9.26008 12.4533 8.95341 12.3C8.32674 12 8.20008 11.2733 8.36674 11.12C8.44008 11.3867 8.62674 11.6133 9.00008 11.66C9.52007 11.72 10.0134 11.5 10.4134 11.3267C10.4267 11.3267 10.4334 11.32 10.4467 11.3133C10.7867 11.1667 11.3467 11.06 11.7334 11.0867C11.0201 10.7 9.93341 10.74 9.56008 11.34C9.32008 11.1533 9.16674 10.9867 9.10674 10.6C8.91341 9.55333 9.70674 9.01333 10.6067 9.01333C10.5734 8.76 10.7534 8.63333 10.9801 8.72C10.9801 8.61333 11.0134 8.53333 11.0734 8.49333C11.0667 8.49333 11.0601 8.49333 11.0467 8.49333C11.0334 8.49333 11.0134 8.48667 11.0001 8.48667C10.1334 8.42667 9.29341 8.15333 8.84008 7.68C8.40674 7.21333 8.58674 6.68667 8.76674 6.16C8.91341 5.73333 9.05341 5.31333 8.86007 4.94667C8.76008 4.99333 8.66674 5.04 8.57341 5.08667C8.27341 5.24 7.97341 5.39333 7.52007 5.46C7.45341 5.58667 7.41341 5.84 7.39341 5.97333C7.29341 6.43333 7.46674 6.7 7.64008 6.97333C7.82008 7.26 8.00674 7.54667 7.88674 8.05333C7.83341 8.26667 7.73341 8.41333 7.62674 8.56C7.50674 8.73333 7.38674 8.90667 7.32674 9.19333C7.32674 9.19333 7.25341 9.56667 7.60007 9.89333C6.83341 9.91333 6.44674 9.28 6.68008 8.68C6.72008 8.6 6.77341 8.51333 6.82674 8.43333C6.93341 8.27333 7.04008 8.10667 7.04008 7.92667C6.64674 8.44 6.31341 8.42 5.72008 8.23333C5.43341 8.14667 5.41341 8.52667 5.58674 8.83333C5.18674 8.59333 5.07341 8.19333 5.07341 8.01333C5.07341 7.59333 5.39341 7.4 5.72008 7.48C5.76008 7.48 5.81341 7.5 5.87341 7.52C6.04674 7.58 6.26008 7.65333 6.27341 7.39333C6.30008 7.14 6.14008 6.99333 5.96674 6.84C5.73341 6.63333 5.47341 6.40667 5.58674 5.85333C5.70674 5.36667 6.23341 5.10667 7.06008 5C7.07341 4.98667 7.09341 4.96667 7.12008 4.94C7.22674 4.84 7.38674 4.68 7.47341 4.54667C7.94674 3.78 8.42008 3.58667 8.69341 3.74C8.89341 3.83333 9.03341 3.92667 9.16674 4.01333C9.26674 4.08 9.36008 4.14 9.48008 4.2C9.54674 4.23333 9.61341 4.26667 9.68008 4.29333C9.83341 4.36 9.98008 4.42667 10.0934 4.54667C10.4401 4.99333 10.1201 5.68 9.92008 6.11333V6.13333C9.92008 6.13333 9.90007 6.15333 9.89341 6.16667C9.76008 6.43333 9.48674 6.98 9.61341 7.39333C9.76008 7.90667 10.6201 8.22667 11.1334 8.34C11.1467 8.34 11.1534 8.34 11.1667 8.34C11.1801 8.34 11.2001 8.34 11.2134 8.34V8.14C11.0601 7.88 10.9334 7.56667 10.8267 7.28C10.4801 6.36 10.9934 5.98 11.7734 5.80667C11.8601 5.74667 11.9601 5.72 12.0867 5.76667H12.1067L12.1267 5.92L12.2467 5.88667L12.2201 5.7H12.2601C12.1601 5.64 12.1201 5.53333 12.1201 5.42667C12.1201 5.31333 12.1667 5.22667 12.2201 5.16667H12.1067L12.1467 5.12667C12.1467 5.12667 12.1801 5.08 12.2001 5.05333C12.2201 5.03333 12.2401 5.00667 12.2601 4.97333C12.3001 4.94667 12.3201 4.90667 12.3201 4.88667C12.3201 4.88667 12.3201 4.88667 12.3134 4.89333C12.3001 4.91333 12.2801 4.92667 12.2401 4.94667C12.2267 4.95333 12.2134 4.96667 12.2001 4.97333C12.1601 5.00667 12.1134 5.04 12.1001 5.07333L12.0334 5.11333V4.25333L12.1001 4.30667C12.1001 4.30667 12.1401 4.34 12.1734 4.36667C12.1934 4.38 12.2201 4.4 12.2401 4.41333C12.2601 4.43333 12.2734 4.44667 12.2867 4.45333C12.3001 4.46 12.3067 4.46667 12.3134 4.48C12.3134 4.46 12.2934 4.44 12.2534 4.39333C12.2134 4.35333 12.1534 4.28667 12.1334 4.26L12.0934 4.19333H12.9534L12.9134 4.26C12.9134 4.26 12.8601 4.30667 12.8401 4.34C12.8201 4.36 12.8067 4.38 12.7867 4.39333C12.7601 4.43333 12.7334 4.46 12.7134 4.48C12.7201 4.48 12.7334 4.46667 12.7467 4.46667C12.7667 4.46 12.7934 4.44667 12.8067 4.42C12.8334 4.4 12.8534 4.38667 12.8734 4.37333C12.9067 4.34667 12.9334 4.32667 12.9601 4.31333L13.0001 4.26V5.10667L12.9601 5.06667C12.9601 5.06667 12.9401 5.05333 12.9334 5.04C12.8934 5.00667 12.8601 4.97333 12.8134 4.94C12.8001 4.92667 12.7801 4.92 12.7601 4.90667C12.7467 4.9 12.7267 4.88667 12.7201 4.88C12.7334 4.89333 12.7467 4.90667 12.7601 4.92667C12.7734 4.94 12.7867 4.95333 12.7934 4.96667C12.8334 5.03333 12.8801 5.07333 12.9201 5.11333L12.9601 5.15333H12.8334C12.9001 5.21333 12.9201 5.3 12.9201 5.41333C12.9201 5.51333 12.8801 5.62667 12.8201 5.68667H12.8401L12.8201 5.87333L12.9201 5.90667L12.9401 5.75333H12.9601C13.0867 5.71333 13.1867 5.73333 13.2734 5.79333C14.0467 5.97333 14.5601 6.34667 14.2201 7.26667C14.1201 7.55333 13.9867 7.86667 13.8334 8.12667V8.26C14.6067 8.00667 16.0134 7.16 16.3801 6.64667C16.4067 6.62 16.4267 6.59333 16.4401 6.57333C16.4467 6.56 16.4601 6.54667 16.4667 6.54V5.96667C16.1801 5.52 15.9334 4.96 15.7667 4.44667C15.2734 3.11333 16.0001 2.56667 17.1401 2.33333C17.2667 2.25333 17.4134 2.21333 17.6001 2.27333L17.6201 2.48667L17.8601 2.46667L17.8401 2.19333C17.9067 2.21333 17.9467 2.21333 17.9867 2.21333C17.8201 2.13333 17.7134 1.92667 17.7134 1.72C17.7134 1.57333 17.7734 1.39333 17.9001 1.30667H17.7134C17.7134 1.30667 17.7534 1.26 17.7734 1.23333C17.8734 1.12 18.0067 0.953333 18.0267 0.84C17.9067 0.88 17.7201 1.05333 17.6001 1.16C17.5934 1.16667 17.5801 1.18 17.5734 1.18667V0.126667C17.5734 0.126667 17.6467 0.186667 17.6934 0.22C17.8067 0.313333 17.9401 0.426667 18.0267 0.44C18.0134 0.346667 17.8867 0.206667 17.7934 0.0933333C17.7601 0.06 17.7334 0.0266667 17.7134 0H18.8001C18.6801 0.106667 18.4934 0.32 18.4601 0.44C18.5801 0.426667 18.7534 0.273333 18.8667 0.18C18.8867 0.16 18.9134 0.14 18.9267 0.126667V1.21333C18.8267 1.10667 18.6067 0.906667 18.4601 0.866667C18.5001 1.01333 18.6867 1.23333 18.8001 1.34H18.6001C18.7267 1.42667 18.8001 1.6 18.8001 1.75333C18.8001 1.96 18.6801 2.16 18.5201 2.24667C18.5601 2.24667 18.6067 2.24667 18.6401 2.24L18.6201 2.51333L18.8601 2.53333L18.9001 2.32C19.0934 2.25333 19.2334 2.29333 19.3534 2.38C20.5001 2.60667 21.2267 3.16667 20.7334 4.49333C20.5467 5 20.3067 5.56 20.0334 6.01333L20.0201 6.56667C20.0201 6.56667 20.0734 6.64 20.1134 6.69333C20.4867 7.20667 21.8867 8.06 22.6601 8.30667V8.17333C22.5067 7.91333 22.3801 7.6 22.2734 7.31333C21.9267 6.39333 22.4401 6.01333 23.2201 5.84C23.3067 5.78 23.4067 5.75333 23.5334 5.8H23.5534L23.5734 5.95333L23.6867 5.92L23.6667 5.73333H23.6867C23.6201 5.67333 23.5734 5.56667 23.5734 5.46C23.5734 5.34667 23.5934 5.26 23.6667 5.2H23.5334L23.5734 5.16C23.5734 5.16 23.6067 5.12667 23.6267 5.10667C23.6534 5.08 23.6867 5.05333 23.7134 5.01333C23.7201 5.00667 23.7267 4.99333 23.7334 4.98C23.7467 4.96 23.7601 4.94 23.7734 4.92667C23.7601 4.93333 23.7467 4.94667 23.7334 4.96C23.7201 4.97333 23.7001 4.98 23.6934 4.99333C23.6267 5.03333 23.5801 5.08 23.5401 5.12L23.5001 5.16V4.3L23.5334 4.35333C23.5334 4.35333 23.5667 4.38 23.5867 4.39333C23.6134 4.41333 23.6401 4.44 23.6867 4.46C23.7001 4.48667 23.7267 4.5 23.7401 4.50667C23.7534 4.50667 23.7601 4.51333 23.7667 4.52C23.7667 4.52 23.7267 4.48 23.7067 4.43333C23.6934 4.42 23.6801 4.40667 23.6601 4.38667C23.6267 4.35333 23.5934 4.31333 23.5667 4.3L23.5267 4.23333H24.3867L24.3467 4.3C24.3467 4.3 24.2867 4.39333 24.2201 4.43333C24.2134 4.44667 24.2067 4.45333 24.2001 4.46667C24.1867 4.48667 24.1801 4.50667 24.1801 4.52C24.1867 4.52 24.1934 4.50667 24.2067 4.50667C24.2201 4.5 24.2401 4.48667 24.2667 4.46C24.2934 4.42667 24.3334 4.4 24.3601 4.38C24.3734 4.36667 24.3867 4.36 24.3934 4.35333L24.4534 4.3V5.14667L24.3934 5.10667C24.3934 5.10667 24.3467 5.05333 24.3134 5.02C24.3001 5.00667 24.2801 4.99333 24.2667 4.98C24.2267 4.96 24.2001 4.94 24.1801 4.92C24.1801 4.94667 24.2001 4.98667 24.2201 5.00667C24.2867 5.07333 24.3267 5.11333 24.3467 5.15333L24.3867 5.19333H24.2867C24.3267 5.25333 24.3734 5.34 24.3734 5.45333C24.3734 5.55333 24.3334 5.66667 24.2467 5.72667H24.2934L24.2734 5.91333L24.3734 5.94667L24.3934 5.79333H24.4134C24.5401 5.75333 24.6401 5.77333 24.7401 5.83333C25.5001 6.01333 26.0134 6.38667 25.6667 7.30667C25.5667 7.59333 25.4401 7.90667 25.2867 8.16667V8.36667C25.2867 8.36667 25.3201 8.36667 25.3334 8.36667C25.3467 8.36667 25.3601 8.36667 25.3801 8.36667C25.8934 8.26 26.7401 7.94 26.8867 7.42C27.0134 7.00667 26.7401 6.46 26.6067 6.19333C26.6067 6.18 26.5934 6.17333 26.5934 6.16C26.5801 6.13333 26.5667 6.10667 26.5601 6.08C26.3667 5.64667 26.0867 5.00667 26.4267 4.58C26.5267 4.46 26.6734 4.4 26.8267 4.32667C26.8934 4.3 26.9601 4.26667 27.0267 4.23333C27.1467 4.16667 27.2467 4.10667 27.3467 4.04C27.4801 3.95333 27.6201 3.86667 27.8134 3.76667C28.1001 3.61333 28.5734 3.81333 29.0334 4.57333C29.1334 4.72 29.3134 4.9 29.4067 4.99333C29.4201 5.00667 29.4267 5.01333 29.4401 5.02667C30.2734 5.12667 30.8134 5.39333 30.9134 5.88C31.0201 6.42667 30.7667 6.65333 30.5401 6.86C30.3667 7.01333 30.2067 7.16 30.2401 7.42C30.2601 7.68 30.4601 7.60667 30.6334 7.54667C30.6934 7.52667 30.7534 7.50667 30.7934 7.5C31.1067 7.41333 31.4334 7.61333 31.4334 8.03333C31.4334 8.21333 31.3334 8.60667 30.9201 8.85333C31.0867 8.54667 31.0667 8.17333 30.7934 8.25333C30.1934 8.44667 29.8467 8.46667 29.4601 7.94667C29.4601 8.12667 29.5667 8.28667 29.6734 8.44C29.7334 8.52667 29.7867 8.61333 29.8267 8.7C30.0601 9.29333 29.6601 9.93333 28.9067 9.91333C29.2334 9.58667 29.1934 9.21333 29.1934 9.21333C29.1334 8.93333 29.0134 8.75333 28.8934 8.58667C28.7867 8.43333 28.6867 8.28667 28.6334 8.07333C28.5134 7.56 28.6934 7.27333 28.8734 6.98667C29.0467 6.71333 29.2134 6.44667 29.1201 5.98667C29.1001 5.85333 29.0467 5.6 28.9867 5.47333C28.5534 5.41333 28.2734 5.26667 27.9801 5.12C27.8734 5.06667 27.7601 5.00667 27.6467 4.96C27.4467 5.33333 27.5867 5.75333 27.7334 6.18667C27.9134 6.70667 28.0934 7.23333 27.6601 7.69333C27.2134 8.16667 26.3801 8.43333 25.5001 8.49333C25.4934 8.49333 25.4801 8.49333 25.4667 8.49333C25.4534 8.49333 25.4401 8.49333 25.4334 8.49333C25.4934 8.53333 25.5201 8.62 25.5201 8.72667C25.7534 8.64 25.9334 8.76667 25.9067 9.02C26.7801 9.02 27.6001 9.56 27.3934 10.6067C27.3267 10.9933 27.1801 11.16 26.9467 11.3467C26.5601 10.7467 25.4734 10.7067 24.7734 11.0933C25.1534 11.0667 25.7067 11.18 26.0534 11.32C26.4601 11.5 26.9734 11.7333 27.5067 11.6733C27.8667 11.6333 28.0667 11.4 28.1267 11.1333C28.2934 11.28 28.1667 12.0133 27.5467 12.3133C27.2267 12.4667 26.6667 12.5333 26.2801 12.2467C26.2467 12.2267 26.1934 12.1867 26.1267 12.1267C25.8734 11.92 25.4067 11.5267 24.8534 11.5267C25.8734 11.8 26.1467 12.5333 25.3667 12.9667C25.3667 12.9533 25.3667 12.94 25.3667 12.9333C25.3801 12.6867 25.4001 12.3533 24.9134 12.06C24.6334 11.88 24.1934 11.7733 23.7401 11.9133C23.6667 11.94 23.5801 11.98 23.5001 12.0133C23.4067 12.0533 23.3134 12.1 23.2467 12.12C23.0467 12.14 22.9467 12.04 22.8801 11.9733C22.8734 11.9667 22.8667 11.96 22.8601 11.9533C22.4134 12.2867 21.7267 13.3333 21.6067 13.9933C21.4601 14.7533 21.5667 15.2467 21.9401 15.6867C22.0734 15.82 22.6734 16.3133 23.2734 15.8C23.3267 16.28 23.0801 16.64 22.6934 16.7667C23.0334 16.8067 23.2601 16.82 23.2667 16.82H23.3267L23.3534 16.8733C23.3534 16.8733 23.3534 16.8733 23.3534 16.8867C23.3667 16.92 23.4134 17.04 23.4667 17.2533C23.6934 17.1733 23.8801 17.0133 23.9867 16.8C24.5001 17.3867 24.3401 18.34 23.6401 18.6067C23.6401 18.7333 23.6467 18.8667 23.6467 19.0067C24.2334 19.4733 25.3267 19.38 25.8667 18.5933C26.2534 18.0133 25.8334 17.5933 25.5867 17.3533C25.5801 17.3467 25.5734 17.34 25.5667 17.3333C24.9667 16.76 24.9667 16.2 25.4001 15.5867C25.6667 15.1867 26.2001 14.6667 26.7534 14.1267C27.3534 13.54 27.9801 12.9333 28.3201 12.42C28.3934 12.5467 28.4467 12.66 28.4801 12.74C28.5001 12.78 28.5134 12.8067 28.5201 12.8267C29.1401 12.36 29.8201 11.38 30.0534 10.6533C30.1534 10.6733 30.2267 10.74 30.3001 10.82C30.3267 10.8467 30.3534 10.8733 30.3801 10.9C31.3401 9.69333 33.0734 6.79333 33.5667 5.66667C34.6134 6.16 34.5867 7.64 34.2667 8.48C33.9934 9.25333 33.5267 10.08 32.5134 11.2333C32.6401 11.14 33.0467 10.7533 33.5067 10.3067C34.1734 9.66667 34.9534 8.90667 35.2134 8.76C35.9401 9.78667 35.4467 11.6 34.0801 12.3667C34.5067 12.1733 35.5201 11.7867 36.0801 11.92C36.2001 13.0733 35.2534 13.86 34.6801 14.2867C35.2334 14.16 35.8734 14.0667 36.4934 14.2467C36.4534 15.0333 35.6401 15.9067 34.4601 16.32H34.4667ZM1.72674 22.12C1.72674 22.12 1.74007 22.1 1.74674 22.1C1.74007 22.06 1.73341 22.0267 1.72674 21.9867C1.72674 21.94 1.71341 21.8933 1.70007 21.8467L1.76007 21.8067L1.74007 21.7867C1.70007 21.8267 1.65341 21.8467 1.59341 21.8467C1.56674 21.9733 1.56674 22.12 1.69341 22.14C1.70007 22.1333 1.70674 22.12 1.71341 22.1133L1.72674 22.12ZM1.95341 22.86L2.16007 22.98C2.20007 22.94 2.20007 22.88 2.20007 22.8133C2.11341 22.76 2.03341 22.76 1.95341 22.8533V22.86ZM2.69341 21.6733H2.78008C2.78008 21.6733 2.78008 21.66 2.78674 21.66C2.78674 21.6533 2.79341 21.6467 2.79341 21.64C2.77341 21.64 2.76008 21.6467 2.74008 21.6467C2.72008 21.6467 2.70008 21.6467 2.68674 21.6533C2.68674 21.6533 2.68674 21.6533 2.69341 21.66C2.69341 21.66 2.69341 21.6667 2.70008 21.6667L2.69341 21.6733ZM14.0401 36.2C13.7801 36.6533 14.1401 36.9733 14.6534 36.9733C14.6534 36.7933 14.6534 36.7333 14.6801 36.52C14.4467 36.5 14.1734 36.4 14.0401 36.2ZM21.8534 36.9733C22.3667 36.9733 22.7334 36.6533 22.4667 36.2C22.3267 36.4133 22.0467 36.5067 21.8067 36.52C21.8467 36.7333 21.8467 36.7933 21.8467 36.9733H21.8534ZM17.5401 7.00667C17.0001 7.56 15.8067 8.22 14.6334 8.47333C15.3134 8.47333 16.5067 8.41333 16.6667 8.24C16.6267 8.66667 15.7067 9.15333 15.1067 9.28667C15.6001 9.34667 16.0667 9.28667 16.4467 9.10667C16.2334 9.41333 16.0001 9.64 15.5934 9.77333C16.0201 10.2867 16.8467 10.6267 17.7067 10.54C17.5134 10.7933 17.1334 10.9467 16.7867 10.9067C17.5467 12.1267 18.1134 13.38 18.2401 14.8333C18.3734 13.3867 18.9401 12.1333 19.7067 10.9133C19.3734 10.96 18.9801 10.8 18.7734 10.5467C19.6201 10.6267 20.4801 10.2933 20.9001 9.78C20.5001 9.64667 20.2601 9.41333 20.0467 9.11333C20.4334 9.29333 20.8934 9.35333 21.3867 9.29333C20.7867 9.16 19.8801 8.68 19.8334 8.24667C19.9801 8.41333 21.1734 8.47333 21.8534 8.47333C20.6734 8.22 19.5001 7.57333 18.9734 7.01333C18.5401 7.04 17.9667 7.03333 17.5201 7.01333L17.5401 7.00667ZM3.54674 21.5067C3.64674 21.4667 3.77341 21.4067 3.88008 21.36C3.84008 21.3733 3.79341 21.3867 3.74674 21.4067C3.68008 21.4267 3.60674 21.4533 3.54008 21.48V21.5067H3.54674ZM11.5267 27.18C11.4667 27.08 11.4467 27 11.4267 26.8533C12.1734 27.1267 12.8201 26.9133 13.1134 26.32C12.9667 26.38 12.7334 26.4067 12.5401 26.4067C13.2001 25.8667 13.1601 24.3533 12.6867 23.5667C12.6601 23.5533 12.6401 23.5333 12.6267 23.52C12.6001 23.4933 12.5801 23.4733 12.5401 23.4667C12.4601 23.6267 12.2934 23.7 12.1267 23.7667C11.9867 23.8267 11.8467 23.8867 11.7534 23.9933C11.7067 23.9467 11.6667 23.9267 11.6334 23.9C11.6001 23.8733 11.5734 23.8533 11.5334 23.82C11.5334 23.82 11.5134 25.0667 11.4334 25.58C11.3801 25.96 11.1134 26.0667 10.8534 26.16C10.7201 26.2067 10.5934 26.26 10.4934 26.3467C10.3867 26.22 10.2401 26.14 10.1067 26.06C9.84674 25.9133 9.61341 25.78 9.66674 25.36C9.70008 25.1067 9.74008 24.8667 9.78008 24.64C9.84008 24.2933 9.88674 23.98 9.90008 23.72C9.78008 23.9667 9.58674 24.6467 9.42008 25.22C9.32674 25.5467 9.24674 25.8333 9.19341 25.9867C9.04008 26.3867 8.74008 26.4467 8.45341 26.5067C8.29341 26.54 8.14007 26.5733 8.02007 26.66C7.94674 26.52 7.84008 26.4067 7.73341 26.3067C7.52008 26.0933 7.32008 25.8933 7.46674 25.46C7.48674 25.4 7.61341 25.1333 7.77341 24.7867C8.07341 24.1467 8.49341 23.2467 8.57341 23.0067C8.38008 23.2933 7.98674 24.0133 7.64674 24.6467C7.42008 25.0667 7.21341 25.4467 7.10007 25.64C6.90674 25.9667 6.59341 25.9667 6.28674 25.9667C6.13341 25.9667 5.98008 25.9667 5.84674 26.0133C5.82674 25.9067 5.76008 25.7867 5.69341 25.6667C5.53341 25.3867 5.34674 25.06 5.60674 24.6333C5.89341 24.1733 6.38007 23.52 6.76674 23C7.06674 22.6 7.30008 22.28 7.34008 22.1933C7.19341 22.3267 6.44008 23.24 5.86007 23.9467C5.51341 24.3667 5.22674 24.7133 5.18008 24.76C4.86674 25.02 4.48007 24.9467 4.14674 24.8933C4.04674 24.8733 3.94674 24.86 3.86007 24.8533L3.76674 24.6533C3.76008 24.6 3.74674 24.5533 3.73341 24.5C3.66674 24.18 3.58674 23.84 3.93341 23.5C4.15341 23.2933 4.52008 23 4.85341 22.74C5.16674 22.4933 5.44674 22.2667 5.56008 22.1533C5.34674 22.3 5.12008 22.4733 4.89341 22.6467C4.42674 23.0067 3.96674 23.36 3.64008 23.44C3.56674 23.46 3.48674 23.48 3.42008 23.4867C3.42008 23.52 3.41341 23.5467 3.39341 23.5867V23.6267C3.57341 23.7133 3.65341 23.9533 3.49341 24.12L5.98008 29.2467C6.26008 29.3333 6.32674 29.5933 6.28674 29.8C6.30674 29.8 6.43341 29.82 6.50008 29.9133C6.35341 29.9333 6.35341 30.06 6.41341 30.1667C6.44674 30.22 6.50008 30.2533 6.55341 30.2933C6.68008 30.38 6.83341 30.4867 6.84674 30.8333C7.07341 30.9333 7.14008 31.24 7.06008 31.4933C7.18674 31.6067 7.28674 31.84 7.28674 31.84C7.38674 31.6867 7.61341 31.7333 7.70008 31.7933C8.02008 31.4867 8.42674 31.6467 8.58008 32.14C8.74674 32.6533 9.38008 32.8667 9.75341 32.8C10.2001 32.74 10.9867 32.4333 11.4134 32.2267C11.6867 32.0867 11.8601 31.9867 12.0134 31.8867C12.0601 31.6933 12.0201 31.4467 11.9934 31.3467C11.9067 31.4467 11.7801 31.5667 11.5801 31.6667C11.5801 31.6333 11.5734 31.6 11.5667 31.5667C11.5601 31.4933 11.5467 31.42 11.5201 31.36C11.3334 31.6467 11.0267 31.7867 10.6667 31.7733C10.8801 31.5867 10.9801 31.0933 10.8801 30.66C10.5734 31.1733 9.42674 31.28 9.22008 30.3533C9.64674 30.5533 9.91341 30.3333 10.0001 30.1C10.0401 29.9667 10.0134 29.76 9.98008 29.5267C9.92008 29.1133 9.84008 28.5933 10.1001 28.1533C10.3934 27.64 10.7334 27.3267 11.5401 27.2L11.5267 27.18ZM15.9734 34.1533C16.0001 34.1133 16.0334 34.0733 16.0667 34.0267C16.1467 33.9333 16.2267 33.8333 16.3067 33.74C16.5734 33.42 16.8534 33.0867 17.0601 32.7333C16.7734 33.0667 16.3601 33.4 15.9667 33.7133C15.5001 34.0867 15.0667 34.4333 14.9001 34.7333C14.7534 35.0133 14.6667 35.5667 15.1201 35.6133C15.3534 35 15.6267 34.6267 15.9734 34.1533ZM17.0601 38.0933C16.9734 37.4467 17.1534 35.9933 17.4067 35.0133C17.4334 34.9067 17.4734 34.78 17.5201 34.6333C17.7601 33.8333 18.1534 32.52 17.9201 32C17.8134 32.82 17.4867 34.1 17.0201 35.1467C16.6867 35.9 16.1934 37.6467 17.0601 38.1V38.0933ZM19.0934 35.0133C19.3534 35.9933 19.5201 37.44 19.4401 38.0933C20.3067 37.64 19.8201 35.8933 19.4801 35.14C19.0067 34.0867 18.6801 32.8133 18.5801 31.9933C18.3534 32.52 18.7467 33.84 18.9867 34.6333C19.0267 34.78 19.0667 34.9067 19.0934 35.0133ZM21.3801 35.6067C21.8334 35.5667 21.7467 35.0133 21.6001 34.7267C21.4401 34.4267 21.0067 34.0867 20.5467 33.72C20.1467 33.4 19.7267 33.0667 19.4401 32.7267C19.6801 33.1267 20.0001 33.5067 20.3134 33.8667C20.3601 33.92 20.4067 33.9733 20.4534 34.0267C20.5067 34.1 20.5534 34.1667 20.6001 34.2333C20.9067 34.6667 21.1667 35.0333 21.3801 35.6067ZM18.2534 31.2067C18.2534 31.2067 20.3534 29.4333 21.4867 27.2333C22.6201 25.0333 23.3467 21.5733 23.3934 19.92C23.4334 18.2733 23.1134 17.56 23.1134 17.56C23.1134 17.56 21.6934 17.4867 20.5601 17.0867C19.5934 16.7533 18.5467 15.9067 18.2534 15.66C17.9601 15.9067 16.9134 16.7533 15.9534 17.0867C14.8201 17.48 13.4001 17.56 13.4001 17.56C13.4001 17.56 13.0734 18.2667 13.1134 19.92C13.1534 21.5733 13.8801 25.0333 15.0134 27.2333C16.1467 29.44 18.2267 31.2333 18.2534 31.2067ZM22.2467 19.4733C22.2467 19.4733 22.2734 19.5133 22.2734 19.5333C22.2801 19.64 22.3867 21.12 21.7001 21.8733C21.4401 22.1533 21.1067 22.3 20.6934 22.3C20.6201 22.3 20.5467 22.3 20.4667 22.2867C20.0667 22.24 19.6801 22.14 19.3067 22L18.6601 22.44L20.0934 23.4133C20.0934 23.4133 20.1401 23.4667 20.1401 23.5C20.1401 23.5333 20.1201 23.5733 20.0934 23.5867L18.6534 24.58L19.8801 25.4333L19.9734 25.1933C19.9867 25.1533 20.0201 25.1267 20.0667 25.1267C20.1067 25.1267 20.1401 25.1467 20.1601 25.18L20.7467 26.2533C20.7467 26.2533 20.7667 26.3267 20.7467 26.36C20.7267 26.3933 20.6934 26.4067 20.6601 26.4067H20.6467L19.4401 26.2267C19.4001 26.22 19.3601 26.1867 19.3534 26.1533C19.3467 26.1133 19.3534 26.0667 19.3867 26.04L19.5867 25.86L18.1934 24.9L16.8001 25.86L17.0001 26.04C17.0001 26.04 17.0401 26.1067 17.0267 26.1533C17.0201 26.1933 16.9867 26.2267 16.9401 26.2267L15.7334 26.4067H15.7201C15.6801 26.4067 15.6534 26.3867 15.6334 26.36C15.6134 26.3333 15.6134 26.2867 15.6334 26.2533L16.2134 25.18C16.2134 25.18 16.2667 25.1267 16.3067 25.1267C16.3467 25.1267 16.3867 25.1533 16.4001 25.1933L16.4934 25.4333L17.7201 24.58L16.2801 23.5867C16.2801 23.5867 16.2334 23.5333 16.2334 23.5C16.2334 23.46 16.2534 23.4333 16.2801 23.4133L17.7134 22.44L17.0667 22C16.6867 22.1333 16.3001 22.24 15.9067 22.2867C15.8334 22.3 15.7534 22.3 15.6801 22.3C15.2734 22.3 14.9334 22.1533 14.6734 21.8733C13.9801 21.12 14.0934 19.64 14.1001 19.54C14.1001 19.54 14.1067 19.4867 14.1267 19.4733C14.1334 19.46 14.3601 19.2333 14.7534 19.2333C14.9534 19.2333 15.1667 19.3 15.3801 19.42C15.4201 19.44 15.4334 19.48 15.4334 19.52C15.4334 19.52 15.4334 19.5267 15.4334 19.54C15.4134 19.6867 15.2934 20.6133 15.4001 21.0267C15.4867 21.36 15.7801 21.76 16.3001 21.76C16.4134 21.76 16.5267 21.74 16.6467 21.7067L16.2534 21.44C16.2534 21.44 16.2067 21.3867 16.2067 21.3533C16.2067 21.32 16.2267 21.28 16.2534 21.2667L17.0334 20.7267C16.8267 20.5667 16.6801 20.4533 16.6267 20.4067C16.6134 20.4 16.6067 20.3933 16.6067 20.3867C16.5801 20.3667 16.5667 20.34 16.5667 20.3133C16.5667 20.28 16.5801 20.2533 16.6001 20.2333L16.7401 20.0933C16.7401 20.0933 16.7867 20.06 16.8134 20.06C16.8334 20.06 16.8601 20.0667 16.8801 20.0867C16.8801 20.0867 17.0934 20.2533 17.4001 20.4667L17.7134 20.2533L16.4867 19.4133L16.3867 19.6533C16.3667 19.6933 16.3334 19.72 16.2934 19.72C16.2534 19.72 16.2201 19.7 16.2001 19.6667L15.6201 18.5933C15.6001 18.5533 15.6001 18.5133 15.6201 18.48C15.6401 18.4467 15.6734 18.4333 15.7067 18.4333H15.7201L16.9267 18.6133C16.9667 18.6133 17.0001 18.6467 17.0134 18.6867C17.0267 18.7267 17.0134 18.7667 16.9867 18.7933L16.7934 18.9667L18.1801 19.9267L19.5734 18.9667L19.3801 18.7933C19.3801 18.7933 19.3401 18.72 19.3467 18.6867C19.3601 18.6467 19.3934 18.6133 19.4334 18.6133L20.6401 18.4333H20.6534C20.6934 18.4333 20.7201 18.4533 20.7401 18.48C20.7601 18.5133 20.7667 18.5533 20.7401 18.5933L20.1534 19.6667C20.1534 19.6667 20.1001 19.72 20.0601 19.72C20.0201 19.72 19.9801 19.6933 19.9667 19.6533L19.8734 19.4133L18.6467 20.2533L18.9601 20.4667C19.1867 20.3067 19.3601 20.18 19.4401 20.12C19.4667 20.1 19.4867 20.0867 19.4867 20.0867C19.5067 20.0733 19.5267 20.06 19.5534 20.06C19.5801 20.06 19.6067 20.0733 19.6267 20.0933L19.7667 20.2333C19.7667 20.2333 19.8001 20.2867 19.8001 20.3133C19.8001 20.34 19.7867 20.3667 19.7601 20.3867C19.7401 20.4067 19.5867 20.5333 19.3401 20.72L20.1201 21.26C20.1201 21.26 20.1667 21.3133 20.1667 21.3467C20.1667 21.38 20.1467 21.4133 20.1201 21.4333L19.7267 21.7C19.8467 21.7333 19.9601 21.7533 20.0734 21.7533C20.5934 21.7533 20.8801 21.3533 20.9667 21.02C21.0734 20.6067 20.9534 19.6867 20.9334 19.5333C20.9334 19.52 20.9334 19.5133 20.9334 19.5133C20.9267 19.4733 20.9467 19.4267 20.9867 19.4133C21.2001 19.2933 21.4067 19.2267 21.6134 19.2267C21.9934 19.2267 22.2201 19.4533 22.2334 19.4667L22.2467 19.4733ZM18.4934 20.7933L18.1867 20.58L17.8801 20.7933C17.9601 20.8467 18.0401 20.8933 18.1267 20.9467C18.1467 20.96 18.1667 20.9733 18.1867 20.9867C18.2534 20.9467 18.3201 20.9067 18.3801 20.8667C18.4201 20.84 18.4534 20.82 18.4934 20.7933ZM17.4867 21.06L17.0601 21.3533L17.2401 21.48C17.4067 21.4 17.5734 21.3133 17.7467 21.2267C17.7267 21.2133 17.7067 21.2 17.6801 21.1867C17.6134 21.14 17.5467 21.1 17.4801 21.06H17.4867ZM18.1801 24.2533L19.2801 23.5L18.1801 22.76L17.0867 23.5L18.1801 24.2533ZM17.6534 21.7533L18.1801 22.1133L18.7134 21.7533C18.5267 21.6667 18.3467 21.5733 18.1801 21.48C18.0134 21.5733 17.8401 21.66 17.6534 21.7533ZM18.6134 21.2267C18.7801 21.32 18.9534 21.4067 19.1201 21.48L19.3001 21.3533L18.8734 21.06C18.7867 21.1133 18.7067 21.1733 18.6134 21.2267Z" fill="#4C4C4C"/>
              <path d="M44.1067 10.6668V2.9068H46.7267C47.3333 2.9068 47.8333 3.01346 48.22 3.23346C48.6067 3.45346 48.9 3.7468 49.0867 4.11346C49.2733 4.4868 49.3667 4.90013 49.3667 5.35346C49.3667 5.8068 49.2733 6.2268 49.0867 6.60013C48.9 6.97346 48.62 7.27346 48.2333 7.49346C47.8467 7.71346 47.3534 7.82013 46.7467 7.82013H44.8667V6.9868H46.7133C47.1267 6.9868 47.4667 6.91346 47.72 6.77346C47.9733 6.6268 48.1533 6.43346 48.2667 6.19346C48.38 5.9468 48.44 5.6668 48.44 5.35346C48.44 5.04013 48.38 4.7668 48.2667 4.52013C48.1533 4.27346 47.9667 4.08013 47.7133 3.9468C47.46 3.8068 47.12 3.73346 46.7 3.73346H45.0467V10.6601H44.1067V10.6668ZM50.88 10.6668V2.9068H55.56V3.74013H51.82V6.36013H55.32V7.19346H51.82V9.8268H55.62V10.6601H50.88V10.6668ZM57.2533 10.6668V2.9068H61.9333V3.74013H58.1933V6.36013H61.6933V7.19346H58.1933V9.8268H61.9933V10.6601H57.2533V10.6668ZM69.8733 5.33346H68.9333C68.88 5.06013 68.78 4.8268 68.64 4.62013C68.5 4.41346 68.3333 4.2468 68.14 4.1068C67.9467 3.9668 67.7267 3.86013 67.4933 3.7868C67.26 3.71346 67.0067 3.68013 66.7533 3.68013C66.28 3.68013 65.86 3.80013 65.4733 4.03346C65.0933 4.27346 64.7933 4.62013 64.5667 5.08013C64.3467 5.54013 64.2333 6.1068 64.2333 6.78013C64.2333 7.45346 64.3467 8.02013 64.5667 8.48013C64.7933 8.94013 65.0933 9.29346 65.4733 9.5268C65.8533 9.7668 66.28 9.88013 66.7533 9.88013C67.0133 9.88013 67.26 9.8468 67.4933 9.77346C67.7333 9.70013 67.9467 9.60013 68.14 9.46013C68.3333 9.32013 68.5 9.1468 68.64 8.94013C68.78 8.73346 68.8733 8.49346 68.9333 8.2268H69.8733C69.8 8.62013 69.6733 8.98013 69.4867 9.29346C69.3 9.6068 69.0667 9.87346 68.7867 10.0935C68.5067 10.3135 68.2 10.4735 67.8533 10.5868C67.5133 10.7001 67.14 10.7601 66.7533 10.7601C66.0933 10.7601 65.5 10.6001 64.9867 10.2735C64.4734 9.95346 64.0667 9.49346 63.7733 8.89346C63.48 8.30013 63.3333 7.59346 63.3333 6.77346C63.3333 5.95346 63.48 5.2468 63.7733 4.65346C64.0667 4.06013 64.4734 3.60013 64.9867 3.27346C65.5 2.9468 66.0933 2.7868 66.7533 2.7868C67.1467 2.7868 67.5133 2.8468 67.8533 2.96013C68.2 3.07346 68.5133 3.24013 68.7867 3.46013C69.0667 3.68013 69.2934 3.94013 69.4867 4.25346C69.6733 4.5668 69.8 4.92013 69.8733 5.32013V5.33346ZM70.9667 3.74013V2.9068H76.7867V3.74013H74.3467V10.6668H73.4067V3.74013H70.9667ZM78.2333 10.6668V2.9068H80.8533C81.46 2.9068 81.96 3.01346 82.3467 3.23346C82.7333 3.45346 83.0267 3.7468 83.2133 4.11346C83.4 4.4868 83.4933 4.90013 83.4933 5.35346C83.4933 5.8068 83.4 6.2268 83.2133 6.60013C83.0267 6.97346 82.7467 7.27346 82.36 7.49346C81.9733 7.71346 81.48 7.82013 80.8733 7.82013H78.9933V6.9868H80.84C81.2533 6.9868 81.5933 6.91346 81.8467 6.77346C82.1 6.6268 82.28 6.43346 82.3933 6.19346C82.5067 5.9468 82.5667 5.6668 82.5667 5.35346C82.5667 5.04013 82.5067 4.7668 82.3933 4.52013C82.28 4.27346 82.0933 4.08013 81.84 3.9468C81.5867 3.8068 81.2467 3.73346 80.8267 3.73346H79.1733V10.6601H78.2333V10.6668ZM88.0067 10.6668V2.9068H90.6267C91.2333 2.9068 91.7333 3.01346 92.12 3.23346C92.5067 3.45346 92.7933 3.7468 92.98 4.11346C93.1667 4.48013 93.26 4.90013 93.26 5.35346C93.26 5.8068 93.1667 6.2268 92.98 6.60013C92.7933 6.97346 92.5133 7.27346 92.1267 7.49346C91.74 7.71346 91.2467 7.82013 90.64 7.82013H88.76V6.9868H90.6067C91.02 6.9868 91.36 6.91346 91.6133 6.77346C91.8667 6.6268 92.0467 6.43346 92.16 6.19346C92.2733 5.9468 92.3333 5.6668 92.3333 5.35346C92.3333 5.04013 92.2733 4.7668 92.16 4.52013C92.0467 4.27346 91.86 4.08013 91.6067 3.9468C91.3533 3.8068 91.0133 3.73346 90.5933 3.73346H88.94V10.6601H88L88.0067 10.6668ZM101.327 6.7868C101.327 7.6068 101.18 8.31346 100.88 8.9068C100.587 9.50013 100.18 9.96013 99.6667 10.2868C99.1533 10.6068 98.56 10.7735 97.9 10.7735C97.24 10.7735 96.6467 10.6135 96.1333 10.2868C95.62 9.9668 95.2133 9.5068 94.92 8.9068C94.6267 8.31346 94.4734 7.6068 94.4734 6.7868C94.4734 5.9668 94.62 5.26013 94.92 4.6668C95.2133 4.07346 95.62 3.61346 96.1333 3.2868C96.6467 2.9668 97.24 2.80013 97.9 2.80013C98.56 2.80013 99.1533 2.96013 99.6667 3.2868C100.18 3.6068 100.587 4.0668 100.88 4.6668C101.173 5.26013 101.327 5.9668 101.327 6.7868ZM100.42 6.7868C100.42 6.11346 100.307 5.5468 100.08 5.0868C99.86 4.6268 99.5533 4.27346 99.1733 4.04013C98.7933 3.80013 98.3733 3.6868 97.9 3.6868C97.4267 3.6868 97.0067 3.8068 96.6267 4.04013C96.2467 4.28013 95.9467 4.6268 95.72 5.0868C95.5 5.5468 95.3867 6.11346 95.3867 6.7868C95.3867 7.46013 95.5 8.0268 95.72 8.4868C95.9467 8.9468 96.2467 9.30013 96.6267 9.53346C97.0067 9.77346 97.4333 9.8868 97.9 9.8868C98.3667 9.8868 98.7933 9.7668 99.1733 9.53346C99.5533 9.29346 99.86 8.9468 100.08 8.4868C100.307 8.0268 100.42 7.46013 100.42 6.7868ZM109.153 5.33346H108.213C108.16 5.06013 108.06 4.8268 107.92 4.62013C107.78 4.41346 107.613 4.2468 107.42 4.1068C107.227 3.9668 107.007 3.86013 106.773 3.7868C106.533 3.71346 106.287 3.68013 106.033 3.68013C105.56 3.68013 105.14 3.80013 104.76 4.03346C104.38 4.27346 104.08 4.62013 103.853 5.08013C103.633 5.54013 103.52 6.1068 103.52 6.78013C103.52 7.45346 103.633 8.02013 103.853 8.48013C104.08 8.94013 104.38 9.29346 104.76 9.5268C105.14 9.7668 105.567 9.88013 106.033 9.88013C106.293 9.88013 106.54 9.8468 106.773 9.77346C107.013 9.70013 107.227 9.60013 107.42 9.46013C107.613 9.32013 107.78 9.1468 107.92 8.94013C108.06 8.73346 108.153 8.49346 108.213 8.2268H109.153C109.08 8.62013 108.953 8.98013 108.767 9.29346C108.58 9.6068 108.347 9.87346 108.073 10.0935C107.793 10.3135 107.48 10.4735 107.14 10.5868C106.8 10.7001 106.427 10.7601 106.04 10.7601C105.38 10.7601 104.787 10.6001 104.273 10.2735C103.76 9.95346 103.353 9.49346 103.06 8.89346C102.767 8.30013 102.62 7.59346 102.62 6.77346C102.62 5.95346 102.767 5.2468 103.06 4.65346C103.353 4.06013 103.76 3.60013 104.273 3.27346C104.787 2.95346 105.373 2.7868 106.04 2.7868C106.433 2.7868 106.8 2.8468 107.14 2.96013C107.487 3.07346 107.8 3.24013 108.073 3.46013C108.353 3.68013 108.58 3.94013 108.767 4.25346C108.953 4.5668 109.08 4.92013 109.153 5.32013V5.33346ZM116.913 5.33346H115.973C115.92 5.06013 115.82 4.8268 115.68 4.62013C115.54 4.41346 115.373 4.2468 115.18 4.1068C114.987 3.9668 114.767 3.86013 114.533 3.7868C114.3 3.71346 114.047 3.68013 113.793 3.68013C113.327 3.68013 112.9 3.80013 112.52 4.03346C112.14 4.27346 111.84 4.62013 111.613 5.08013C111.393 5.54013 111.28 6.1068 111.28 6.78013C111.28 7.45346 111.393 8.02013 111.613 8.48013C111.84 8.94013 112.14 9.29346 112.52 9.5268C112.9 9.7668 113.327 9.88013 113.793 9.88013C114.053 9.88013 114.3 9.8468 114.533 9.77346C114.773 9.70013 114.987 9.60013 115.18 9.46013C115.373 9.32013 115.54 9.1468 115.68 8.94013C115.82 8.73346 115.913 8.49346 115.973 8.2268H116.913C116.84 8.62013 116.713 8.98013 116.527 9.29346C116.34 9.6068 116.107 9.87346 115.827 10.0935C115.547 10.3135 115.24 10.4735 114.893 10.5868C114.553 10.7001 114.18 10.7601 113.793 10.7601C113.133 10.7601 112.54 10.6001 112.027 10.2735C111.513 9.95346 111.107 9.49346 110.813 8.89346C110.52 8.30013 110.367 7.59346 110.367 6.77346C110.367 5.95346 110.513 5.2468 110.813 4.65346C111.107 4.06013 111.513 3.60013 112.027 3.27346C112.54 2.95346 113.127 2.7868 113.793 2.7868C114.187 2.7868 114.553 2.8468 114.893 2.96013C115.24 3.07346 115.553 3.24013 115.827 3.46013C116.107 3.68013 116.333 3.94013 116.527 4.25346C116.713 4.5668 116.84 4.92013 116.913 5.32013V5.33346ZM118.433 2.9068H119.36V9.01346H119.433L123.673 2.9068H124.58V10.6668H123.64V4.57346H123.567L119.34 10.6668H118.433V2.9068ZM126.467 2.9068H127.393V9.01346H127.467L131.707 2.9068H132.613V10.6668H131.673V4.57346H131.6L127.373 10.6668H126.467V2.9068ZM130.287 0.966797H131.12C131.12 1.37346 130.98 1.71346 130.693 1.97346C130.413 2.23346 130.027 2.3668 129.54 2.3668C129.053 2.3668 128.68 2.23346 128.4 1.97346C128.12 1.71346 127.98 1.38013 127.98 0.966797H128.813C128.813 1.1668 128.867 1.33346 128.973 1.4868C129.087 1.63346 129.273 1.71346 129.54 1.71346C129.807 1.71346 129.993 1.64013 130.107 1.4868C130.22 1.34013 130.28 1.1668 130.28 0.966797H130.287ZM140.74 5.33346H139.8C139.747 5.06013 139.647 4.8268 139.507 4.62013C139.367 4.41346 139.2 4.2468 139.007 4.1068C138.813 3.9668 138.593 3.86013 138.36 3.7868C138.12 3.71346 137.873 3.68013 137.62 3.68013C137.147 3.68013 136.727 3.80013 136.347 4.03346C135.967 4.27346 135.667 4.62013 135.44 5.08013C135.22 5.54013 135.107 6.1068 135.107 6.78013C135.107 7.45346 135.22 8.02013 135.44 8.48013C135.667 8.94013 135.967 9.29346 136.347 9.5268C136.727 9.7668 137.153 9.88013 137.62 9.88013C137.88 9.88013 138.127 9.8468 138.36 9.77346C138.6 9.70013 138.813 9.60013 139.007 9.46013C139.2 9.32013 139.367 9.1468 139.507 8.94013C139.647 8.73346 139.74 8.49346 139.8 8.2268H140.74C140.667 8.62013 140.54 8.98013 140.353 9.29346C140.167 9.6068 139.933 9.87346 139.66 10.0935C139.38 10.3135 139.067 10.4735 138.727 10.5868C138.387 10.7001 138.013 10.7601 137.627 10.7601C136.967 10.7601 136.373 10.6001 135.86 10.2735C135.347 9.95346 134.94 9.49346 134.647 8.89346C134.353 8.30013 134.207 7.59346 134.207 6.77346C134.207 5.95346 134.353 5.2468 134.647 4.65346C134.94 4.06013 135.347 3.60013 135.86 3.27346C136.373 2.95346 136.96 2.7868 137.627 2.7868C138.02 2.7868 138.387 2.8468 138.727 2.96013C139.073 3.07346 139.387 3.24013 139.66 3.46013C139.94 3.68013 140.167 3.94013 140.353 4.25346C140.54 4.5668 140.667 4.92013 140.74 5.32013V5.33346ZM146.82 10.6668L144.153 7.1068H143.2V10.6668H142.26V2.9068H143.2V6.27346H143.607L146.713 2.9068H147.833L144.7 6.31346L147.94 10.6601H146.82V10.6668ZM155.34 6.7868C155.34 7.6068 155.193 8.31346 154.893 8.9068C154.6 9.50013 154.193 9.96013 153.68 10.2868C153.167 10.6068 152.573 10.7735 151.913 10.7735C151.253 10.7735 150.66 10.6135 150.147 10.2868C149.633 9.9668 149.227 9.5068 148.933 8.9068C148.64 8.31346 148.487 7.6068 148.487 6.7868C148.487 5.9668 148.633 5.26013 148.933 4.6668C149.227 4.07346 149.633 3.61346 150.147 3.2868C150.66 2.9668 151.253 2.80013 151.913 2.80013C152.573 2.80013 153.167 2.96013 153.68 3.2868C154.193 3.6068 154.6 4.0668 154.893 4.6668C155.187 5.26013 155.34 5.9668 155.34 6.7868ZM154.433 6.7868C154.433 6.11346 154.32 5.5468 154.093 5.0868C153.873 4.6268 153.567 4.27346 153.187 4.04013C152.807 3.80013 152.387 3.6868 151.913 3.6868C151.44 3.6868 151.02 3.8068 150.64 4.04013C150.26 4.28013 149.96 4.6268 149.733 5.0868C149.513 5.5468 149.4 6.11346 149.4 6.7868C149.4 7.46013 149.513 8.0268 149.733 8.4868C149.96 8.9468 150.26 9.30013 150.64 9.53346C151.02 9.77346 151.447 9.8868 151.913 9.8868C152.38 9.8868 152.807 9.7668 153.187 9.53346C153.567 9.29346 153.873 8.9468 154.093 8.4868C154.32 8.0268 154.433 7.46013 154.433 6.7868ZM161.607 2.9068V3.74013H157.867V10.6668H156.927V2.9068H161.607ZM169.28 6.7868C169.28 7.6068 169.133 8.31346 168.84 8.9068C168.547 9.50013 168.14 9.96013 167.627 10.2868C167.113 10.6068 166.527 10.7735 165.86 10.7735C165.193 10.7735 164.607 10.6135 164.093 10.2868C163.58 9.9668 163.173 9.5068 162.88 8.9068C162.587 8.31346 162.44 7.6068 162.44 6.7868C162.44 5.9668 162.587 5.26013 162.88 4.6668C163.173 4.07346 163.58 3.61346 164.093 3.2868C164.607 2.96013 165.193 2.80013 165.86 2.80013C166.527 2.80013 167.113 2.96013 167.627 3.2868C168.14 3.6068 168.547 4.0668 168.84 4.6668C169.133 5.26013 169.28 5.9668 169.28 6.7868ZM168.373 6.7868C168.373 6.11346 168.26 5.5468 168.033 5.0868C167.813 4.6268 167.507 4.27346 167.127 4.04013C166.747 3.80013 166.32 3.6868 165.853 3.6868C165.387 3.6868 164.96 3.8068 164.58 4.04013C164.2 4.28013 163.9 4.6268 163.673 5.0868C163.453 5.5468 163.34 6.11346 163.34 6.7868C163.34 7.46013 163.453 8.0268 163.673 8.4868C163.9 8.9468 164.2 9.30013 164.58 9.53346C164.96 9.77346 165.387 9.8868 165.853 9.8868C166.32 9.8868 166.747 9.7668 167.127 9.53346C167.507 9.29346 167.807 8.9468 168.033 8.4868C168.26 8.0268 168.373 7.46013 168.373 6.7868ZM49.9333 16.2401V24.0001H48.9933V17.0735H45.0867V24.0001H44.1467V16.2401H49.9333ZM51.8267 24.0001V16.2401H54.4467C55.0533 16.2401 55.5534 16.3468 55.94 16.5668C56.3267 16.7868 56.62 17.0801 56.8067 17.4468C56.9933 17.8201 57.0867 18.2335 57.0867 18.6868C57.0867 19.1401 56.9933 19.5601 56.8067 19.9335C56.62 20.3068 56.34 20.6068 55.9533 20.8268C55.5667 21.0468 55.0733 21.1535 54.4667 21.1535H52.5867V20.3201H54.4333C54.8467 20.3201 55.1867 20.2468 55.44 20.1068C55.6934 19.9668 55.8734 19.7668 55.9867 19.5201C56.1 19.2735 56.16 18.9935 56.16 18.6801C56.16 18.3668 56.1 18.0935 55.9867 17.8468C55.8734 17.6001 55.6867 17.4068 55.4333 17.2735C55.18 17.1335 54.84 17.0601 54.42 17.0601H52.7667V23.9868H51.8267V24.0001ZM65.14 20.1201C65.14 20.9401 64.9933 21.6468 64.7 22.2401C64.4067 22.8335 64 23.2935 63.4867 23.6201C62.9734 23.9401 62.38 24.1068 61.72 24.1068C61.06 24.1068 60.4667 23.9468 59.9533 23.6201C59.44 23.3001 59.0333 22.8401 58.74 22.2401C58.4467 21.6468 58.3 20.9401 58.3 20.1201C58.3 19.3001 58.4467 18.5935 58.74 18.0001C59.0333 17.4068 59.44 16.9468 59.9533 16.6201C60.4667 16.3001 61.06 16.1335 61.72 16.1335C62.38 16.1335 62.9734 16.2935 63.4867 16.6201C64 16.9401 64.4067 17.4001 64.7 18.0001C64.9933 18.6001 65.14 19.3001 65.14 20.1201ZM64.2333 20.1201C64.2333 19.4468 64.12 18.8801 63.8933 18.4201C63.6733 17.9601 63.3667 17.6068 62.9867 17.3735C62.6067 17.1335 62.1867 17.0201 61.7133 17.0201C61.24 17.0201 60.82 17.1401 60.44 17.3735C60.06 17.6135 59.76 17.9601 59.5333 18.4201C59.3133 18.8801 59.2 19.4468 59.2 20.1201C59.2 20.7935 59.3133 21.3601 59.5333 21.8201C59.76 22.2801 60.06 22.6335 60.44 22.8668C60.82 23.1068 61.2467 23.2201 61.7133 23.2201C62.18 23.2201 62.6067 23.1001 62.9867 22.8668C63.3667 22.6268 63.6667 22.2801 63.8933 21.8201C64.12 21.3601 64.2333 20.7935 64.2333 20.1201ZM71.4067 16.2401V17.0735H67.6667V24.0001H66.7267V16.2401H71.4067ZM72.86 24.0001V16.2401H75.48C76.0867 16.2401 76.5867 16.3468 76.9733 16.5668C77.36 16.7868 77.6533 17.0801 77.84 17.4468C78.0267 17.8201 78.12 18.2335 78.12 18.6868C78.12 19.1401 78.0267 19.5601 77.84 19.9335C77.6533 20.3068 77.3733 20.6068 76.9867 20.8268C76.6 21.0468 76.1067 21.1535 75.5 21.1535H73.62V20.3201H75.4667C75.88 20.3201 76.22 20.2468 76.4733 20.1068C76.7267 19.9668 76.9067 19.7668 77.02 19.5201C77.1333 19.2735 77.1933 18.9935 77.1933 18.6801C77.1933 18.3668 77.1333 18.0935 77.02 17.8468C76.9067 17.6001 76.72 17.4068 76.4667 17.2735C76.2133 17.1335 75.8733 17.0601 75.4533 17.0601H73.8V23.9868H72.86V24.0001ZM79.16 24.0001H78.1733L81.02 16.2401H81.9867L84.8333 24.0001H83.8467L81.5267 17.4668H81.4667L79.1467 24.0001H79.16ZM79.5267 20.9668H83.4933V21.8001H79.5267V20.9668ZM86.0533 16.2401H87.1733L89.8133 22.6801H89.9067L92.5467 16.2401H93.6667V24.0001H92.7867V18.1068H92.7134L90.2867 24.0001H89.44L87.0133 18.1068H86.94V24.0001H86.06V16.2401H86.0533ZM95.5467 16.2401H96.6667L99.3 22.6801H99.3933L102.027 16.2401H103.147V24.0001H102.267V18.1068H102.193L99.7667 24.0001H98.92L96.4934 18.1068H96.42V24.0001H95.54V16.2401H95.5467ZM105.033 24.0001V16.2401H105.973V19.6935H110.113V16.2401H111.053V24.0001H110.113V20.5335H105.973V24.0001H105.033ZM119.473 20.1201C119.473 20.9401 119.327 21.6468 119.027 22.2401C118.733 22.8335 118.327 23.2935 117.813 23.6201C117.3 23.9401 116.713 24.1068 116.047 24.1068C115.38 24.1068 114.793 23.9468 114.28 23.6201C113.767 23.3001 113.36 22.8401 113.067 22.2401C112.773 21.6468 112.627 20.9401 112.627 20.1201C112.627 19.3001 112.773 18.5935 113.067 18.0001C113.36 17.4068 113.767 16.9468 114.28 16.6201C114.793 16.3001 115.38 16.1335 116.047 16.1335C116.713 16.1335 117.3 16.2935 117.813 16.6201C118.327 16.9401 118.733 17.4001 119.027 18.0001C119.32 18.5935 119.473 19.3001 119.473 20.1201ZM118.567 20.1201C118.567 19.4468 118.453 18.8801 118.227 18.4201C118.007 17.9601 117.7 17.6068 117.32 17.3735C116.94 17.1335 116.513 17.0201 116.047 17.0201C115.58 17.0201 115.153 17.1401 114.773 17.3735C114.393 17.6135 114.093 17.9601 113.867 18.4201C113.647 18.8801 113.533 19.4468 113.533 20.1201C113.533 20.7935 113.647 21.3601 113.867 21.8201C114.093 22.2801 114.393 22.6335 114.773 22.8668C115.153 23.1068 115.58 23.2201 116.047 23.2201C116.513 23.2201 116.94 23.1001 117.32 22.8668C117.7 22.6268 118 22.2801 118.227 21.8201C118.453 21.3601 118.567 20.7935 118.567 20.1201ZM125.74 16.2401V17.0735H122V24.0001H121.06V16.2401H125.74ZM133.413 20.1201C133.413 20.9401 133.267 21.6468 132.973 22.2401C132.68 22.8335 132.273 23.2935 131.76 23.6201C131.247 23.9401 130.653 24.1068 129.993 24.1068C129.333 24.1068 128.74 23.9468 128.227 23.6201C127.713 23.3001 127.307 22.8401 127.013 22.2401C126.72 21.6468 126.573 20.9401 126.573 20.1201C126.573 19.3001 126.72 18.5935 127.013 18.0001C127.307 17.4068 127.713 16.9468 128.227 16.6201C128.74 16.3001 129.333 16.1335 129.993 16.1335C130.653 16.1335 131.247 16.2935 131.76 16.6201C132.273 16.9401 132.68 17.4001 132.973 18.0001C133.267 18.5935 133.413 19.3001 133.413 20.1201ZM132.507 20.1201C132.507 19.4468 132.393 18.8801 132.167 18.4201C131.947 17.9601 131.64 17.6068 131.26 17.3735C130.88 17.1335 130.46 17.0201 129.987 17.0201C129.513 17.0201 129.093 17.1401 128.707 17.3735C128.327 17.6135 128.027 17.9601 127.8 18.4201C127.58 18.8801 127.467 19.4468 127.467 20.1201C127.467 20.7935 127.58 21.3601 127.8 21.8201C128.027 22.2801 128.327 22.6335 128.707 22.8668C129.087 23.1068 129.513 23.2201 129.987 23.2201C130.46 23.2201 130.88 23.1001 131.26 22.8668C131.64 22.6268 131.94 22.2801 132.167 21.8201C132.393 21.3601 132.507 20.7935 132.507 20.1201ZM50.6867 33.4535C50.6867 34.2735 50.54 34.9801 50.2467 35.5735C49.9534 36.1668 49.5467 36.6268 49.0334 36.9535C48.52 37.2735 47.9267 37.4401 47.2667 37.4401C46.6067 37.4401 46.0133 37.2801 45.5 36.9535C44.9867 36.6335 44.58 36.1735 44.2867 35.5735C43.9933 34.9801 43.8467 34.2735 43.8467 33.4535C43.8467 32.6335 43.9933 31.9268 44.2867 31.3335C44.58 30.7401 44.9867 30.2801 45.5 29.9535C46.0133 29.6335 46.6067 29.4668 47.2667 29.4668C47.9267 29.4668 48.52 29.6268 49.0334 29.9535C49.5467 30.2735 49.9534 30.7335 50.2467 31.3335C50.54 31.9268 50.6867 32.6335 50.6867 33.4535ZM49.78 33.4535C49.78 32.7801 49.6667 32.2135 49.44 31.7535C49.22 31.2935 48.9134 30.9401 48.5334 30.7068C48.1534 30.4668 47.7333 30.3535 47.26 30.3535C46.7867 30.3535 46.3667 30.4735 45.9867 30.7068C45.6067 30.9468 45.3067 31.2935 45.08 31.7535C44.86 32.2135 44.7467 32.7801 44.7467 33.4535C44.7467 34.1268 44.86 34.6935 45.08 35.1535C45.3067 35.6135 45.6067 35.9668 45.9867 36.2001C46.3667 36.4401 46.7933 36.5535 47.26 36.5535C47.7267 36.5535 48.1534 36.4335 48.5334 36.2001C48.9134 35.9601 49.2134 35.6135 49.44 35.1535C49.6667 34.6935 49.78 34.1268 49.78 33.4535ZM52.2667 37.3335V29.5735H56.9467V30.4068H53.2067V32.8335H55.1733C55.7267 32.8335 56.2 32.9268 56.58 33.1068C56.9667 33.2868 57.2533 33.5468 57.4533 33.8735C57.6533 34.2068 57.7533 34.5935 57.7533 35.0468C57.7533 35.5001 57.6533 35.8935 57.4533 36.2335C57.2533 36.5801 56.9667 36.8468 56.58 37.0401C56.2 37.2335 55.7333 37.3335 55.1733 37.3335H52.2667ZM53.2067 36.5135H55.1733C55.5267 36.5135 55.8267 36.4401 56.0733 36.3001C56.32 36.1535 56.5067 35.9735 56.6333 35.7468C56.76 35.5201 56.8267 35.2801 56.8267 35.0268C56.8267 34.6535 56.6867 34.3335 56.4 34.0668C56.1133 33.7935 55.7067 33.6601 55.1733 33.6601H53.2067V36.5068V36.5135ZM59.3 37.3335V29.5735H63.98V30.4068H60.24V33.0268H63.74V33.8601H60.24V36.4935H64.04V37.3268H59.3V37.3335ZM71.92 32.0001H70.98C70.9267 31.7268 70.8267 31.4935 70.6867 31.2868C70.5533 31.0801 70.3867 30.9135 70.1867 30.7735C69.9933 30.6335 69.78 30.5268 69.54 30.4535C69.3 30.3801 69.0533 30.3468 68.8 30.3468C68.3333 30.3468 67.9067 30.4668 67.52 30.7001C67.14 30.9401 66.84 31.2868 66.6133 31.7468C66.3933 32.2068 66.28 32.7735 66.28 33.4468C66.28 34.1201 66.3933 34.6868 66.6133 35.1468C66.84 35.6068 67.14 35.9601 67.52 36.1935C67.9 36.4335 68.3267 36.5468 68.8 36.5468C69.06 36.5468 69.3067 36.5135 69.54 36.4401C69.78 36.3668 69.9933 36.2668 70.1867 36.1268C70.3867 35.9868 70.5533 35.8135 70.6867 35.6068C70.8267 35.4001 70.9267 35.1601 70.98 34.8935H71.92C71.8467 35.2868 71.72 35.6468 71.5333 35.9601C71.3467 36.2735 71.1133 36.5401 70.84 36.7601C70.56 36.9801 70.2467 37.1401 69.9067 37.2535C69.56 37.3668 69.1933 37.4268 68.8067 37.4268C68.1467 37.4268 67.5533 37.2668 67.04 36.9401C66.5267 36.6201 66.12 36.1601 65.8267 35.5601C65.5333 34.9668 65.3867 34.2601 65.3867 33.4401C65.3867 32.6201 65.5333 31.9135 65.8267 31.3201C66.12 30.7268 66.5267 30.2668 67.04 29.9401C67.5533 29.6201 68.1467 29.4535 68.8067 29.4535C69.2 29.4535 69.5667 29.5135 69.9067 29.6268C70.2533 29.7401 70.5667 29.9068 70.84 30.1268C71.12 30.3468 71.3467 30.6068 71.5333 30.9201C71.72 31.2335 71.8467 31.5868 71.92 31.9868V32.0001ZM79.24 29.5735V37.3335H78.3V30.4068H74.3933V37.3335H73.4533V29.5735H79.24ZM81.1333 37.3335V29.5735H85.8133V30.4068H82.0733V33.0268H85.5733V33.8601H82.0733V36.4935H85.8733V37.3268H81.1333V37.3335ZM87.5867 29.5735H88.5267V32.1668C88.5267 32.5535 88.5933 32.8535 88.7267 33.0735C88.86 33.2935 89.0467 33.4468 89.2933 33.5335C89.54 33.6201 89.8267 33.6668 90.16 33.6668C90.3667 33.6668 90.5733 33.6601 90.7667 33.6468C90.9667 33.6268 91.1533 33.6068 91.34 33.5735C91.5267 33.5401 91.7133 33.5068 91.8933 33.4668C92.0733 33.4268 92.2533 33.3735 92.4267 33.3201V34.1668C92.26 34.2201 92.0867 34.2668 91.92 34.3135C91.7533 34.3535 91.5867 34.3935 91.4067 34.4201C91.2333 34.4535 91.04 34.4735 90.8333 34.4935C90.6267 34.5068 90.4 34.5135 90.1533 34.5135C89.62 34.5135 89.16 34.4335 88.7733 34.2801C88.3867 34.1268 88.0933 33.8801 87.8867 33.5335C87.68 33.1868 87.58 32.7335 87.58 32.1601V29.5668L87.5867 29.5735ZM92.3133 29.5735H93.2533V37.3335H92.3133V29.5735ZM95.1333 37.3335V29.5735H99.8133V30.4068H96.0733V33.0268H99.5733V33.8601H96.0733V36.4935H99.8733V37.3268H95.1333V37.3335ZM101.507 37.3335V29.5735H102.447V33.0268H106.587V29.5735H107.527V37.3335H106.587V33.8668H102.447V37.3335H101.507ZM109.4 29.5735H110.327V35.6801H110.4L114.64 29.5735H115.547V37.3335H114.607V31.2401H114.533L110.307 37.3335H109.4V29.5735ZM122.707 37.3335H121.767V30.4068H120.113C119.693 30.4068 119.353 30.4735 119.1 30.6001C118.847 30.7268 118.66 30.9068 118.54 31.1401C118.427 31.3735 118.367 31.6468 118.367 31.9535C118.367 32.2601 118.42 32.5335 118.54 32.7535C118.653 32.9735 118.84 33.1468 119.093 33.2668C119.347 33.3868 119.687 33.4468 120.1 33.4468H122.193V34.2935H120.073C119.473 34.2935 118.98 34.1935 118.593 33.9935C118.207 33.7935 117.92 33.5135 117.733 33.1601C117.547 32.8068 117.453 32.4001 117.453 31.9468C117.453 31.4935 117.547 31.0801 117.733 30.7201C117.92 30.3601 118.207 30.0801 118.6 29.8735C118.987 29.6668 119.487 29.5601 120.093 29.5601H122.713V37.3201L122.707 37.3335ZM119.053 33.8468H120.113L118.233 37.3335H117.14L119.047 33.8468H119.053Z" fill="#4C4C4C"/>
              </g>
              <defs>
              <clipPath id="clip0_1_2932">
              <rect width="169.26" height="40" fill="white"/>
              </clipPath>
              </defs>
            </svg>
