<svg width="183" height="61" viewBox="0 0 183 61" fill="none" xmlns="http://www.w3.org/2000/svg">
<g style="mix-blend-mode:multiply">
<path fill-rule="evenodd" clip-rule="evenodd" d="M52.2086 26.6517C52.2086 40.0459 41.3522 50.9023 27.958 50.9023C14.5639 50.9023 3.71094 40.0424 3.71094 26.6517C3.71094 13.2611 14.5674 2.40112 27.9615 2.40112C41.3557 2.40112 52.2121 13.2576 52.2121 26.6482L52.2086 26.6517Z" fill="#4C4C4C"/>
</g>
<path fill-rule="evenodd" clip-rule="evenodd" d="M49.284 25.4965C49.284 38.6835 38.5926 49.375 25.4055 49.375C12.2184 49.375 1.52344 38.687 1.52344 25.4965C1.52344 12.3059 12.2149 1.61792 25.4055 1.61792C38.5961 1.61792 49.284 12.3094 49.284 25.4965Z" fill="white"/>
<path fill-rule="evenodd" clip-rule="evenodd" d="M25.4078 50.1546C11.81 50.1546 0.75 39.0945 0.75 25.4968C0.75 11.899 11.81 0.842529 25.4078 0.842529C39.0055 0.842529 50.062 11.9025 50.062 25.4968C50.062 39.091 39.002 50.151 25.4078 50.151V50.1546ZM25.4078 2.39746C12.6665 2.39395 2.30142 12.759 2.30142 25.4968C2.30142 38.2346 12.6665 48.5996 25.4043 48.5996C38.142 48.5996 48.5071 38.2346 48.5071 25.4968C48.5071 12.759 38.1456 2.39395 25.4078 2.39395V2.39746Z" fill="white"/>
<g style="mix-blend-mode:multiply">
<path fill-rule="evenodd" clip-rule="evenodd" d="M95.5481 49.067L99.4793 60.1235H104.639L100.079 47.3436L106.387 47.2488L90.9219 28.7371L90.9745 52.8613L95.5481 49.067Z" fill="#4C4C4C"/>
</g>
<path fill-rule="evenodd" clip-rule="evenodd" d="M42.5448 42.1163C38.203 46.5916 32.1307 49.3785 25.4055 49.3785C24.1278 49.3785 22.8713 49.2767 21.6463 49.0837L21.7305 41.4213L37.5431 35.7527L42.5448 42.1198V42.1163ZM47.6589 34.1591C48.7049 31.474 49.284 28.5502 49.284 25.4965C49.284 12.3059 38.5926 1.61792 25.4055 1.61792C23.8716 1.61792 22.3729 1.76885 20.9197 2.04614L47.6589 34.1627V34.1591ZM21.369 15.0331L32.608 29.2697L21.4638 33.5063L21.369 15.0296V15.0331ZM13.0503 5.05772C6.1426 9.24164 1.52344 16.8303 1.52344 25.4965C1.52344 34.1627 6.1426 41.7548 13.0503 45.9387V5.05772Z" fill="#4C4C4C"/>
<path fill-rule="evenodd" clip-rule="evenodd" d="M182.884 7.32202V14.2613H172.474V47.1676H164.692V14.2613H154.281V7.32202H182.884Z" fill="#4C4C4C"/>
<path fill-rule="evenodd" clip-rule="evenodd" d="M129.196 32.8468V7.32202H121.414V47.1676H128.353L143.857 21.5937V47.1676H151.635V7.32202H144.696L129.196 32.8468Z" fill="#4C4C4C"/>
<path fill-rule="evenodd" clip-rule="evenodd" d="M118.69 7.32202H109.399L96.5282 26.2023V7.32202H88.75V20.5231L111.189 47.1746L120.035 47.0974L103.976 27.8345L118.69 7.32202Z" fill="#4C4C4C"/>
<path fill-rule="evenodd" clip-rule="evenodd" d="M84.2879 47.1676L84.33 45.8303V7.32202H55.2812V47.1676H63.0629V14.2613H76.5483V47.1676H84.2879Z" fill="#4C4C4C"/>
<g style="mix-blend-mode:multiply">
<path fill-rule="evenodd" clip-rule="evenodd" d="M22.9291 17.0101L21.3672 15.0339L21.462 33.5106L23.0099 32.9209L22.9291 17.0101Z" fill="#4C4C4C"/>
</g>
<g style="mix-blend-mode:multiply">
<path fill-rule="evenodd" clip-rule="evenodd" d="M37.5374 35.7527L21.7249 41.4213L21.6406 49.0767C22.1496 49.1574 22.662 49.2276 23.178 49.2767L23.2728 40.9019L37.5585 35.7808L37.5374 35.7562V35.7527Z" fill="#4C4C4C"/>
</g>
<path fill-rule="evenodd" clip-rule="evenodd" d="M93.0858 49.3967L97.1152 60.4742H102.801L98.1086 47.582L104.195 47.5363L88.3438 28.5613L88.3964 53.2892L93.0858 49.3967Z" fill="#4C4C4C"/>
<path fill-rule="evenodd" clip-rule="evenodd" d="M103.319 60.8389H96.8569L92.9151 50.0105L88.0292 54.0646L87.9766 28.5644L88.6189 28.3328L104.965 47.8975L98.6224 47.9467L103.315 60.8424L103.319 60.8389ZM97.3658 60.1123H102.28L97.5905 47.2236L103.424 47.178L88.7102 29.5683L88.7593 52.5167L93.2521 48.7891L97.3728 60.1123H97.3658Z" fill="white"/>
</svg>
