<svg width="1720" height="344" viewBox="0 0 1720 344" fill="none" xmlns="http://www.w3.org/2000/svg">
<path d="M580 320C739.257 320 626.994 243 798 243" stroke="#E0E0E0"/>
<rect x="21.5" y="129.5" width="94" height="167" fill="white" stroke="#959595"/>
<g clip-path="url(#clip0_26_106)">
<path d="M28 204.922H99.8817C101.921 204.922 103.579 203.276 103.579 201.24V181.543C103.579 179.507 101.927 177.861 99.8817 177.861H36.1642C34.1193 177.861 32.4671 179.507 32.4671 181.543V198.507L28 204.922Z" fill="#959595"/>
<path d="M103.579 212.119V218.524C103.579 220.474 101.978 222.064 100.025 222.064H36.0219C34.0688 222.064 32.4727 220.469 32.4727 218.524V212.119C32.4727 211.641 32.5695 211.189 32.7429 210.773C33.2784 209.488 34.5532 208.579 36.027 208.579H100.03C100.907 208.579 101.713 208.899 102.335 209.427C103.1 210.082 103.584 211.042 103.584 212.114L103.579 212.119Z" fill="#E0E0E0"/>
<path d="M108 174.209H36.118C34.0731 174.209 32.4209 172.564 32.4209 170.527V157.682C32.4209 155.646 34.0731 154 36.118 154H99.8355C101.875 154 103.533 155.646 103.533 157.682V167.8L108 174.209Z" fill="#FF9C9C"/>
<path d="M108 242.354H36.118C34.0731 242.354 32.4209 240.708 32.4209 238.672V229.25C32.4209 227.219 34.0731 225.568 36.118 225.568H99.8355C101.875 225.568 103.533 227.213 103.533 229.25V235.939L108 242.349V242.354Z" fill="#FF9C9C"/>
<path d="M95.2715 233.425C95.2715 234.537 94.8176 235.548 94.0782 236.28C93.3439 237.011 92.3291 237.468 91.2123 237.468H40.3658C38.1373 237.468 36.3066 235.65 36.3066 233.425C36.3066 232.313 36.7656 231.302 37.4999 230.571C38.2342 229.839 39.249 229.382 40.3658 229.382H91.2174C93.4459 229.382 95.2766 231.201 95.2766 233.425H95.2715Z" fill="#FFC8C8"/>
<path d="M40.249 236.188L44.8079 233.44L40.249 230.693V236.188Z" fill="#FF9C9C"/>
<path d="M90.7227 234.38H47.7956C47.2653 234.38 46.8369 233.948 46.8369 233.425C46.8369 232.897 47.2704 232.47 47.7956 232.47H90.7227C91.253 232.47 91.6814 232.902 91.6814 233.425C91.6814 233.953 91.2479 234.38 90.7227 234.38Z" fill="#FF9C9C"/>
<path d="M103.533 249.444V262.695C103.533 264.646 101.932 266.235 99.979 266.235H35.976C34.0229 266.235 32.4268 264.641 32.4268 262.695V249.444C32.4268 248.967 32.5236 248.515 32.697 248.098C33.2325 246.813 34.5073 245.904 35.9811 245.904H99.9841C100.861 245.904 101.667 246.224 102.289 246.752C103.054 247.408 103.538 248.368 103.538 249.439L103.533 249.444Z" fill="#FF9C9C"/>
<path d="M28 290H99.8817C101.921 290 103.579 288.354 103.579 286.318V273.473C103.579 271.441 101.927 269.791 99.8817 269.791H36.1693C34.1244 269.791 32.4722 271.436 32.4722 273.473V283.59L28 290Z" fill="#E0E0E0"/>
</g>
<rect x="22" y="130" width="94" height="18" fill="#E0E0E0"/>
<circle cx="31" cy="139" r="3" fill="white"/>
<circle cx="40" cy="139" r="3" fill="white"/>
<circle cx="49" cy="139" r="3" fill="white"/>
<rect x="77.5" y="0.5" width="253" height="159" fill="white" stroke="#959595"/>
<rect x="97" y="9" width="1" height="151" fill="#959595"/>
<rect x="190" y="9" width="1" height="151" fill="#959595"/>
<rect x="237" y="9" width="1" height="151" fill="#959595"/>
<rect x="283" y="9" width="1" height="151" fill="#959595"/>
<rect x="78" y="1" width="252" height="7.93701" fill="#E0E0E0"/>
<rect x="77" y="9" width="254" height="1" fill="#959595"/>
<rect x="77" y="19" width="254" height="1" fill="#959595"/>
<rect x="77" y="29" width="254" height="1" fill="#959595"/>
<rect x="77" y="39" width="254" height="1" fill="#959595"/>
<rect x="77" y="49" width="254" height="1" fill="#959595"/>
<rect x="77" y="59" width="254" height="1" fill="#959595"/>
<rect x="77" y="69" width="254" height="1" fill="#959595"/>
<rect x="77" y="79" width="254" height="1" fill="#959595"/>
<rect x="77" y="89" width="254" height="1" fill="#959595"/>
<rect x="77" y="99" width="254" height="1" fill="#959595"/>
<rect x="77" y="109" width="254" height="1" fill="#959595"/>
<rect x="77" y="119" width="254" height="1" fill="#959595"/>
<rect x="77" y="129" width="254" height="1" fill="#959595"/>
<rect x="77" y="139" width="254" height="1" fill="#959595"/>
<rect x="77" y="149" width="254" height="1" fill="#959595"/>
<rect x="143.5" y="214.5" width="173" height="109" fill="white" stroke="#959595"/>
<rect x="238.5" y="243.5" width="68" height="69" fill="white" stroke="#959595"/>
<rect x="144" y="215" width="172" height="18" fill="#E0E0E0"/>
<rect x="154" y="243" width="78" height="20" fill="#E0E0E0"/>
<path d="M221 251H188C187.5 251 187 250.551 187 250C187 249.449 187.5 249 188 249H221C221.426 249 222 249.449 222 250C222 250.551 221.426 251 221 251Z" fill="white"/>
<path d="M221 254H188C187.5 254 187 253.551 187 253C187 252.449 187.5 252 188 252H221C221.426 252 222 252.449 222 253C222 253.551 221.426 254 221 254Z" fill="white"/>
<path d="M207.4 257H187.6C187.3 257 187 256.551 187 256C187 255.449 187.3 255 187.6 255H207.4C207.655 255 208 255.449 208 256C208 256.551 207.655 257 207.4 257Z" fill="white"/>
<rect x="154" y="268" width="78" height="20" fill="#E0E0E0"/>
<path d="M221 275H188C187.5 275 187 274.551 187 274C187 273.449 187.5 273 188 273H221C221.426 273 222 273.449 222 274C222 274.551 221.426 275 221 275Z" fill="white"/>
<path d="M300 277H245C244.5 277 244 276.551 244 276C244 275.449 244.5 275 245 275H300C300.426 275 301 275.449 301 276C301 276.551 300.426 277 300 277Z" fill="#959595"/>
<path d="M221 278H188C187.5 278 187 277.551 187 277C187 276.449 187.5 276 188 276H221C221.426 276 222 276.449 222 277C222 277.551 221.426 278 221 278Z" fill="white"/>
<path d="M300 281H245C244.5 281 244 280.551 244 280C244 279.449 244.5 279 245 279H300C300.426 279 301 279.449 301 280C301 280.551 300.426 281 300 281Z" fill="#959595"/>
<path d="M300 269H245C244.5 269 244 268.551 244 268C244 267.449 244.5 267 245 267H300C300.426 267 301 267.449 301 268C301 268.551 300.426 269 300 269Z" fill="#959595"/>
<path d="M300 273H245C244.5 273 244 272.551 244 272C244 271.449 244.5 271 245 271H300C300.426 271 301 271.449 301 272C301 272.551 300.426 273 300 273Z" fill="#959595"/>
<path d="M300 261H245C244.5 261 244 260.551 244 260C244 259.449 244.5 259 245 259H300C300.426 259 301 259.449 301 260C301 260.551 300.426 261 300 261Z" fill="#959595"/>
<path d="M300 265H245C244.5 265 244 264.551 244 264C244 263.449 244.5 263 245 263H300C300.426 263 301 263.449 301 264C301 264.551 300.426 265 300 265Z" fill="#959595"/>
<path d="M207.4 281H187.6C187.3 281 187 280.551 187 280C187 279.449 187.3 279 187.6 279H207.4C207.655 279 208 279.449 208 280C208 280.551 207.655 281 207.4 281Z" fill="white"/>
<path d="M264.4 285H244.6C244.3 285 244 284.551 244 284C244 283.449 244.3 283 244.6 283H264.4C264.655 283 265 283.449 265 284C265 284.551 264.655 285 264.4 285Z" fill="#959595"/>
<rect x="154" y="293" width="78" height="20" fill="#E0E0E0"/>
<rect x="358.5" y="35.5" width="199" height="144" fill="white" stroke="#959595"/>
<g opacity="0.9" clip-path="url(#clip1_26_106)">
<path d="M454.586 97.5561V99.3501H452.848V101.266H454.557V103H451.008V95.7958H449.235V93.9199H447.461V92.1293H445.618V90.3537H443.845V88.478H442V77.6351H443.771V81.2408H445.545V83.0315H447.403V84.8886H450.987V83.0577H452.845V81.2672H455.546V79.4917H458.232V77.6159H460.005V65.8624H461.778V64H476.15V65.8367H478V73.9672H469.038V75.7988H474.373V77.5438H467.182V81.2432H470.749V84.8481H469.061V83.0437H467.16V89.3912H465.383V92.1075H463.621V93.902H461.783V101.257H463.581V102.988H460.034V97.5854H458.261V95.8164H456.361V97.5561H454.587L454.586 97.5561ZM465.393 68.5518V66.6933H463.634V68.5518H465.393Z" fill="#959595"/>
</g>
<path d="M502.97 120.996H412.03C409.806 120.996 408 118.76 408 115.996C408 113.236 409.806 111 412.03 111H502.97C505.194 111 507 113.236 507 116C507 118.76 505.197 121 502.97 121V120.996Z" fill="#E0E0E0"/>
<mask id="mask0_26_106" style="mask-type:luminance" maskUnits="userSpaceOnUse" x="408" y="111" width="69" height="10">
<path d="M472.958 121H413.274C410.363 121 408 118.763 408 115.998C408 113.237 410.363 111 413.274 111H472.958C475.042 111 476.734 112.605 476.734 114.582V117.418C476.734 119.395 475.042 121 472.958 121Z" fill="white"/>
</mask>
<g mask="url(#mask0_26_106)">
<path d="M471.46 121H413.274C410.363 121 408 118.763 408 115.998C408 113.237 410.363 111 413.274 111H471.46C474.371 111 476.734 113.237 476.734 116.002C476.734 118.763 474.375 121.004 471.46 121.004V121Z" fill="#FF9C9C"/>
<g opacity="0.2">
<path d="M419.288 111L425.724 121H430.282L423.586 111H419.288Z" fill="#E53232"/>
</g>
<g opacity="0.2">
<path d="M409.544 111L415.98 121H420.538L413.842 111H409.544Z" fill="#E53232"/>
</g>
<g opacity="0.2">
<path d="M428.714 111L435.15 121H439.708L433.012 111H428.714Z" fill="#E53232"/>
</g>
<g opacity="0.2">
<path d="M438.136 111L444.576 121H449.13L442.434 111H438.136Z" fill="#E53232"/>
</g>
<g opacity="0.2">
<path d="M447.562 111L453.997 121H458.556L451.859 111H447.562Z" fill="#E53232"/>
</g>
<g opacity="0.2">
<path d="M456.988 111L463.424 121H467.982L461.286 111H456.988Z" fill="#E53232"/>
</g>
<g opacity="0.2">
<path d="M466.41 111L472.85 121H477.404L470.708 111H466.41Z" fill="#E53232"/>
</g>
</g>
<path fill-rule="evenodd" clip-rule="evenodd" d="M24.7951 73.2304C26.4326 73.4371 28.0123 73.8589 29.5051 74.4751L32.9664 71.5721L38.9129 76.0961L37.0396 80.2066C38.0279 81.4802 38.8591 82.8904 39.496 84.4163L43.9951 84.8133L45 92.2195L40.7696 93.7992C40.567 95.4368 40.1411 97.0206 39.5249 98.5093L42.4279 101.97L37.9039 107.917L33.7934 106.044C32.5198 107.032 31.1096 107.863 29.5837 108.496L29.1867 112.995L21.7805 114L20.2008 109.77C18.5632 109.567 16.9836 109.141 15.4907 108.525L12.0295 111.428L6.08298 106.904L7.95626 102.793C6.96793 101.52 6.13674 100.11 5.50404 98.5837L1.00487 98.1867L0 90.7805L4.23038 89.2008C4.43301 87.5632 4.85894 85.9794 5.4751 84.4907L2.57214 81.0295L7.09612 75.083L11.2066 76.9563C12.4802 75.9679 13.8904 75.1367 15.4163 74.504L15.8133 70.0049L23.2195 69L24.7992 73.2304H24.7951ZM21.7557 83.5107C17.3681 84.1061 14.2956 88.1463 14.8911 92.5338C15.4866 96.9213 19.5267 99.9938 23.9143 99.3984C28.3018 98.8029 31.3743 94.7627 30.7788 90.3752C30.1833 85.9877 26.1432 82.9152 21.7557 83.5107Z" fill="#E0E0E0"/>
<path fill-rule="evenodd" clip-rule="evenodd" d="M458.428 136.632C459.447 136.761 460.43 137.023 461.359 137.407L463.512 135.6L467.212 138.415L466.047 140.973C466.662 141.765 467.179 142.643 467.575 143.592L470.375 143.839L471 148.448L468.368 149.431C468.242 150.45 467.977 151.435 467.593 152.361L469.4 154.515L466.585 158.215L464.027 157.049C463.235 157.664 462.357 158.182 461.408 158.575L461.161 161.375L456.552 162L455.569 159.368C454.55 159.242 453.568 158.977 452.639 158.593L450.485 160.4L446.785 157.585L447.951 155.027C447.336 154.235 446.818 153.357 446.425 152.408L443.625 152.161L443 147.552L445.632 146.569C445.758 145.55 446.023 144.565 446.407 143.639L444.6 141.485L447.415 137.785L449.973 138.951C450.765 138.336 451.643 137.818 452.592 137.425L452.839 134.625L457.448 134L458.431 136.632H458.428ZM456.537 143.029C453.807 143.399 451.895 145.913 452.266 148.643C452.636 151.373 455.15 153.285 457.88 152.915C460.61 152.544 462.522 150.03 462.151 147.3C461.781 144.57 459.267 142.658 456.537 143.029Z" fill="#E0E0E0"/>
<rect x="359" y="36" width="198" height="17.82" fill="#E0E0E0"/>
<circle cx="384" cy="45" r="3" fill="white"/>
<circle cx="375" cy="45" r="3" fill="white"/>
<circle cx="393" cy="45" r="3" fill="white"/>
<rect x="252.5" y="119.5" width="179" height="134" fill="white" stroke="#959595"/>
<path d="M221 301H188C187.5 301 187 300.551 187 300C187 299.449 187.5 299 188 299H221C221.426 299 222 299.449 222 300C222 300.551 221.426 301 221 301Z" fill="white"/>
<path d="M221 304H188C187.5 304 187 303.551 187 303C187 302.449 187.5 302 188 302H221C221.426 302 222 302.449 222 303C222 303.551 221.426 304 221 304Z" fill="white"/>
<path d="M207.4 307H187.6C187.3 307 187 306.551 187 306C187 305.449 187.3 305 187.6 305H207.4C207.655 305 208 305.449 208 306C208 306.551 207.655 307 207.4 307Z" fill="white"/>
<path d="M288 153H275V222H288V153Z" fill="#E1E1E1"/>
<path d="M338 179H324V222H338V179Z" fill="#959595"/>
<path d="M412.38 203.61H398.66V221.79H412.38V203.61Z" fill="#959595"/>
<path d="M387 196H373V222H387V196Z" fill="#E0E0E0"/>
<path d="M362 190H348V222H362V190Z" fill="#E1E1E1"/>
<path d="M312 165H298V222H312V165Z" fill="#FF9C9C"/>
<path d="M281.03 236H275V242.03H281.03V236Z" fill="#FF9C9C"/>
<path d="M317.03 236H311V242.03H317.03V236Z" fill="#E0E0E0"/>
<path d="M353.03 236H347V242.03H353.03V236Z" fill="#959595"/>
<rect x="253" y="120" width="178" height="15.8222" fill="#E0E0E0"/>
<rect x="336.5" y="79.5" width="64" height="64" fill="white" stroke="#959595"/>
<path d="M368.352 91C357.118 91 348 100.118 348 111.352C348 122.586 357.118 131.704 368.352 131.704C379.586 131.704 388.704 122.586 388.704 111.352C388.704 100.118 379.586 91 368.352 91ZM368.352 113.387C367.233 113.387 366.317 112.471 366.317 111.352V103.211C366.317 102.092 367.233 101.176 368.352 101.176C369.471 101.176 370.387 102.092 370.387 103.211V111.352C370.387 112.471 369.471 113.387 368.352 113.387ZM370.387 121.528H366.317V117.458H370.387V121.528Z" fill="#FF9C9C"/>
<circle cx="162" cy="224" r="3" fill="white"/>
<circle cx="153" cy="224" r="3" fill="white"/>
<circle cx="171" cy="224" r="3" fill="white"/>
<circle cx="272" cy="128" r="3" fill="white"/>
<circle cx="263" cy="128" r="3" fill="white"/>
<circle cx="281" cy="128" r="3" fill="white"/>
<path fill-rule="evenodd" clip-rule="evenodd" d="M78.0001 19.0001L97.0001 9.00009L97.4658 9.88501L78.4658 19.885L78.0001 19.0001Z" fill="#959595"/>
<path d="M85.7052 27V26.34H86.8452V23.286L85.6992 24.138V23.346L86.7072 22.62H87.5952V26.34H88.5132V27H85.7052ZM85.6752 37V36.274L87.0432 34.9C87.2352 34.704 87.3772 34.528 87.4692 34.372C87.5612 34.212 87.6072 34.048 87.6072 33.88C87.6072 33.676 87.5512 33.518 87.4392 33.406C87.3272 33.29 87.1752 33.232 86.9832 33.232C86.7712 33.232 86.6052 33.294 86.4852 33.418C86.3652 33.538 86.3052 33.706 86.3052 33.922H85.5552C85.5592 33.642 85.6192 33.402 85.7352 33.202C85.8552 32.998 86.0232 32.84 86.2392 32.728C86.4552 32.616 86.7072 32.56 86.9952 32.56C87.2712 32.56 87.5112 32.612 87.7152 32.716C87.9192 32.82 88.0772 32.966 88.1892 33.154C88.3012 33.342 88.3572 33.566 88.3572 33.826C88.3572 34.094 88.2872 34.356 88.1472 34.612C88.0112 34.864 87.7912 35.136 87.4872 35.428L86.5752 36.322H88.4112V37H85.6752ZM86.9592 47.06C86.6752 47.06 86.4272 47.008 86.2152 46.904C86.0072 46.8 85.8452 46.654 85.7292 46.466C85.6132 46.278 85.5552 46.056 85.5552 45.8H86.3112C86.3112 45.996 86.3672 46.15 86.4792 46.262C86.5952 46.37 86.7572 46.424 86.9652 46.424C87.1732 46.424 87.3332 46.368 87.4452 46.256C87.5572 46.144 87.6132 45.992 87.6132 45.8V45.458C87.6132 45.262 87.5572 45.11 87.4452 45.002C87.3332 44.89 87.1732 44.834 86.9652 44.834H86.4732V44.156L87.4392 43.262H85.7532V42.62H88.2012V43.298L86.9652 44.432V44.192C87.3972 44.192 87.7392 44.306 87.9912 44.534C88.2432 44.762 88.3692 45.07 88.3692 45.458V45.8C88.3692 46.056 88.3112 46.278 88.1952 46.466C88.0792 46.654 87.9152 46.8 87.7032 46.904C87.4912 47.008 87.2432 47.06 86.9592 47.06ZM87.5412 57V56.13H85.5912V55.044L87.2772 52.62H88.1172L86.3112 55.242V55.47H87.5412V54.48H88.2912V57H87.5412ZM86.9952 67.06C86.5912 67.06 86.2672 66.96 86.0232 66.76C85.7792 66.556 85.6452 66.28 85.6212 65.932H86.3712C86.3872 66.084 86.4472 66.202 86.5512 66.286C86.6592 66.366 86.8072 66.406 86.9952 66.406C87.2032 66.406 87.3612 66.352 87.4692 66.244C87.5772 66.132 87.6312 65.978 87.6312 65.782V65.356C87.6312 65.156 87.5772 65.004 87.4692 64.9C87.3612 64.792 87.2032 64.738 86.9952 64.738C86.8672 64.738 86.7572 64.764 86.6652 64.816C86.5732 64.868 86.5032 64.94 86.4552 65.032H85.7232L85.7532 62.62H88.2192V63.298H86.4612L86.4492 64.57H86.6232L86.4432 64.72C86.4432 64.536 86.5152 64.392 86.6592 64.288C86.8072 64.18 87.0052 64.126 87.2532 64.126C87.6092 64.122 87.8852 64.23 88.0812 64.45C88.2812 64.666 88.3812 64.968 88.3812 65.356V65.782C88.3812 66.178 88.2572 66.49 88.0092 66.718C87.7652 66.946 87.4272 67.06 86.9952 67.06ZM87.0012 77.06C86.7092 77.06 86.4512 77 86.2272 76.88C86.0072 76.756 85.8352 76.584 85.7112 76.364C85.5912 76.14 85.5312 75.882 85.5312 75.59C85.5312 75.382 85.5652 75.164 85.6332 74.936C85.7052 74.708 85.8032 74.494 85.9272 74.294L86.9592 72.62H87.7932L86.4972 74.66L86.5332 74.684C86.6132 74.56 86.7212 74.466 86.8572 74.402C86.9932 74.338 87.1452 74.306 87.3132 74.306C87.5492 74.306 87.7532 74.362 87.9252 74.474C88.0972 74.586 88.2312 74.742 88.3272 74.942C88.4232 75.142 88.4712 75.376 88.4712 75.644C88.4712 75.928 88.4092 76.176 88.2852 76.388C88.1652 76.6 87.9952 76.766 87.7752 76.886C87.5592 77.002 87.3012 77.06 87.0012 77.06ZM87.0012 76.424C87.2212 76.424 87.3992 76.354 87.5352 76.214C87.6712 76.07 87.7392 75.884 87.7392 75.656C87.7392 75.42 87.6712 75.232 87.5352 75.092C87.3992 74.948 87.2212 74.876 87.0012 74.876C86.7812 74.876 86.6032 74.948 86.4672 75.092C86.3312 75.232 86.2632 75.42 86.2632 75.656C86.2632 75.884 86.3312 76.07 86.4672 76.214C86.6032 76.354 86.7812 76.424 87.0012 76.424ZM86.1312 87L87.7152 83.316H86.3112V83.952H85.5612V82.62H88.4652V83.328L86.9352 87H86.1312ZM87.0012 97.06C86.7132 97.06 86.4632 97.012 86.2512 96.916C86.0392 96.816 85.8752 96.676 85.7592 96.496C85.6432 96.316 85.5852 96.106 85.5852 95.866C85.5852 95.602 85.6592 95.376 85.8072 95.188C85.9552 95 86.1752 94.84 86.4672 94.708L87.1392 94.402C87.2832 94.334 87.3952 94.242 87.4752 94.126C87.5592 94.01 87.6012 93.88 87.6012 93.736C87.6012 93.572 87.5472 93.442 87.4392 93.346C87.3312 93.246 87.1852 93.196 87.0012 93.196C86.8172 93.196 86.6692 93.246 86.5572 93.346C86.4492 93.446 86.3952 93.578 86.3952 93.742C86.3952 93.882 86.4372 94.01 86.5212 94.126C86.6052 94.242 86.7172 94.332 86.8572 94.396L87.5232 94.702C87.8392 94.842 88.0672 95.008 88.2072 95.2C88.3472 95.388 88.4172 95.61 88.4172 95.866C88.4172 96.234 88.2892 96.526 88.0332 96.742C87.7812 96.954 87.4372 97.06 87.0012 97.06ZM87.0012 96.418C87.2092 96.418 87.3732 96.364 87.4932 96.256C87.6172 96.144 87.6792 95.998 87.6792 95.818C87.6792 95.678 87.6372 95.546 87.5532 95.422C87.4692 95.294 87.3532 95.196 87.2052 95.128L86.4912 94.798C86.2192 94.67 86.0112 94.518 85.8672 94.342C85.7272 94.162 85.6572 93.948 85.6572 93.7C85.6572 93.476 85.7112 93.278 85.8192 93.106C85.9272 92.934 86.0812 92.8 86.2812 92.704C86.4852 92.608 86.7252 92.56 87.0012 92.56C87.2772 92.56 87.5132 92.608 87.7092 92.704C87.9092 92.8 88.0632 92.934 88.1712 93.106C88.2832 93.278 88.3392 93.476 88.3392 93.7C88.3392 93.952 88.2692 94.166 88.1292 94.342C87.9892 94.518 87.7832 94.67 87.5112 94.798L86.7912 95.134C86.6472 95.198 86.5332 95.292 86.4492 95.416C86.3652 95.54 86.3232 95.672 86.3232 95.812C86.3232 95.992 86.3832 96.138 86.5032 96.25C86.6272 96.362 86.7932 96.418 87.0012 96.418ZM86.2092 107L87.5052 104.96L87.4692 104.936C87.3892 105.06 87.2812 105.154 87.1452 105.218C87.0092 105.282 86.8572 105.314 86.6892 105.314C86.4572 105.314 86.2532 105.258 86.0772 105.146C85.9052 105.034 85.7712 104.878 85.6752 104.678C85.5792 104.478 85.5312 104.244 85.5312 103.976C85.5312 103.688 85.5912 103.44 85.7112 103.232C85.8352 103.02 86.0072 102.856 86.2272 102.74C86.4472 102.62 86.7032 102.56 86.9952 102.56C87.2952 102.56 87.5552 102.622 87.7752 102.746C87.9952 102.866 88.1652 103.036 88.2852 103.256C88.4092 103.476 88.4712 103.734 88.4712 104.03C88.4712 104.234 88.4372 104.452 88.3692 104.684C88.3012 104.912 88.2032 105.126 88.0752 105.326L87.0432 107H86.2092ZM87.0012 104.744C87.2212 104.744 87.3992 104.674 87.5352 104.534C87.6712 104.39 87.7392 104.2 87.7392 103.964C87.7392 103.736 87.6712 103.552 87.5352 103.412C87.3992 103.268 87.2212 103.196 87.0012 103.196C86.7812 103.196 86.6032 103.268 86.4672 103.412C86.3312 103.552 86.2632 103.736 86.2632 103.964C86.2632 104.2 86.3312 104.39 86.4672 104.534C86.6032 104.674 86.7812 104.744 87.0012 104.744ZM83.9063 117V116.34H85.0463V113.286L83.9003 114.138V113.346L84.9083 112.62H85.7963V116.34H86.7143V117H83.9063ZM88.8 117.06C88.516 117.06 88.27 117.006 88.062 116.898C87.854 116.79 87.692 116.638 87.576 116.442C87.464 116.246 87.408 116.016 87.408 115.752V113.868C87.408 113.604 87.464 113.374 87.576 113.178C87.692 112.982 87.854 112.83 88.062 112.722C88.27 112.614 88.516 112.56 88.8 112.56C89.088 112.56 89.334 112.614 89.538 112.722C89.746 112.83 89.906 112.982 90.018 113.178C90.134 113.374 90.192 113.604 90.192 113.868V115.752C90.192 116.016 90.134 116.246 90.018 116.442C89.906 116.638 89.746 116.79 89.538 116.898C89.33 117.006 89.084 117.06 88.8 117.06ZM88.8 116.412C89.008 116.412 89.174 116.352 89.298 116.232C89.422 116.112 89.484 115.952 89.484 115.752V113.868C89.484 113.668 89.422 113.508 89.298 113.388C89.174 113.268 89.008 113.208 88.8 113.208C88.592 113.208 88.426 113.268 88.302 113.388C88.178 113.508 88.116 113.668 88.116 113.868V115.752C88.116 115.952 88.178 116.112 88.302 116.232C88.426 116.352 88.592 116.412 88.8 116.412ZM88.8 115.2C88.684 115.2 88.588 115.162 88.512 115.086C88.44 115.01 88.404 114.912 88.404 114.792C88.404 114.672 88.44 114.576 88.512 114.504C88.584 114.432 88.68 114.396 88.8 114.396C88.92 114.396 89.016 114.432 89.088 114.504C89.16 114.576 89.196 114.672 89.196 114.792C89.196 114.912 89.16 115.01 89.088 115.086C89.016 115.162 88.92 115.2 88.8 115.2ZM83.9063 127V126.34H85.0463V123.286L83.9003 124.138V123.346L84.9083 122.62H85.7963V126.34H86.7143V127H83.9063ZM87.504 127V126.34H88.644V123.286L87.498 124.138V123.346L88.506 122.62H89.394V126.34H90.312V127H87.504ZM83.9063 137V136.34H85.0463V133.286L83.9003 134.138V133.346L84.9083 132.62H85.7963V136.34H86.7143V137H83.9063ZM87.474 137V136.274L88.842 134.9C89.034 134.704 89.176 134.528 89.268 134.372C89.36 134.212 89.406 134.048 89.406 133.88C89.406 133.676 89.35 133.518 89.238 133.406C89.126 133.29 88.974 133.232 88.782 133.232C88.57 133.232 88.404 133.294 88.284 133.418C88.164 133.538 88.104 133.706 88.104 133.922H87.354C87.358 133.642 87.418 133.402 87.534 133.202C87.654 132.998 87.822 132.84 88.038 132.728C88.254 132.616 88.506 132.56 88.794 132.56C89.07 132.56 89.31 132.612 89.514 132.716C89.718 132.82 89.876 132.966 89.988 133.154C90.1 133.342 90.156 133.566 90.156 133.826C90.156 134.094 90.086 134.356 89.946 134.612C89.81 134.864 89.59 135.136 89.286 135.428L88.374 136.322H90.21V137H87.474ZM83.9063 147V146.34H85.0463V143.286L83.9003 144.138V143.346L84.9083 142.62H85.7963V146.34H86.7143V147H83.9063ZM88.758 147.06C88.474 147.06 88.226 147.008 88.014 146.904C87.806 146.8 87.644 146.654 87.528 146.466C87.412 146.278 87.354 146.056 87.354 145.8H88.11C88.11 145.996 88.166 146.15 88.278 146.262C88.394 146.37 88.556 146.424 88.764 146.424C88.972 146.424 89.132 146.368 89.244 146.256C89.356 146.144 89.412 145.992 89.412 145.8V145.458C89.412 145.262 89.356 145.11 89.244 145.002C89.132 144.89 88.972 144.834 88.764 144.834H88.272V144.156L89.238 143.262H87.552V142.62H90V143.298L88.764 144.432V144.192C89.196 144.192 89.538 144.306 89.79 144.534C90.042 144.762 90.168 145.07 90.168 145.458V145.8C90.168 146.056 90.11 146.278 89.994 146.466C89.878 146.654 89.714 146.8 89.502 146.904C89.29 147.008 89.042 147.06 88.758 147.06ZM83.9063 157V156.34H85.0463V153.286L83.9003 154.138V153.346L84.9083 152.62H85.7963V156.34H86.7143V157H83.9063ZM89.34 157V156.13H87.39V155.044L89.076 152.62H89.916L88.11 155.242V155.47H89.34V154.48H90.09V157H89.34Z" fill="#959595"/>
<path d="M142.21 17L143.314 12.62H144.28L145.39 17H144.622L144.382 15.938H143.218L142.978 17H142.21ZM143.356 15.326H144.244L143.98 14.15C143.936 13.954 143.898 13.778 143.866 13.622C143.834 13.462 143.812 13.346 143.8 13.274C143.788 13.346 143.766 13.462 143.734 13.622C143.706 13.778 143.668 13.952 143.62 14.144L143.356 15.326ZM210.817 17V12.62H212.161C212.585 12.62 212.921 12.722 213.169 12.926C213.417 13.126 213.541 13.4 213.541 13.748C213.541 13.944 213.497 14.114 213.409 14.258C213.321 14.402 213.201 14.514 213.049 14.594C212.901 14.674 212.729 14.714 212.533 14.714V14.69C212.745 14.686 212.933 14.726 213.097 14.81C213.265 14.89 213.397 15.01 213.493 15.17C213.593 15.33 213.643 15.524 213.643 15.752C213.643 16.004 213.585 16.224 213.469 16.412C213.353 16.6 213.189 16.746 212.977 16.85C212.769 16.95 212.519 17 212.227 17H210.817ZM211.549 16.376H212.179C212.399 16.376 212.571 16.318 212.695 16.202C212.823 16.082 212.887 15.92 212.887 15.716C212.887 15.512 212.823 15.348 212.695 15.224C212.571 15.096 212.399 15.032 212.179 15.032H211.549V16.376ZM211.549 14.426H212.149C212.349 14.426 212.505 14.374 212.617 14.27C212.733 14.162 212.791 14.016 212.791 13.832C212.791 13.648 212.733 13.504 212.617 13.4C212.505 13.296 212.349 13.244 212.149 13.244H211.549V14.426ZM258.949 17.06C258.669 17.06 258.423 17.008 258.211 16.904C258.003 16.796 257.841 16.646 257.725 16.454C257.613 16.258 257.557 16.028 257.557 15.764V13.856C257.557 13.588 257.613 13.358 257.725 13.166C257.841 12.974 258.003 12.826 258.211 12.722C258.423 12.614 258.669 12.56 258.949 12.56C259.233 12.56 259.477 12.614 259.681 12.722C259.889 12.826 260.051 12.974 260.167 13.166C260.283 13.358 260.341 13.588 260.341 13.856H259.585C259.585 13.648 259.529 13.49 259.417 13.382C259.309 13.274 259.153 13.22 258.949 13.22C258.745 13.22 258.587 13.274 258.475 13.382C258.363 13.49 258.307 13.646 258.307 13.85V15.764C258.307 15.968 258.363 16.126 258.475 16.238C258.587 16.346 258.745 16.4 258.949 16.4C259.153 16.4 259.309 16.346 259.417 16.238C259.529 16.126 259.585 15.968 259.585 15.764H260.341C260.341 16.024 260.283 16.252 260.167 16.448C260.051 16.644 259.889 16.796 259.681 16.904C259.477 17.008 259.233 17.06 258.949 17.06ZM304.345 17V12.62H305.647C305.943 12.62 306.199 12.676 306.415 12.788C306.635 12.9 306.805 13.058 306.925 13.262C307.045 13.466 307.105 13.708 307.105 13.988V15.626C307.105 15.902 307.045 16.144 306.925 16.352C306.805 16.556 306.635 16.716 306.415 16.832C306.199 16.944 305.943 17 305.647 17H304.345ZM305.095 16.31H305.647C305.863 16.31 306.035 16.25 306.163 16.13C306.291 16.006 306.355 15.838 306.355 15.626V13.988C306.355 13.78 306.291 13.616 306.163 13.496C306.035 13.372 305.863 13.31 305.647 13.31H305.095V16.31Z" fill="#959595"/>
<path d="M230.82 36.12H197.56C196.7 36.12 196 35.42 196 34.56C196 33.7 196.7 33 197.56 33H230.82C231.68 33 232.38 33.7 232.38 34.56C232.38 35.42 231.68 36.12 230.82 36.12Z" fill="#D3EFD1"/>
<path d="M230.82 26.12H197.56C196.7 26.12 196 25.42 196 24.56C196 23.7 196.7 23 197.56 23H230.82C231.68 23 232.38 23.7 232.38 24.56C232.38 25.42 231.68 26.12 230.82 26.12Z" fill="#FFE588"/>
<path d="M230.82 56.12H197.56C196.7 56.12 196 55.42 196 54.56C196 53.7 196.7 53 197.56 53H230.82C231.68 53 232.38 53.7 232.38 54.56C232.38 55.42 231.68 56.12 230.82 56.12Z" fill="#FF9C9C"/>
<path d="M230.82 46.12H197.56C196.7 46.12 196 45.42 196 44.56C196 43.7 196.7 43 197.56 43H230.82C231.68 43 232.38 43.7 232.38 44.56C232.38 45.42 231.68 46.12 230.82 46.12Z" fill="#FF9C9C"/>
<path d="M230.82 76.12H197.56C196.7 76.12 196 75.42 196 74.56C196 73.7 196.7 73 197.56 73H230.82C231.68 73 232.38 73.7 232.38 74.56C232.38 75.42 231.68 76.12 230.82 76.12Z" fill="#FFE588"/>
<path d="M230.82 66.12H197.56C196.7 66.12 196 65.42 196 64.56C196 63.7 196.7 63 197.56 63H230.82C231.68 63 232.38 63.7 232.38 64.56C232.38 65.42 231.68 66.12 230.82 66.12Z" fill="#D3EFD1"/>
<path d="M230.82 96.12H197.56C196.7 96.12 196 95.42 196 94.56C196 93.7 196.7 93 197.56 93H230.82C231.68 93 232.38 93.7 232.38 94.56C232.38 95.42 231.68 96.12 230.82 96.12Z" fill="#FF9C9C"/>
<path d="M230.82 86.12H197.56C196.7 86.12 196 85.42 196 84.56C196 83.7 196.7 83 197.56 83H230.82C231.68 83 232.38 83.7 232.38 84.56C232.38 85.42 231.68 86.12 230.82 86.12Z" fill="#FF9C9C"/>
<path d="M230.82 116.12H197.56C196.7 116.12 196 115.42 196 114.56C196 113.7 196.7 113 197.56 113H230.82C231.68 113 232.38 113.7 232.38 114.56C232.38 115.42 231.68 116.12 230.82 116.12Z" fill="#D3EFD1"/>
<path d="M230.82 106.12H197.56C196.7 106.12 196 105.42 196 104.56C196 103.7 196.7 103 197.56 103H230.82C231.68 103 232.38 103.7 232.38 104.56C232.38 105.42 231.68 106.12 230.82 106.12Z" fill="#D3EFD1"/>
<path d="M230.82 136.12H197.56C196.7 136.12 196 135.42 196 134.56C196 133.7 196.7 133 197.56 133H230.82C231.68 133 232.38 133.7 232.38 134.56C232.38 135.42 231.68 136.12 230.82 136.12Z" fill="#FF9C9C"/>
<path d="M230.82 126.12H197.56C196.7 126.12 196 125.42 196 124.56C196 123.7 196.7 123 197.56 123H230.82C231.68 123 232.38 123.7 232.38 124.56C232.38 125.42 231.68 126.12 230.82 126.12Z" fill="#D3EFD1"/>
<path d="M300 240H284C283.5 240 283 239.551 283 239C283 238.449 283.5 238 284 238H300C300.426 238 301 238.449 301 239C301 239.551 300.426 240 300 240Z" fill="#E0E0E0"/>
<path d="M336 240H320C319.5 240 319 239.551 319 239C319 238.449 319.5 238 320 238H336C336.426 238 337 238.449 337 239C337 239.551 336.426 240 336 240Z" fill="#E0E0E0"/>
<path d="M372 240H356C355.5 240 355 239.551 355 239C355 238.449 355.5 238 356 238H372C372.426 238 373 238.449 373 239C373 239.551 372.426 240 372 240Z" fill="#E0E0E0"/>
<path d="M230.82 156.12H197.56C196.7 156.12 196 155.42 196 154.56C196 153.7 196.7 153 197.56 153H230.82C231.68 153 232.38 153.7 232.38 154.56C232.38 155.42 231.68 156.12 230.82 156.12Z" fill="#FFE588"/>
<path d="M230.82 146.12H197.56C196.7 146.12 196 145.42 196 144.56C196 143.7 196.7 143 197.56 143H230.82C231.68 143 232.38 143.7 232.38 144.56C232.38 145.42 231.68 146.12 230.82 146.12Z" fill="#D3EFD1"/>
<path d="M300.996 295.612V305.388C300.996 306.827 299.712 308 298.147 308H246.845C245.279 308 244 306.823 244 305.388V295.612C244 295.26 244.078 294.926 244.217 294.619C244.646 293.671 245.668 293 246.849 293H298.151C298.854 293 299.5 293.236 299.999 293.626C300.612 294.109 301 294.817 301 295.608L300.996 295.612Z" fill="#FFE3E3"/>
<path d="M295 299H262C261.5 299 261 298.551 261 298C261 297.449 261.5 297 262 297H295C295.426 297 296 297.449 296 298C296 298.551 295.426 299 295 299Z" fill="white"/>
<path d="M295 302H262C261.5 302 261 301.551 261 301C261 300.449 261.5 300 262 300H295C295.426 300 296 300.449 296 301C296 301.551 295.426 302 295 302Z" fill="white"/>
<path d="M281.4 305H261.6C261.3 305 261 304.551 261 304C261 303.449 261.3 303 261.6 303H281.4C281.655 303 282 303.449 282 304C282 304.551 281.655 305 281.4 305Z" fill="white"/>
<path d="M249.907 297.163C249.689 296.946 249.337 296.946 249.12 297.163L248.163 298.12C247.946 298.337 247.946 298.689 248.163 298.907L250.256 301L248.163 303.093C247.946 303.311 247.946 303.663 248.163 303.88L249.12 304.837C249.337 305.054 249.689 305.054 249.907 304.837L252 302.744L254.093 304.837C254.311 305.054 254.663 305.054 254.88 304.837L255.837 303.88C256.054 303.663 256.054 303.311 255.837 303.093L253.744 301L255.837 298.907C256.054 298.689 256.054 298.337 255.837 298.12L254.88 297.163C254.663 296.946 254.311 296.946 254.093 297.163L252 299.256L249.907 297.163Z" fill="#FF9C9C"/>
<path d="M173.333 258.667H166.666C164.666 258.667 163.333 257.667 163.333 255.333V250.667C163.333 248.333 164.666 247.333 166.666 247.333H173.333C175.333 247.333 176.666 248.333 176.666 250.667V255.333C176.666 257.667 175.333 258.667 173.333 258.667Z" stroke="white" stroke-width="2" stroke-miterlimit="10" stroke-linecap="round" stroke-linejoin="round"/>
<path d="M173.334 251L171.247 252.667C170.56 253.213 169.434 253.213 168.747 252.667L166.667 251" stroke="white" stroke-width="2" stroke-miterlimit="10" stroke-linecap="round" stroke-linejoin="round"/>
<path d="M173.333 283.667H166.666C164.666 283.667 163.333 282.667 163.333 280.333V275.667C163.333 273.333 164.666 272.333 166.666 272.333H173.333C175.333 272.333 176.666 273.333 176.666 275.667V280.333C176.666 282.667 175.333 283.667 173.333 283.667Z" stroke="white" stroke-width="2" stroke-miterlimit="10" stroke-linecap="round" stroke-linejoin="round"/>
<path d="M173.334 276L171.247 277.667C170.56 278.213 169.434 278.213 168.747 277.667L166.667 276" stroke="white" stroke-width="2" stroke-miterlimit="10" stroke-linecap="round" stroke-linejoin="round"/>
<path d="M173.333 308.667H166.666C164.666 308.667 163.333 307.667 163.333 305.333V300.667C163.333 298.333 164.666 297.333 166.666 297.333H173.333C175.333 297.333 176.666 298.333 176.666 300.667V305.333C176.666 307.667 175.333 308.667 173.333 308.667Z" stroke="white" stroke-width="2" stroke-miterlimit="10" stroke-linecap="round" stroke-linejoin="round"/>
<path d="M173.334 301L171.247 302.667C170.56 303.213 169.434 303.213 168.747 302.667L166.667 301" stroke="white" stroke-width="2" stroke-miterlimit="10" stroke-linecap="round" stroke-linejoin="round"/>
<circle cx="860" cy="244" r="80" fill="#E6A58D" fill-opacity="0.2"/>
<circle cx="860" cy="244" r="60" fill="#FC4807" fill-opacity="0.2"/>
<path d="M883.39 234.196C882.163 232.375 880.647 230.734 878.882 229.34C874.398 225.799 868.667 224.147 862.944 224.746C857.221 225.345 851.974 228.146 848.351 232.535C845.464 236.033 843.796 240.311 843.536 244.748H836C830.891 244.748 826.75 248.814 826.75 253.828V254.319C826.75 259.334 830.891 263.399 836 263.399H837.304L841.304 259.472H850.491L839.741 270.024H835.989C827.157 270.019 820 262.989 820 254.319V253.828C820 245.154 827.163 238.123 836 238.123H837.896C838.947 234.596 840.704 231.274 843.106 228.364C847.854 222.613 854.73 218.943 862.228 218.158C869.727 217.373 877.237 219.537 883.113 224.177C887.007 227.252 889.973 231.247 891.771 235.733C889.382 234.744 886.756 234.196 884 234.196H883.39Z" fill="#FC4807"/>
<path d="M877.891 238.123L867.141 248.675H876.334L880.334 244.748H884C889.109 244.748 893.25 248.814 893.25 253.828V254.319C893.25 259.334 889.109 263.399 884 263.399H866.986L860.236 270.025H884C892.837 270.025 900 262.993 900 254.319V253.828C900 246.103 894.319 239.681 886.834 238.368C886.16 238.25 885.471 238.173 884.771 238.141C884.516 238.129 884.259 238.123 884 238.123H877.891Z" fill="#FC4807"/>
<path d="M854.584 270.025H845.391L856.141 259.472H865.334L854.584 270.025Z" fill="#FC4807"/>
<path d="M863.054 238.123L852.304 248.675H861.496L872.246 238.123H863.054Z" fill="#FC4807"/>
<path d="M883.39 234.196C882.163 232.375 880.647 230.734 878.882 229.34C874.398 225.799 868.667 224.147 862.944 224.746C857.221 225.345 851.974 228.146 848.351 232.535C845.464 236.033 843.796 240.311 843.536 244.748H836C830.891 244.748 826.75 248.814 826.75 253.828V254.319C826.75 259.334 830.891 263.399 836 263.399H837.304L841.304 259.472H850.491L839.741 270.024H835.989C827.157 270.019 820 262.989 820 254.319V253.828C820 245.154 827.163 238.123 836 238.123H837.896C838.947 234.596 840.704 231.274 843.106 228.364C847.854 222.613 854.73 218.943 862.228 218.158C869.727 217.373 877.237 219.537 883.113 224.177C887.007 227.252 889.973 231.247 891.771 235.733C889.382 234.744 886.756 234.196 884 234.196H883.39Z" fill="#FC4807"/>
<path d="M877.891 238.123L867.141 248.675H876.334L880.334 244.748H884C889.109 244.748 893.25 248.814 893.25 253.828V254.319C893.25 259.334 889.109 263.399 884 263.399H866.986L860.236 270.025H884C892.837 270.025 900 262.993 900 254.319V253.828C900 246.103 894.319 239.681 886.834 238.368C886.16 238.25 885.471 238.173 884.771 238.141C884.516 238.129 884.259 238.123 884 238.123H877.891Z" fill="#FC4807"/>
<path d="M854.584 270.025H845.391L856.141 259.472H865.334L854.584 270.025Z" fill="#FC4807"/>
<path d="M863.054 238.123L852.304 248.675H861.496L872.246 238.123H863.054Z" fill="#FC4807"/>
<path d="M561 143C734.138 143 612.09 233 798 233" stroke="#E0E0E0"/>
<path d="M317 285C659.623 285 432.102 240 800 240" stroke="#E0E0E0"/>
<circle cx="559" cy="143" r="4" fill="#FF9C9C"/>
<circle cx="317" cy="286" r="4" fill="#FF9C9C"/>
<path d="M798 236.5L431 236.5" stroke="#E0E0E0"/>
<circle cx="801" cy="237" r="7" fill="#FC4807"/>
<circle cx="432" cy="237" r="4" fill="#FF9C9C"/>
<path d="M380 296H564C572.837 296 580 303.163 580 312V328C580 336.837 572.837 344 564 344H396C387.163 344 380 336.837 380 328V296Z" fill="#C2C2C2"/>
<path d="M392.32 322.578C391.586 322.578 390.992 322.016 390.992 321.078V309.656C390.992 308.719 391.586 308.164 392.32 308.164C392.68 308.164 393.008 308.273 393.445 308.523L402.82 313.961C403.539 314.383 403.898 314.766 403.898 315.367C403.898 315.977 403.539 316.359 402.82 316.773L393.445 322.211C393.008 322.461 392.68 322.578 392.32 322.578Z" fill="white"/>
<path d="M412 315C412 314.448 412.448 314 413 314C413.552 314 414 314.448 414 315V317C414 317.552 413.552 318 413 318C412.448 318 412 317.552 412 317V315Z" fill="white"/>
<path d="M415 315C415 314.448 415.448 314 416 314C416.552 314 417 314.448 417 315V317C417 317.552 416.552 318 416 318C415.448 318 415 317.552 415 317V315Z" fill="white"/>
<path d="M418 310C418 309.448 418.448 309 419 309C419.552 309 420 309.448 420 310V322C420 322.552 419.552 323 419 323C418.448 323 418 322.552 418 322V310Z" fill="white"/>
<path d="M421 314.5C421 313.948 421.448 313.5 422 313.5C422.552 313.5 423 313.948 423 314.5V317.5C423 318.052 422.552 318.5 422 318.5C421.448 318.5 421 318.052 421 317.5V314.5Z" fill="white"/>
<path d="M424 312.5C424 311.948 424.448 311.5 425 311.5C425.552 311.5 426 311.948 426 312.5V319.5C426 320.052 425.552 320.5 425 320.5C424.448 320.5 424 320.052 424 319.5V312.5Z" fill="white"/>
<path d="M427 314C427 313.448 427.448 313 428 313C428.552 313 429 313.448 429 314V318C429 318.552 428.552 319 428 319C427.448 319 427 318.552 427 318V314Z" fill="white"/>
<path d="M430 312C430 311.448 430.448 311 431 311C431.552 311 432 311.448 432 312V320C432 320.552 431.552 321 431 321C430.448 321 430 320.552 430 320V312Z" fill="white"/>
<path d="M433 309C433 308.448 433.448 308 434 308C434.552 308 435 308.448 435 309V323C435 323.552 434.552 324 434 324C433.448 324 433 323.552 433 323V309Z" fill="white"/>
<path d="M436 311.5C436 310.948 436.448 310.5 437 310.5C437.552 310.5 438 310.948 438 311.5V320.5C438 321.052 437.552 321.5 437 321.5C436.448 321.5 436 321.052 436 320.5V311.5Z" fill="white"/>
<path d="M439 314.5C439 313.948 439.448 313.5 440 313.5C440.552 313.5 441 313.948 441 314.5V317.5C441 318.052 440.552 318.5 440 318.5C439.448 318.5 439 318.052 439 317.5V314.5Z" fill="white"/>
<path d="M442 309C442 308.448 442.448 308 443 308C443.552 308 444 308.448 444 309V323C444 323.552 443.552 324 443 324C442.448 324 442 323.552 442 323V309Z" fill="white"/>
<path d="M445 313.5C445 312.948 445.448 312.5 446 312.5C446.552 312.5 447 312.948 447 313.5V318.5C447 319.052 446.552 319.5 446 319.5C445.448 319.5 445 319.052 445 318.5V313.5Z" fill="white"/>
<path d="M448 313C448 312.448 448.448 312 449 312C449.552 312 450 312.448 450 313V319C450 319.552 449.552 320 449 320C448.448 320 448 319.552 448 319V313Z" fill="white"/>
<path d="M451 312.5C451 311.948 451.448 311.5 452 311.5C452.552 311.5 453 311.948 453 312.5V319.5C453 320.052 452.552 320.5 452 320.5C451.448 320.5 451 320.052 451 319.5V312.5Z" fill="white"/>
<path d="M454 314C454 313.448 454.448 313 455 313C455.552 313 456 313.448 456 314V318C456 318.552 455.552 319 455 319C454.448 319 454 318.552 454 318V314Z" fill="white"/>
<path d="M457 310.5C457 309.948 457.448 309.5 458 309.5C458.552 309.5 459 309.948 459 310.5V321.5C459 322.052 458.552 322.5 458 322.5C457.448 322.5 457 322.052 457 321.5V310.5Z" fill="white"/>
<path d="M460 313.5C460 312.948 460.448 312.5 461 312.5C461.552 312.5 462 312.948 462 313.5V318.5C462 319.052 461.552 319.5 461 319.5C460.448 319.5 460 319.052 460 318.5V313.5Z" fill="white"/>
<path d="M463 313C463 312.448 463.448 312 464 312C464.552 312 465 312.448 465 313V319C465 319.552 464.552 320 464 320C463.448 320 463 319.552 463 319V313Z" fill="white"/>
<path d="M466 312.5C466 311.948 466.448 311.5 467 311.5C467.552 311.5 468 311.948 468 312.5V319.5C468 320.052 467.552 320.5 467 320.5C466.448 320.5 466 320.052 466 319.5V312.5Z" fill="white"/>
<path d="M469 313.5C469 312.948 469.448 312.5 470 312.5C470.552 312.5 471 312.948 471 313.5V318.5C471 319.052 470.552 319.5 470 319.5C469.448 319.5 469 319.052 469 318.5V313.5Z" fill="white"/>
<path d="M472 309C472 308.448 472.448 308 473 308C473.552 308 474 308.448 474 309V323C474 323.552 473.552 324 473 324C472.448 324 472 323.552 472 323V309Z" fill="white"/>
<path d="M475 309C475 308.448 475.448 308 476 308C476.552 308 477 308.448 477 309V323C477 323.552 476.552 324 476 324C475.448 324 475 323.552 475 323V309Z" fill="white"/>
<path d="M478 313C478 312.448 478.448 312 479 312C479.552 312 480 312.448 480 313V319C480 319.552 479.552 320 479 320C478.448 320 478 319.552 478 319V313Z" fill="white"/>
<path d="M481 311.5C481 310.948 481.448 310.5 482 310.5C482.552 310.5 483 310.948 483 311.5V320.5C483 321.052 482.552 321.5 482 321.5C481.448 321.5 481 321.052 481 320.5V311.5Z" fill="white"/>
<path d="M484 313C484 312.448 484.448 312 485 312C485.552 312 486 312.448 486 313V319C486 319.552 485.552 320 485 320C484.448 320 484 319.552 484 319V313Z" fill="white"/>
<path d="M487 316C487 315.724 487.224 315.5 487.5 315.5H488.5C488.776 315.5 489 315.724 489 316C489 316.276 488.776 316.5 488.5 316.5H487.5C487.224 316.5 487 316.276 487 316Z" fill="white"/>
<path d="M490 311.5C490 310.948 490.448 310.5 491 310.5C491.552 310.5 492 310.948 492 311.5V320.5C492 321.052 491.552 321.5 491 321.5C490.448 321.5 490 321.052 490 320.5V311.5Z" fill="white"/>
<path d="M493 309C493 308.448 493.448 308 494 308C494.552 308 495 308.448 495 309V323C495 323.552 494.552 324 494 324C493.448 324 493 323.552 493 323V309Z" fill="white"/>
<path d="M496 309C496 308.448 496.448 308 497 308C497.552 308 498 308.448 498 309V323C498 323.552 497.552 324 497 324C496.448 324 496 323.552 496 323V309Z" fill="white"/>
<path d="M499 311.5C499 310.948 499.448 310.5 500 310.5C500.552 310.5 501 310.948 501 311.5V320.5C501 321.052 500.552 321.5 500 321.5C499.448 321.5 499 321.052 499 320.5V311.5Z" fill="white"/>
<path d="M502 313.5C502 312.948 502.448 312.5 503 312.5C503.552 312.5 504 312.948 504 313.5V318.5C504 319.052 503.552 319.5 503 319.5C502.448 319.5 502 319.052 502 318.5V313.5Z" fill="white"/>
<path d="M505 314C505 313.448 505.448 313 506 313C506.552 313 507 313.448 507 314V318C507 318.552 506.552 319 506 319C505.448 319 505 318.552 505 318V314Z" fill="white"/>
<path d="M508 314C508 313.448 508.448 313 509 313C509.552 313 510 313.448 510 314V318C510 318.552 509.552 319 509 319C508.448 319 508 318.552 508 318V314Z" fill="white"/>
<path d="M511 309C511 308.448 511.448 308 512 308C512.552 308 513 308.448 513 309V323C513 323.552 512.552 324 512 324C511.448 324 511 323.552 511 323V309Z" fill="white"/>
<path d="M514 311.5C514 310.948 514.448 310.5 515 310.5C515.552 310.5 516 310.948 516 311.5V320.5C516 321.052 515.552 321.5 515 321.5C514.448 321.5 514 321.052 514 320.5V311.5Z" fill="white"/>
<path d="M517 314C517 313.448 517.448 313 518 313C518.552 313 519 313.448 519 314V318C519 318.552 518.552 319 518 319C517.448 319 517 318.552 517 318V314Z" fill="white"/>
<path d="M520 312.5C520 311.948 520.448 311.5 521 311.5C521.552 311.5 522 311.948 522 312.5V319.5C522 320.052 521.552 320.5 521 320.5C520.448 320.5 520 320.052 520 319.5V312.5Z" fill="white"/>
<path d="M523 314C523 313.448 523.448 313 524 313C524.552 313 525 313.448 525 314V318C525 318.552 524.552 319 524 319C523.448 319 523 318.552 523 318V314Z" fill="white"/>
<path d="M526 312.5C526 311.948 526.448 311.5 527 311.5C527.552 311.5 528 311.948 528 312.5V319.5C528 320.052 527.552 320.5 527 320.5C526.448 320.5 526 320.052 526 319.5V312.5Z" fill="white"/>
<path d="M529 314C529 313.448 529.448 313 530 313C530.552 313 531 313.448 531 314V318C531 318.552 530.552 319 530 319C529.448 319 529 318.552 529 318V314Z" fill="white"/>
<path d="M532 309C532 308.448 532.448 308 533 308C533.552 308 534 308.448 534 309V323C534 323.552 533.552 324 533 324C532.448 324 532 323.552 532 323V309Z" fill="white"/>
<path d="M535 309C535 308.448 535.448 308 536 308C536.552 308 537 308.448 537 309V323C537 323.552 536.552 324 536 324C535.448 324 535 323.552 535 323V309Z" fill="white"/>
<path d="M538 313C538 312.448 538.448 312 539 312C539.552 312 540 312.448 540 313V319C540 319.552 539.552 320 539 320C538.448 320 538 319.552 538 319V313Z" fill="white"/>
<path d="M541 314C541 313.448 541.448 313 542 313C542.552 313 543 313.448 543 314V318C543 318.552 542.552 319 542 319C541.448 319 541 318.552 541 318V314Z" fill="white"/>
<path d="M544 311.5C544 310.948 544.448 310.5 545 310.5C545.552 310.5 546 310.948 546 311.5V320.5C546 321.052 545.552 321.5 545 321.5C544.448 321.5 544 321.052 544 320.5V311.5Z" fill="white"/>
<path d="M547 309C547 308.448 547.448 308 548 308C548.552 308 549 308.448 549 309V323C549 323.552 548.552 324 548 324C547.448 324 547 323.552 547 323V309Z" fill="white"/>
<path d="M550 314C550 313.448 550.448 313 551 313C551.552 313 552 313.448 552 314V318C552 318.552 551.552 319 551 319C550.448 319 550 318.552 550 318V314Z" fill="white"/>
<path d="M553 309C553 308.448 553.448 308 554 308C554.552 308 555 308.448 555 309V323C555 323.552 554.552 324 554 324C553.448 324 553 323.552 553 323V309Z" fill="white"/>
<path d="M556 311.5C556 310.948 556.448 310.5 557 310.5C557.552 310.5 558 310.948 558 311.5V320.5C558 321.052 557.552 321.5 557 321.5C556.448 321.5 556 321.052 556 320.5V311.5Z" fill="white"/>
<path d="M559 315.5C559 314.948 559.448 314.5 560 314.5C560.552 314.5 561 314.948 561 315.5V316.5C561 317.052 560.552 317.5 560 317.5C559.448 317.5 559 317.052 559 316.5V315.5Z" fill="white"/>
<path d="M562 312C562 311.448 562.448 311 563 311C563.552 311 564 311.448 564 312V320C564 320.552 563.552 321 563 321C562.448 321 562 320.552 562 320V312Z" fill="white"/>
<path d="M565 314C565 313.448 565.448 313 566 313C566.552 313 567 313.448 567 314V318C567 318.552 566.552 319 566 319C565.448 319 565 318.552 565 318V314Z" fill="white"/>
<path d="M568 316C568 315.448 568.448 315 569 315C569.552 315 570 315.448 570 316C570 316.552 569.552 317 569 317C568.448 317 568 316.552 568 316Z" fill="white"/>
<circle cx="413" cy="316" r="4" fill="white"/>
<path d="M413.12 336.117C411.436 336.117 410.43 334.716 410.43 332.479V332.47C410.43 330.233 411.436 328.837 413.12 328.837C414.8 328.837 415.811 330.233 415.811 332.47V332.479C415.811 334.716 414.8 336.117 413.12 336.117ZM413.12 335.204C414.121 335.204 414.707 334.169 414.707 332.479V332.47C414.707 330.78 414.121 329.755 413.12 329.755C412.114 329.755 411.533 330.78 411.533 332.47V332.479C411.533 334.169 412.114 335.204 413.12 335.204ZM418.491 336V330.038H418.467L416.626 331.308V330.272L418.481 328.954H419.561V336H418.491ZM421.855 331.283C421.494 331.283 421.211 331 421.211 330.639C421.211 330.282 421.494 329.999 421.855 329.999C422.212 329.999 422.495 330.282 422.495 330.639C422.495 331 422.212 331.283 421.855 331.283ZM421.855 334.95C421.494 334.95 421.211 334.667 421.211 334.311C421.211 333.949 421.494 333.671 421.855 333.671C422.212 333.671 422.495 333.949 422.495 334.311C422.495 334.667 422.212 334.95 421.855 334.95ZM426.875 336V334.599H423.35V333.646L426.343 328.954H427.925V333.681H428.896V334.599H427.925V336H426.875ZM424.365 333.695H426.885V329.818H426.855L424.365 333.666V333.695ZM432.266 336.117C430.708 336.117 429.604 335.282 429.604 334.091V334.081C429.604 333.192 430.244 332.489 431.162 332.289V332.265C430.376 332.04 429.863 331.454 429.863 330.707V330.697C429.863 329.623 430.864 328.837 432.266 328.837C433.667 328.837 434.673 329.623 434.673 330.697V330.707C434.673 331.454 434.16 332.04 433.374 332.265V332.289C434.292 332.489 434.927 333.192 434.927 334.081V334.091C434.927 335.282 433.828 336.117 432.266 336.117ZM432.266 331.898C433.052 331.898 433.589 331.444 433.589 330.805V330.795C433.589 330.15 433.047 329.701 432.266 329.701C431.484 329.701 430.947 330.15 430.947 330.795V330.805C430.947 331.444 431.484 331.898 432.266 331.898ZM432.266 335.243C433.164 335.243 433.804 334.73 433.804 334.018V334.008C433.804 333.29 433.169 332.772 432.266 332.772C431.362 332.772 430.728 333.29 430.728 334.008V334.018C430.728 334.73 431.367 335.243 432.266 335.243Z" fill="white"/>
<circle cx="580" cy="320" r="4" fill="#FF9C9C"/>
<rect x="1165.5" y="34.5" width="554" height="289" fill="white" stroke="#959595"/>
<rect x="1181.5" y="163.5" width="152" height="135" fill="white" stroke="#DBDBDB"/>
<g clip-path="url(#clip2_26_106)">
<path d="M1291.41 192.649C1284.73 185.742 1275.92 185.919 1270.64 186.032C1270.05 186.041 1269.49 186.057 1269 186.057C1268.28 186.057 1267.7 186.687 1267.7 187.462C1267.7 192.108 1262.9 195.897 1257 195.897C1251.1 195.897 1246.3 192.116 1246.3 187.462C1246.3 186.687 1245.71 186.057 1245 186.057C1244.51 186.057 1243.96 186.049 1243.36 186.032C1238.09 185.927 1229.28 185.742 1222.59 192.649C1215.59 199.888 1205.41 213.129 1205.3 213.267C1205.06 213.582 1204.96 213.994 1205.02 214.39C1205.08 214.794 1205.3 215.149 1205.62 215.359L1228.46 230.524V273.189C1228.46 274.74 1229.62 276 1231.05 276H1282.94C1284.38 276 1285.53 274.74 1285.53 273.189V230.524L1308.38 215.359C1308.7 215.149 1308.92 214.794 1308.98 214.39C1309.04 213.986 1308.94 213.574 1308.7 213.267C1308.6 213.129 1298.41 199.888 1291.41 192.649H1291.41Z" fill="#C2C2C2"/>
<path d="M1285.54 227.227V202.917H1282.95V273.189H1231.06V202.917H1228.47V227.227L1208.26 213.816C1210.96 210.358 1218.74 200.51 1224.38 194.677C1230.3 188.569 1238.13 188.731 1243.32 188.836C1243.48 188.836 1243.65 188.844 1243.8 188.844C1244.61 194.386 1250.22 198.7 1257 198.7C1263.78 198.7 1269.38 194.394 1270.2 188.844C1270.36 188.844 1270.52 188.844 1270.69 188.836C1275.88 188.731 1283.71 188.569 1289.62 194.677C1295.26 200.51 1303.05 210.358 1305.74 213.816L1285.54 227.227Z" fill="#E0E0E0"/>
</g>
<rect x="1166" y="35" width="553" height="54" fill="#E0E0E0"/>
<path d="M1702.56 66H1692V67.76H1702.56V66Z" fill="white"/>
<path d="M1702.56 73.9099H1692V75.6699H1702.56V73.9099Z" fill="white"/>
<path d="M1702.56 70H1692V71.76H1702.56V70Z" fill="white"/>
<path d="M1675 66H1534V76H1675V66Z" fill="#9F9F9F"/>
<path d="M1537.41 68.1899H1536.87V74.2399H1537.41V68.1899Z" fill="white"/>
<path d="M1276.45 66.3799H1229.01V76.0499H1276.45V66.3799Z" stroke="white" stroke-miterlimit="10"/>
<path d="M1334.31 66.3799H1286.87V76.0499H1334.31V66.3799Z" stroke="white" stroke-miterlimit="10"/>
<path d="M1390.31 66.3799H1342.87V76.0499H1390.31V66.3799Z" stroke="white" stroke-miterlimit="10"/>
<path d="M1450.03 66.3799H1402.59V76.0499H1450.03V66.3799Z" stroke="white" stroke-miterlimit="10"/>
<path d="M1507.9 66.3799H1460.46V76.0499H1507.9V66.3799Z" stroke="white" stroke-miterlimit="10"/>
<rect x="1166" y="35" width="553" height="14" fill="#283237"/>
<circle cx="1193" cy="42" r="3" fill="white"/>
<circle cx="1184" cy="42" r="3" fill="#E0E0E0"/>
<circle cx="1202" cy="42" r="3" fill="#F7C84E"/>
<path d="M1200.02 64.9811C1199.65 64.4211 1199.19 63.9162 1198.66 63.4876C1197.32 62.3987 1195.6 61.8906 1193.88 62.0748C1192.17 62.259 1190.59 63.1204 1189.51 64.4703C1188.64 65.5459 1188.14 66.8618 1188.06 68.2264H1185.8C1184.27 68.2264 1183.03 69.4766 1183.03 71.0189V71.1698C1183.03 72.712 1184.27 73.9623 1185.8 73.9623H1186.19L1187.39 72.7547H1190.15L1186.92 76H1185.8C1183.15 75.9981 1181 73.8363 1181 71.1698V71.0189C1181 68.3512 1183.15 66.1887 1185.8 66.1887H1186.37C1186.68 65.1042 1187.21 64.0824 1187.93 63.1875C1189.36 61.4186 1191.42 60.2899 1193.67 60.0485C1195.92 59.8072 1198.17 60.4728 1199.93 61.8998C1201.1 62.8453 1201.99 64.074 1202.53 65.4539C1201.81 65.1494 1201.03 64.9811 1200.2 64.9811H1200.02Z" fill="#FC4807"/>
<path d="M1198.37 66.1887L1195.14 69.434H1197.9L1199.1 68.2264H1200.2C1201.73 68.2264 1202.97 69.4766 1202.97 71.0189V71.1698C1202.97 72.712 1201.73 73.9623 1200.2 73.9623H1195.1L1193.07 76H1200.2C1202.85 76 1205 73.8375 1205 71.1698V71.0189C1205 68.6431 1203.3 66.668 1201.05 66.2642C1200.85 66.2278 1200.64 66.2042 1200.43 66.1942C1200.35 66.1905 1200.28 66.1887 1200.2 66.1887H1198.37Z" fill="#FC4807"/>
<path d="M1191.38 76H1188.62L1191.84 72.7547H1194.6L1191.38 76Z" fill="#FC4807"/>
<path d="M1193.92 66.1887L1190.69 69.434H1193.45L1196.67 66.1887H1193.92Z" fill="#FC4807"/>
<path d="M1558.83 122H1423V126.62H1558.83V122Z" fill="#DBDBDB"/>
<path d="M1558.83 133H1423V137.62H1558.83V133Z" fill="#DBDBDB"/>
<path d="M1558.83 144H1423V148.62H1558.83V144Z" fill="#DBDBDB"/>
<path d="M1401 149H1365V113H1401V149ZM1366 147.996H1400V114.004H1366V147.996Z" fill="#D3D3D3"/>
<path d="M1372.13 132.38L1376.89 127.27L1384.82 133.62L1402.97 116L1407.32 121.12L1384.46 143.66L1372.13 132.38Z" fill="#00C95C"/>
<path d="M1334 133H1183V138H1334V133Z" fill="#DBDBDB"/>
<path d="M1291 144H1183V149H1291V144Z" fill="#DBDBDB"/>
<path d="M1558.83 172H1423V176.62H1558.83V172Z" fill="#DBDBDB"/>
<path d="M1558.83 183H1423V187.62H1558.83V183Z" fill="#DBDBDB"/>
<path d="M1558.83 194H1423V198.62H1558.83V194Z" fill="#DBDBDB"/>
<path d="M1401 199H1365V163H1401V199ZM1366 197.996H1400V164.004H1366V197.996Z" fill="#D3D3D3"/>
<path d="M1372.13 182.38L1376.89 177.27L1384.82 183.62L1402.97 166L1407.32 171.12L1384.46 193.66L1372.13 182.38Z" fill="#00C95C"/>
<path d="M1558.83 222H1423V226.62H1558.83V222Z" fill="#DBDBDB"/>
<path d="M1558.83 233H1423V237.62H1558.83V233Z" fill="#DBDBDB"/>
<path d="M1558.83 244H1423V248.62H1558.83V244Z" fill="#DBDBDB"/>
<path d="M1401 249H1365V213H1401V249ZM1366 247.996H1400V214.004H1366V247.996Z" fill="#D3D3D3"/>
<path d="M1372.13 232.38L1376.89 227.27L1384.82 233.62L1402.97 216L1407.32 221.12L1384.46 243.66L1372.13 232.38Z" fill="#00C95C"/>
<path d="M1558.83 272H1423V276.62H1558.83V272Z" fill="#DBDBDB"/>
<path d="M1558.83 283H1423V287.62H1558.83V283Z" fill="#DBDBDB"/>
<path d="M1558.83 294H1423V298.62H1558.83V294Z" fill="#DBDBDB"/>
<path d="M1401 299H1365V263H1401V299ZM1366 297.996H1400V264.004H1366V297.996Z" fill="#D3D3D3"/>
<path d="M1372.13 282.38L1376.89 277.27L1384.82 283.62L1402.97 266L1407.32 271.12L1384.46 293.66L1372.13 282.38Z" fill="#00C95C"/>
<path d="M1195 100C1189.49 100 1185 104.49 1185 110C1185 115.51 1189.49 120 1195 120C1200.51 120 1205 115.51 1205 110C1205 104.49 1200.51 100 1195 100ZM1199.78 107.7L1194.11 113.37C1193.97 113.51 1193.78 113.59 1193.58 113.59C1193.38 113.59 1193.19 113.51 1193.05 113.37L1190.22 110.54C1189.93 110.25 1189.93 109.77 1190.22 109.48C1190.51 109.19 1190.99 109.19 1191.28 109.48L1193.58 111.78L1198.72 106.64C1199.01 106.35 1199.49 106.35 1199.78 106.64C1200.07 106.93 1200.07 107.4 1199.78 107.7Z" fill="#00C95C"/>
<path d="M1237 100C1231.49 100 1227 104.49 1227 110C1227 115.51 1231.49 120 1237 120C1242.51 120 1247 115.51 1247 110C1247 104.49 1242.51 100 1237 100ZM1241.78 107.7L1236.11 113.37C1235.97 113.51 1235.78 113.59 1235.58 113.59C1235.38 113.59 1235.19 113.51 1235.05 113.37L1232.22 110.54C1231.93 110.25 1231.93 109.77 1232.22 109.48C1232.51 109.19 1232.99 109.19 1233.28 109.48L1235.58 111.78L1240.72 106.64C1241.01 106.35 1241.49 106.35 1241.78 106.64C1242.07 106.93 1242.07 107.4 1241.78 107.7Z" fill="#00C95C"/>
<path d="M1279 100C1273.49 100 1269 104.49 1269 110C1269 115.51 1273.49 120 1279 120C1284.51 120 1289 115.51 1289 110C1289 104.49 1284.51 100 1279 100ZM1283.78 107.7L1278.11 113.37C1277.97 113.51 1277.78 113.59 1277.58 113.59C1277.38 113.59 1277.19 113.51 1277.05 113.37L1274.22 110.54C1273.93 110.25 1273.93 109.77 1274.22 109.48C1274.51 109.19 1274.99 109.19 1275.28 109.48L1277.58 111.78L1282.72 106.64C1283.01 106.35 1283.49 106.35 1283.78 106.64C1284.07 106.93 1284.07 107.4 1283.78 107.7Z" fill="#00C95C"/>
<path d="M1321 100C1315.49 100 1311 104.49 1311 110C1311 115.51 1315.49 120 1321 120C1326.51 120 1331 115.51 1331 110C1331 104.49 1326.51 100 1321 100ZM1317 111C1316.44 111 1316 110.55 1316 110C1316 109.45 1316.45 109 1317 109C1317.55 109 1318 109.45 1318 110C1318 110.55 1317.56 111 1317 111ZM1321 111C1320.44 111 1320 110.55 1320 110C1320 109.45 1320.45 109 1321 109C1321.55 109 1322 109.45 1322 110C1322 110.55 1321.56 111 1321 111ZM1325 111C1324.44 111 1324 110.55 1324 110C1324 109.45 1324.45 109 1325 109C1325.55 109 1326 109.45 1326 110C1326 110.55 1325.56 111 1325 111Z" fill="#DBDBDB"/>
<rect x="1209" y="109" width="14" height="1" fill="#DBDBDB"/>
<rect x="1251" y="109" width="14" height="1" fill="#DBDBDB"/>
<rect x="1293" y="109" width="14" height="1" fill="#DBDBDB"/>
<circle cx="1636" cy="129" r="32" fill="#F7F7F8"/>
<g filter="url(#filter0_d_26_106)">
<circle cx="1636" cy="129" r="24" fill="white"/>
</g>
<path d="M1624.81 135.156C1624.3 135.156 1623.79 135.065 1623.28 134.883C1622.78 134.701 1622.32 134.398 1621.91 133.977C1621.51 133.549 1621.18 132.977 1620.93 132.258C1620.68 131.539 1620.56 130.646 1620.56 129.578C1620.56 128.562 1620.66 127.661 1620.87 126.875C1621.08 126.083 1621.37 125.417 1621.75 124.875C1622.14 124.328 1622.6 123.914 1623.14 123.633C1623.68 123.346 1624.29 123.203 1624.97 123.203C1625.66 123.203 1626.28 123.341 1626.81 123.617C1627.35 123.888 1627.78 124.263 1628.12 124.742C1628.46 125.221 1628.67 125.768 1628.75 126.383H1627.03C1626.91 125.898 1626.68 125.505 1626.33 125.203C1625.98 124.896 1625.53 124.742 1624.97 124.742C1624.11 124.742 1623.45 125.115 1622.97 125.859C1622.49 126.599 1622.26 127.63 1622.26 128.953H1622.34C1622.55 128.625 1622.79 128.344 1623.09 128.109C1623.38 127.87 1623.7 127.688 1624.06 127.562C1624.43 127.438 1624.82 127.375 1625.23 127.375C1625.9 127.375 1626.51 127.539 1627.05 127.867C1627.61 128.195 1628.04 128.648 1628.37 129.227C1628.7 129.799 1628.86 130.458 1628.86 131.203C1628.86 131.943 1628.69 132.612 1628.35 133.211C1628.02 133.81 1627.55 134.284 1626.94 134.633C1626.33 134.982 1625.62 135.156 1624.81 135.156ZM1624.8 133.68C1625.25 133.68 1625.65 133.57 1626 133.352C1626.35 133.133 1626.64 132.839 1626.84 132.469C1627.05 132.094 1627.16 131.677 1627.16 131.219C1627.16 130.771 1627.05 130.365 1626.85 130C1626.65 129.635 1626.38 129.346 1626.03 129.133C1625.69 128.914 1625.29 128.805 1624.84 128.805C1624.4 128.805 1624 128.917 1623.64 129.141C1623.28 129.365 1622.99 129.661 1622.78 130.031C1622.57 130.401 1622.47 130.802 1622.47 131.234C1622.47 131.667 1622.57 132.07 1622.77 132.445C1622.98 132.82 1623.25 133.12 1623.6 133.344C1623.96 133.568 1624.36 133.68 1624.8 133.68ZM1629.97 132.727V131.312L1634.99 123.359H1636.11V125.453H1635.39L1631.8 131.141V131.234H1638.7V132.727H1629.97ZM1635.47 135V132.297L1635.48 131.648V123.359H1637.16V135H1635.47ZM1646.06 132.812V132.203C1646.06 131.76 1646.15 131.357 1646.34 130.992C1646.52 130.628 1646.79 130.336 1647.14 130.117C1647.49 129.893 1647.92 129.781 1648.43 129.781C1648.95 129.781 1649.38 129.891 1649.73 130.109C1650.08 130.328 1650.34 130.622 1650.52 130.992C1650.69 131.357 1650.78 131.76 1650.78 132.203V132.812C1650.78 133.255 1650.69 133.661 1650.51 134.031C1650.33 134.396 1650.07 134.688 1649.72 134.906C1649.37 135.125 1648.94 135.234 1648.43 135.234C1647.92 135.234 1647.49 135.125 1647.13 134.906C1646.78 134.688 1646.51 134.396 1646.33 134.031C1646.15 133.661 1646.06 133.255 1646.06 132.812ZM1647.38 132.203V132.812C1647.38 133.141 1647.46 133.438 1647.62 133.703C1647.77 133.969 1648.04 134.102 1648.43 134.102C1648.81 134.102 1649.08 133.969 1649.23 133.703C1649.38 133.438 1649.45 133.141 1649.45 132.812V132.203C1649.45 131.875 1649.38 131.581 1649.23 131.32C1649.09 131.055 1648.82 130.922 1648.43 130.922C1648.05 130.922 1647.78 131.055 1647.62 131.32C1647.46 131.581 1647.38 131.875 1647.38 132.203ZM1640.21 126.156V125.547C1640.21 125.104 1640.3 124.701 1640.48 124.336C1640.67 123.966 1640.94 123.672 1641.29 123.453C1641.64 123.234 1642.07 123.125 1642.57 123.125C1643.09 123.125 1643.52 123.234 1643.87 123.453C1644.22 123.672 1644.49 123.966 1644.66 124.336C1644.84 124.701 1644.93 125.104 1644.92 125.547V126.156C1644.93 126.594 1644.84 126.997 1644.66 127.367C1644.47 127.732 1644.21 128.026 1643.86 128.25C1643.51 128.469 1643.08 128.578 1642.57 128.578C1642.06 128.578 1641.63 128.469 1641.27 128.25C1640.92 128.026 1640.66 127.732 1640.48 127.367C1640.3 126.997 1640.21 126.594 1640.21 126.156ZM1641.53 125.547V126.156C1641.53 126.484 1641.61 126.781 1641.77 127.047C1641.92 127.312 1642.19 127.443 1642.57 127.438C1642.96 127.443 1643.22 127.312 1643.38 127.047C1643.53 126.781 1643.6 126.484 1643.6 126.156V125.547C1643.6 125.219 1643.53 124.922 1643.38 124.656C1643.24 124.391 1642.97 124.26 1642.57 124.266C1642.2 124.26 1641.93 124.391 1641.77 124.656C1641.61 124.922 1641.53 125.219 1641.53 125.547ZM1640.75 135L1648.75 123.359H1650.11L1642.11 135H1640.75Z" fill="#00C95C"/>
<path d="M1636 101C1640.72 101 1645.36 102.191 1649.49 104.463C1653.62 106.735 1657.11 110.015 1659.64 113.997C1662.17 117.979 1663.65 122.535 1663.94 127.242C1664.24 131.949 1663.34 136.654 1661.34 140.922C1659.33 145.189 1656.27 148.88 1652.46 151.652C1648.64 154.425 1644.19 156.188 1639.51 156.779C1634.83 157.37 1630.08 156.77 1625.69 155.034C1621.31 153.298 1617.43 150.482 1614.43 146.848" stroke="#00C95C" stroke-width="8"/>
<rect x="1588" y="170" width="115" height="27" fill="#E0E0E0"/>
<path d="M1689 180H1626C1625.5 180 1625 179.551 1625 179C1625 178.449 1625.5 178 1626 178H1689C1689.43 178 1690 178.449 1690 179C1690 179.551 1689.43 180 1689 180Z" fill="white"/>
<path d="M1689 184H1626C1625.5 184 1625 183.551 1625 183C1625 182.449 1625.5 182 1626 182H1689C1689.43 182 1690 182.449 1690 183C1690 183.551 1689.43 184 1689 184Z" fill="white"/>
<path d="M1655.4 188H1625.6C1625.3 188 1625 187.551 1625 187C1625 186.449 1625.3 186 1625.6 186H1655.4C1655.66 186 1656 186.449 1656 187C1656 187.551 1655.66 188 1655.4 188Z" fill="white"/>
<path d="M1614.21 178.82L1606.51 183.28C1606.2 183.46 1605.81 183.46 1605.49 183.28L1597.79 178.82C1597.24 178.5 1597.1 177.75 1597.52 177.28C1597.81 176.95 1598.14 176.68 1598.49 176.49L1603.91 173.49C1605.07 172.84 1606.95 172.84 1608.11 173.49L1613.53 176.49C1613.88 176.68 1614.21 176.96 1614.5 177.28C1614.9 177.75 1614.76 178.5 1614.21 178.82Z" fill="white"/>
<path d="M1605.43 185.14V191.96C1605.43 192.72 1604.66 193.22 1603.98 192.89C1601.92 191.88 1598.45 189.99 1598.45 189.99C1597.23 189.3 1596.23 187.56 1596.23 186.13V180.97C1596.23 180.18 1597.06 179.68 1597.74 180.07L1604.93 184.24C1605.23 184.43 1605.43 184.77 1605.43 185.14Z" fill="white"/>
<path d="M1606.57 185.14V191.96C1606.57 192.72 1607.34 193.22 1608.02 192.89C1610.08 191.88 1613.55 189.99 1613.55 189.99C1614.77 189.3 1615.77 187.56 1615.77 186.13V180.97C1615.77 180.18 1614.94 179.68 1614.26 180.07L1607.07 184.24C1606.77 184.43 1606.57 184.77 1606.57 185.14Z" fill="white"/>
<rect x="1588" y="204" width="115" height="27" fill="#E0E0E0"/>
<path d="M1608 207.92V216.23C1608 217.25 1607.17 218.08 1606.15 218.08H1597C1596.45 218.08 1596 217.63 1596 217.08V210.69C1596 208.65 1597.65 207 1599.69 207H1607.07C1607.59 207 1608 207.41 1608 207.92Z" fill="white"/>
<path d="M1615.5 220.5C1615.78 220.5 1616 220.72 1616 221V222C1616 223.66 1614.66 225 1613 225C1613 223.35 1611.65 222 1610 222C1608.35 222 1607 223.35 1607 225H1605C1605 223.35 1603.65 222 1602 222C1600.35 222 1599 223.35 1599 225C1597.34 225 1596 223.66 1596 222V220C1596 219.45 1596.45 219 1597 219H1606.5C1607.88 219 1609 217.88 1609 216.5V211C1609 210.45 1609.45 210 1610 210H1610.84C1611.56 210 1612.22 210.39 1612.58 211.01L1613.22 212.13C1613.31 212.29 1613.19 212.5 1613 212.5C1611.62 212.5 1610.5 213.62 1610.5 215V218C1610.5 219.38 1611.62 220.5 1613 220.5H1615.5Z" fill="white"/>
<path d="M1602 227C1603.1 227 1604 226.105 1604 225C1604 223.895 1603.1 223 1602 223C1600.9 223 1600 223.895 1600 225C1600 226.105 1600.9 227 1602 227Z" fill="white"/>
<path d="M1610 227C1611.1 227 1612 226.105 1612 225C1612 223.895 1611.1 223 1610 223C1608.9 223 1608 223.895 1608 225C1608 226.105 1608.9 227 1610 227Z" fill="white"/>
<path d="M1616 217.53V219H1613C1612.45 219 1612 218.55 1612 218V215C1612 214.45 1612.45 214 1613 214H1614.29L1615.74 216.54C1615.91 216.84 1616 217.18 1616 217.53Z" fill="white"/>
<path d="M1689 214H1626C1625.5 214 1625 213.551 1625 213C1625 212.449 1625.5 212 1626 212H1689C1689.43 212 1690 212.449 1690 213C1690 213.551 1689.43 214 1689 214Z" fill="white"/>
<path d="M1689 218H1626C1625.5 218 1625 217.551 1625 217C1625 216.449 1625.5 216 1626 216H1689C1689.43 216 1690 216.449 1690 217C1690 217.551 1689.43 218 1689 218Z" fill="white"/>
<path d="M1655.4 222H1625.6C1625.3 222 1625 221.551 1625 221C1625 220.449 1625.3 220 1625.6 220H1655.4C1655.66 220 1656 220.449 1656 221C1656 221.551 1655.66 222 1655.4 222Z" fill="white"/>
<rect x="1588" y="238" width="115" height="27" fill="#E0E0E0"/>
<path d="M1689 248H1626C1625.5 248 1625 247.551 1625 247C1625 246.449 1625.5 246 1626 246H1689C1689.43 246 1690 246.449 1690 247C1690 247.551 1689.43 248 1689 248Z" fill="white"/>
<path d="M1689 252H1626C1625.5 252 1625 251.551 1625 251C1625 250.449 1625.5 250 1626 250H1689C1689.43 250 1690 250.449 1690 251C1690 251.551 1689.43 252 1689 252Z" fill="white"/>
<path d="M1655.4 256H1625.6C1625.3 256 1625 255.551 1625 255C1625 254.449 1625.3 254 1625.6 254H1655.4C1655.66 254 1656 254.449 1656 255C1656 255.551 1655.66 256 1655.4 256Z" fill="white"/>
<rect x="1588" y="272" width="115" height="27" fill="#E0E0E0"/>
<path d="M1689 282H1626C1625.5 282 1625 281.551 1625 281C1625 280.449 1625.5 280 1626 280H1689C1689.43 280 1690 280.449 1690 281C1690 281.551 1689.43 282 1689 282Z" fill="white"/>
<path d="M1689 286H1626C1625.5 286 1625 285.551 1625 285C1625 284.449 1625.5 284 1626 284H1689C1689.43 284 1690 284.449 1690 285C1690 285.551 1689.43 286 1689 286Z" fill="white"/>
<path d="M1655.4 290H1625.6C1625.3 290 1625 289.551 1625 289C1625 288.449 1625.3 288 1625.6 288H1655.4C1655.66 288 1656 288.449 1656 289C1656 289.551 1655.66 290 1655.4 290Z" fill="white"/>
<path d="M1610.19 241H1601.81C1598.17 241 1596 243.17 1596 246.81V255.18C1596 258.83 1598.17 261 1601.81 261H1610.18C1613.82 261 1615.99 258.83 1615.99 255.19V246.81C1616 243.17 1613.83 241 1610.19 241ZM1610.37 253.63L1608.15 255.85C1607.61 256.39 1606.91 256.65 1606.21 256.65C1605.51 256.65 1604.8 256.38 1604.27 255.85C1603.2 254.78 1603.2 253.03 1604.27 251.96L1605.68 250.55C1605.97 250.26 1606.45 250.26 1606.74 250.55C1607.03 250.84 1607.03 251.32 1606.74 251.61L1605.33 253.02C1604.84 253.51 1604.84 254.3 1605.33 254.79C1605.82 255.28 1606.61 255.28 1607.1 254.79L1609.32 252.57C1609.93 251.96 1610.27 251.14 1610.27 250.27C1610.27 249.4 1609.93 248.59 1609.32 247.97C1608.09 246.74 1605.95 246.74 1604.72 247.97L1602.29 250.4C1601.25 251.44 1601.25 253.14 1602.29 254.19C1602.58 254.48 1602.58 254.96 1602.29 255.25C1602 255.54 1601.52 255.54 1601.23 255.25C1599.6 253.62 1599.6 250.97 1601.23 249.34L1603.65 246.92C1604.55 246.02 1605.74 245.53 1607.01 245.53C1608.28 245.53 1609.47 246.02 1610.37 246.92C1611.27 247.82 1611.76 249.01 1611.76 250.28C1611.76 251.55 1611.27 252.74 1610.37 253.63Z" fill="white"/>
<path d="M1615.02 280.992C1615.41 281.558 1614.94 282.25 1614.25 282.25H1597C1596.45 282.25 1596 281.802 1596 281.25V279.42C1596 276.98 1597.98 275 1600.42 275H1602.74C1604.37 275 1604.88 275.53 1605.53 276.4L1606.93 278.26C1607.24 278.67 1607.28 278.72 1607.86 278.72H1610.65C1612.45 278.72 1614.05 279.617 1615.02 280.992Z" fill="white"/>
<path d="M1614.98 283.75C1615.53 283.75 1615.98 284.195 1615.98 284.746L1616 289.65C1616 292.6 1613.6 295 1610.65 295H1601.35C1598.4 295 1596 292.6 1596 289.65V284.75C1596 284.198 1596.45 283.75 1597 283.75L1614.98 283.75Z" fill="white"/>
<line x1="1168" y1="236.5" x2="918" y2="236.5" stroke="#E0E0E0"/>
<circle cx="921" cy="237" r="7" fill="#FC4807"/>
<circle cx="1166" cy="236" r="4" fill="#FC4807"/>
<defs>
<filter id="filter0_d_26_106" x="1602" y="95" width="68" height="68" filterUnits="userSpaceOnUse" color-interpolation-filters="sRGB">
<feFlood flood-opacity="0" result="BackgroundImageFix"/>
<feColorMatrix in="SourceAlpha" type="matrix" values="0 0 0 0 0 0 0 0 0 0 0 0 0 0 0 0 0 0 127 0" result="hardAlpha"/>
<feOffset/>
<feGaussianBlur stdDeviation="5"/>
<feComposite in2="hardAlpha" operator="out"/>
<feColorMatrix type="matrix" values="0 0 0 0 0 0 0 0 0 0 0 0 0 0 0 0 0 0 0.1 0"/>
<feBlend mode="normal" in2="BackgroundImageFix" result="effect1_dropShadow_26_106"/>
<feBlend mode="normal" in="SourceGraphic" in2="effect1_dropShadow_26_106" result="shape"/>
</filter>
<clipPath id="clip0_26_106">
<rect width="80" height="136" fill="white" transform="translate(28 154)"/>
</clipPath>
<clipPath id="clip1_26_106">
<rect width="36" height="39" fill="white" transform="translate(442 64)"/>
</clipPath>
<clipPath id="clip2_26_106">
<rect width="104" height="90" fill="white" transform="translate(1205 186)"/>
</clipPath>
</defs>
</svg>
