<svg width="160" height="20" viewBox="0 0 160 20" fill="none" xmlns="http://www.w3.org/2000/svg">
<path d="M48.3837 17.9266C46.9792 19.3089 45.2254 20 43.1223 20C41.0192 20 39.2654 19.3089 37.8609 17.9266C36.4565 16.5443 35.7578 14.8541 35.7578 12.8559C35.7578 10.8577 36.4601 9.16741 37.8609 7.78514C39.2654 6.40286 41.0192 5.71173 43.1223 5.71173C45.2254 5.71173 46.9792 6.40286 48.3837 7.78514C49.7882 9.16741 50.4868 10.8577 50.4868 12.8559C50.4868 14.8541 49.7882 16.5443 48.3837 17.9266ZM39.9532 16.1289C40.7851 16.974 41.8439 17.393 43.1223 17.393C44.4008 17.393 45.4595 16.9705 46.2914 16.1289C47.1233 15.2838 47.541 14.1952 47.541 12.8559C47.541 11.5166 47.1233 10.4279 46.2914 9.58281C45.4595 8.74127 44.4008 8.31871 43.1223 8.31871C41.8403 8.31871 40.7851 8.74127 39.9532 9.58281C39.1214 10.4279 38.7036 11.5166 38.7036 12.8559C38.7036 14.1952 39.1178 15.2838 39.9532 16.1289Z" fill="white"/>
<path d="M56.7746 12.2829V19.7923H53.8288V5.91943H56.7746V8.44763C57.1959 7.59534 57.8297 6.92569 58.6832 6.43867C59.5331 5.95166 60.4514 5.70815 61.4309 5.70815C63.6421 5.70815 65.1402 6.61056 65.9289 8.41898C67.3153 6.61056 69.0403 5.70815 71.111 5.70815C72.6884 5.70815 73.9632 6.18442 74.9391 7.14055C75.9115 8.09669 76.3976 9.47896 76.3976 11.2874V19.7887H73.4518V12.1791C73.4518 9.6222 72.3823 8.34736 70.2431 8.34736C69.242 8.34736 68.3705 8.66607 67.6251 9.29991C66.8796 9.93375 66.4907 10.8612 66.4547 12.0788V19.7959H63.5089V12.1791C63.5089 10.8577 63.2712 9.89078 62.7994 9.27126C62.3277 8.65533 61.5822 8.34378 60.563 8.34378C59.5475 8.34378 58.6616 8.68039 57.9053 9.34646C57.1527 10.0197 56.7746 10.9973 56.7746 12.2829Z" fill="white"/>
<path d="M83.4488 12.2829V19.7923H80.503V5.91943H83.4488V8.44763C83.9242 7.59534 84.576 6.92569 85.4079 6.43867C86.2398 5.95166 87.1401 5.70815 88.1052 5.70815C89.6826 5.70815 90.9574 6.18442 91.9333 7.14055C92.9056 8.09669 93.3918 9.47896 93.3918 11.2874V19.7887H90.446V12.1791C90.446 9.6222 89.3765 8.34736 87.2373 8.34736C86.2182 8.34736 85.3359 8.68397 84.5796 9.35004C83.827 10.0197 83.4488 10.9973 83.4488 12.2829Z" fill="white"/>
<path d="M97.6809 3.15488C97.3135 2.78961 97.1263 2.35631 97.1263 1.85139C97.1263 1.34646 97.3099 0.91316 97.6809 0.547896C98.0482 0.182632 98.4876 0 98.9953 0C99.5031 0 99.9424 0.182632 100.31 0.547896C100.677 0.91316 100.861 1.34646 100.861 1.85139C100.861 2.35631 100.677 2.78961 100.31 3.15488C99.9424 3.52014 99.5031 3.70278 98.9953 3.70278C98.4876 3.70278 98.0482 3.52014 97.6809 3.15488ZM100.443 19.7923H97.4972V5.91943H100.443V19.7923Z" fill="white"/>
<path d="M105.784 18.0197C104.469 16.6983 103.81 14.9615 103.81 12.8057C103.81 10.65 104.484 8.93107 105.834 7.6419C107.185 6.35631 108.794 5.71173 110.66 5.71173C112.525 5.71173 114.03 6.49239 115.172 8.0573V0.444047H118.118V19.7923H115.172V17.7046C114.084 19.2337 112.496 20 110.411 20C108.643 20 107.098 19.3411 105.784 18.0197ZM106.756 12.9203C106.756 14.2489 107.185 15.3339 108.045 16.1683C108.902 17.0027 109.914 17.4217 111.07 17.4217C112.226 17.4217 113.209 16.9991 114.016 16.1576C114.823 15.3124 115.226 14.231 115.226 12.9096C115.226 11.5882 114.823 10.4852 114.016 9.59713C113.209 8.70904 112.219 8.26858 111.045 8.26858C109.871 8.26858 108.863 8.71262 108.02 9.59713C107.177 10.4816 106.756 11.5918 106.756 12.9203Z" fill="white"/>
<path d="M131.035 19.7923V17.9409C129.879 19.316 128.327 20 126.379 20C124.924 20 123.718 19.5918 122.763 18.7753C121.809 17.9588 121.33 16.8666 121.33 15.5022C121.33 14.1379 121.838 13.1173 122.857 12.4369C123.873 11.7601 125.252 11.4199 126.988 11.4199H130.801V10.897C130.801 9.0564 129.768 8.1325 127.697 8.1325C126.397 8.1325 125.05 8.60161 123.646 9.53984L122.331 7.71352C124.031 6.37422 125.961 5.70457 128.118 5.70457C129.768 5.70457 131.111 6.11638 132.155 6.9436C133.2 7.77081 133.722 9.06714 133.722 10.8433V19.7923H131.035ZM130.773 14.6285V13.4539H127.459C125.338 13.4539 124.276 14.1164 124.276 15.4342C124.276 16.111 124.539 16.6303 125.065 16.9848C125.59 17.3393 126.321 17.5184 127.261 17.5184C128.198 17.5184 129.019 17.2569 129.721 16.7341C130.423 16.2184 130.773 15.5166 130.773 14.6285Z" fill="white"/>
<path d="M141.295 15.3089C141.295 15.9678 141.472 16.4942 141.821 16.8845C142.17 17.2748 142.664 17.4718 143.294 17.4718C143.924 17.4718 144.529 17.1674 145.109 16.5586L146.319 18.6177C145.285 19.538 144.14 20 142.887 20C141.634 20 140.564 19.5703 139.678 18.7108C138.792 17.8514 138.35 16.6911 138.35 15.2301V8.26858H136.585V5.91943H138.35V1.56491H141.295V5.91943H144.979V8.265H141.295V15.3089Z" fill="white"/>
<path d="M157.317 19.7923V17.9409C156.161 19.316 154.609 20 152.661 20C151.206 20 149.999 19.5918 149.045 18.7753C148.091 17.9588 147.612 16.8666 147.612 15.5022C147.612 14.1379 148.12 13.1173 149.139 12.4369C150.154 11.7601 151.534 11.4199 153.269 11.4199H157.083V10.897C157.083 9.0564 156.05 8.1325 153.979 8.1325C152.679 8.1325 151.332 8.60161 149.927 9.53984L148.613 7.71352C150.313 6.37422 152.243 5.70457 154.4 5.70457C156.05 5.70457 157.393 6.11638 158.437 6.9436C159.481 7.77081 160.004 9.06714 160.004 10.8433V19.7923H157.317ZM157.054 14.6285V13.4539H153.741C151.62 13.4539 150.558 14.1164 150.558 15.4342C150.558 16.111 150.821 16.6303 151.346 16.9848C151.872 17.3393 152.603 17.5184 153.543 17.5184C154.479 17.5184 155.3 17.2569 156.003 16.7341C156.701 16.2184 157.054 15.5166 157.054 14.6285Z" fill="white"/>
<path d="M24.5623 6.22642C24.0868 5.5264 23.4996 4.8953 22.8157 4.35951C21.0781 2.99832 18.8574 2.3633 16.64 2.59354C14.4226 2.82379 12.3892 3.90054 10.9854 5.58792C9.86686 6.93241 9.2206 8.57724 9.11977 10.283H6.19968C4.22018 10.283 2.61549 11.8458 2.61549 13.7736V13.9623C2.61549 15.8901 4.22018 17.4528 6.19968 17.4528H6.70484L8.2548 15.9434H11.8147L7.64932 20H6.19535C2.77335 19.9977 0 17.2954 0 13.9622V13.7736C0 10.439 2.77569 7.73585 6.19968 7.73585H6.9343C7.34141 6.38022 8.02254 5.10296 8.95317 3.98435C10.7927 1.77328 13.4571 0.362354 16.3627 0.0606489C19.2683 -0.241057 22.1782 0.59105 24.4551 2.3747C25.9639 3.55663 27.1131 5.09254 27.81 6.81736C26.8842 6.43681 25.8667 6.22642 24.7987 6.22642H24.5623Z" fill="#FC4807"/>
<path d="M22.4317 7.73585L18.2663 11.7925H21.8281L23.3781 10.283H24.7987C26.7782 10.283 28.3829 11.8458 28.3829 13.7736V13.9623C28.3829 15.89 26.7782 17.4528 24.7987 17.4528H18.206L15.5905 20H24.7987C28.2227 20 30.9984 17.2968 30.9984 13.9623V13.7736C30.9984 10.8039 28.7969 8.335 25.8966 7.83024C25.6355 7.78474 25.3688 7.75524 25.0975 7.74274C24.9985 7.73816 24.8989 7.73585 24.7987 7.73585H22.4317Z" fill="#FC4807"/>
<path d="M13.4005 20H9.83859L14.004 15.9434H17.5659L13.4005 20Z" fill="#FC4807"/>
<path d="M16.6825 7.73585L12.5171 11.7925H16.0789L20.2444 7.73585H16.6825Z" fill="#FC4807"/>
</svg>
