<svg width="66" height="46" viewBox="0 0 66 46" fill="none" xmlns="http://www.w3.org/2000/svg">
<path d="M52.2966 14.1292C51.2843 12.5407 50.0342 11.1086 48.5779 9.89274C44.8783 6.80388 40.1501 5.36287 35.4289 5.88535C30.7077 6.40783 26.3785 8.85122 23.3895 12.6803C21.008 15.7312 19.632 19.4637 19.4173 23.3345H13.2C8.98538 23.3345 5.56875 26.8809 5.56875 31.2554V31.6836C5.56875 36.0582 8.98538 39.6045 13.2 39.6045H14.2756L17.5757 36.1792H25.1553L16.2865 45.3845H13.1908C5.90487 45.3794 0 39.2472 0 31.6835V31.2554C0 23.6886 5.90984 17.5544 13.2 17.5544H14.7641C15.6309 14.4782 17.0812 11.5798 19.0626 9.04142C22.9792 4.02397 28.6521 0.822266 34.8385 0.137626C41.0249 -0.547013 47.2206 1.34123 52.0684 5.38874C55.2808 8.07082 57.7278 11.5561 59.2114 15.4702C57.2404 14.6066 55.0739 14.1292 52.8 14.1292H52.2966Z" fill="white"/>
<path d="M47.7604 17.5544L38.8916 26.7598H46.4753L49.7753 23.3345H52.8C57.0146 23.3345 60.4312 26.8809 60.4312 31.2554V31.6836C60.4312 36.0582 57.0146 39.6045 52.8 39.6045H38.7631L33.1944 45.3846H52.8C60.0902 45.3846 66 39.2505 66 31.6836V31.2554C66 24.5166 61.3128 18.914 55.1377 17.7686C54.5818 17.6654 54.0139 17.5984 53.4362 17.5701C53.2254 17.5597 53.0133 17.5544 52.8 17.5544H47.7604Z" fill="white"/>
<path d="M28.5315 45.3846H20.9478L29.8165 36.1793H37.4003L28.5315 45.3846Z" fill="white"/>
<path d="M35.5194 17.5544L26.6507 26.7598H34.2344L43.1032 17.5544H35.5194Z" fill="white"/>
</svg>
