<svg width="118" height="110" viewBox="0 0 118 110" fill="none" xmlns="http://www.w3.org/2000/svg">
<path d="M4 37.9506V96.7984C4 99.9674 4 101.551 4.66607 102.761C5.25196 103.826 6.18617 104.693 7.33605 105.236C8.64201 105.852 10.3525 105.852 13.7683 105.852H77.3339M71.2222 60.5844V43.6091M71.2222 43.6091V26.6337M71.2222 43.6091H52.8889M71.2222 43.6091H89.5556M28.4444 65.1122V22.1081C28.4444 15.7701 28.4444 12.5987 29.7766 10.1779C30.9484 8.04846 32.8168 6.31845 35.1165 5.23347C37.731 4 41.1561 4 48.0012 4H94.4456C101.291 4 104.711 4 107.326 5.23346C109.626 6.31845 111.497 8.04846 112.669 10.1779C114.001 12.5987 114.001 15.7678 114.001 22.1057L114.001 65.11C114.001 71.4481 114.001 74.6171 112.669 77.0379C111.497 79.1673 109.626 80.9009 107.326 81.9859C104.714 83.2181 101.298 83.2181 94.4663 83.2181H47.9811C41.1494 83.2181 37.7285 83.2181 35.1165 81.9859C32.8168 80.9009 30.9484 79.1678 29.7766 77.0384C28.4444 74.6176 28.4444 71.4503 28.4444 65.1122Z" stroke="black" stroke-width="8" stroke-linecap="square" stroke-linejoin="round"/>
</svg>
