<svg width="106" height="110" viewBox="0 0 106 110" fill="none" xmlns="http://www.w3.org/2000/svg">
<path d="M4 37.9506H101.778M4 37.9506V87.746C4 94.084 4 97.2514 5.33214 99.6722C6.50393 101.802 8.37233 103.535 10.6721 104.62C13.284 105.852 16.705 105.852 23.5367 105.852H82.2411C89.0728 105.852 92.4888 105.852 95.1007 104.62C97.4005 103.535 99.2752 101.802 100.447 99.6722C101.778 97.2537 101.778 94.0908 101.778 87.7651V37.9506M4 37.9506V33.425C4 27.0869 4 23.9155 5.33214 21.4947C6.50393 19.3653 8.37233 17.6353 10.6721 16.5503C13.2866 15.3169 16.7117 15.3169 23.5567 15.3169H28.4444M101.778 37.9506V33.4064C101.778 27.0807 101.778 23.9132 100.447 21.4947C99.2752 19.3653 97.4005 17.6353 95.1007 16.5503C92.4863 15.3169 89.0685 15.3169 82.2234 15.3169H77.3333M28.4444 15.3169H77.3333M28.4444 15.3169V4M77.3333 15.3169V4M71.2222 60.5844L46.7778 83.2181L34.5556 71.9012" stroke="black" stroke-width="8" stroke-linecap="square"/>
</svg>
