<svg width="400" height="400" viewBox="0 0 400 400" fill="none" xmlns="http://www.w3.org/2000/svg">
<path d="M220.83 24.9256L205.755 50.0563C256.76 51.9821 301.245 79.3837 326.865 119.916L356.14 120.406L370.255 94.9654C335.985 39.4868 275.38 2.01085 205.885 0L220.83 24.9206V24.9256Z" fill="#2B2B2B"/>
<path d="M376.09 105.06L361.97 130.51L332.71 130.02C343.74 150.914 350 174.724 350 200C350 225.276 343.765 249.011 332.765 269.88L346.97 295.481L376.065 294.99C391.33 266.728 400 234.38 400 200C400 165.62 391.34 133.307 376.09 105.06Z" fill="#FFCDBB"/>
<path d="M58.86 94.4151L73.065 120.021C98.645 79.4738 143.1 52.0421 194.09 50.0663L209.165 24.9306L194.22 0C124.71 1.97584 64.075 39.4318 29.78 94.9053L58.86 94.4151Z" fill="#FC4807"/>
<path d="M38.03 269.49L67.29 269.98C56.26 249.086 50 225.276 50 200C50 174.724 56.235 150.989 67.235 130.12L53.03 104.52L23.935 105.01C8.67 133.272 0 165.621 0 200C0 234.38 8.66 266.693 23.91 294.94L38.03 269.49Z" fill="#FF6832"/>
<path d="M341.14 305.585L326.935 279.979C301.355 320.526 256.9 347.958 205.91 349.934L190.835 375.069L205.785 399.995C275.295 398.019 335.93 360.563 370.225 305.09L341.145 305.58L341.14 305.585Z" fill="#FFAF93"/>
<path d="M179.17 375.074L194.245 349.944C143.24 348.018 98.755 320.616 73.135 280.084L43.86 279.594L29.745 305.035C64.015 360.513 124.625 397.989 194.115 400L179.17 375.079V375.074Z" fill="#FF8D63"/>
</svg>
