<svg width="727" height="27" viewBox="0 0 727 27" fill="none" xmlns="http://www.w3.org/2000/svg">
<rect x="267" y="9" width="150" height="10" rx="5" fill="#535353"/>
<rect x="447" y="9" width="90" height="10" rx="5" fill="#535353"/>
<rect x="567" y="9" width="160" height="10" rx="5" fill="#535353"/>
<g clip-path="url(#clip0_223_322)">
<path d="M18.0006 8.66391C17.3526 8.65349 16.7045 8.6882 16.0596 8.65002C15.6254 8.62573 15.324 8.78886 15.0227 9.11167C13.8982 10.3231 12.7706 11.531 11.6429 12.7389H14.9028C16.0078 11.5553 17.1128 10.3751 18.2145 9.1915C18.3312 9.06654 18.558 8.952 18.477 8.75762C18.3992 8.56672 18.1627 8.66738 18.0006 8.66391Z" fill="#EA562A"/>
<path d="M7.90988 16.7687C7.56963 17.1367 7.22615 17.5011 6.88914 17.8725C6.38687 18.4209 5.87812 18.4626 5.26891 18.3307C5.16198 18.3064 5.05504 18.2647 4.94811 18.2474C3.21771 17.9523 1.9118 15.7864 2.37519 13.8774C2.70895 12.5063 4.0667 11.0624 5.55407 11.1283C6.16976 11.1561 6.78544 11.1318 7.40113 11.1318C8.1918 11.1318 8.20476 11.1353 8.37002 10.3161C8.68435 8.76457 9.313 7.3831 10.3337 6.23072C11.7531 4.62711 13.4867 3.71076 15.5541 3.49903C17.1905 3.33242 18.72 3.66217 20.162 4.47786C21.2087 5.0714 22.0642 5.90792 22.7803 6.91451C22.9294 7.12278 23.059 7.37269 23.3636 7.37616C24.0765 7.38657 24.7732 7.51153 25.4472 7.76838C25.5606 7.81004 25.7097 7.88293 25.8004 7.75797C25.8847 7.64343 25.8069 7.50112 25.7518 7.37963C25.4375 6.6646 25.0778 5.98081 24.6112 5.3595C23.328 3.65176 21.7628 2.37789 19.8218 1.63163C18.4349 1.10403 17.0285 0.93048 15.5573 1.0242C14.4524 1.09709 13.396 1.32965 12.3947 1.78435C9.64028 3.03392 7.66685 5.14082 6.57157 8.14325C6.41279 8.57366 6.21512 8.69862 5.81331 8.67432C4.41019 8.59102 3.18206 9.09084 2.09327 10.0176C0.148997 11.6767 -0.554181 14.6202 0.453599 17.0534C1.51647 19.6184 3.43158 20.7778 6.25725 20.8229C7.01876 21.0763 7.68305 20.5209 8.35058 19.7781C9.26115 18.7611 10.1912 17.7614 11.1244 16.7687H7.90988Z" fill="#EA562A"/>
<path d="M13.2761 16.7896C12.1905 17.9558 11.1082 19.1186 10.0227 20.2849C9.91572 20.3994 9.72777 20.5105 9.79582 20.691C9.81203 20.7326 9.83795 20.7604 9.85091 20.7743C10.081 20.9825 11.0758 20.8888 11.0952 20.8888C12.022 20.8055 12.116 20.9513 12.5632 20.7673C12.871 20.6424 13.0946 20.4758 13.2339 20.3265C14.3292 19.1429 15.4342 17.9697 16.536 16.7896H13.2761Z" fill="#EA562A"/>
<path d="M24.3455 8.75762C23.3636 8.53895 22.3623 8.7125 21.3707 8.65349C21.011 8.63267 20.7486 8.75762 20.4958 9.03183C19.339 10.2779 18.1821 11.5171 17.0253 12.7597H20.2884C20.6675 12.3536 21.0467 11.944 21.429 11.5379C21.5813 11.3748 21.7174 11.1492 21.9637 11.1526C22.8257 11.163 23.6909 11.0207 24.5269 11.4095C25.9624 12.0794 26.6948 13.565 26.5814 14.9152C26.4226 16.8139 25.2528 18.2092 23.3992 18.2786C21.5392 18.348 19.6792 18.3342 17.8192 18.3376C17.4368 18.3376 17.1225 18.4036 16.847 18.7264C16.3772 19.2713 15.8684 19.7746 15.3824 20.3092C15.2819 20.4202 15.0842 20.5209 15.1685 20.7153C15.2398 20.8819 15.4245 20.8021 15.5573 20.8021C16.8179 20.8055 18.0817 20.8055 19.3422 20.8055C19.3422 20.8125 19.3422 20.8159 19.3422 20.8229C20.2236 20.8229 21.1082 20.7986 21.9896 20.8298C22.8743 20.8611 23.746 20.868 24.6112 20.6111C26.9216 19.9274 28.3345 18.289 28.7978 15.8316C29.42 12.5653 27.3947 9.43447 24.3455 8.75762Z" fill="#EA562A"/>
<path d="M44.122 18.9907C42.8582 20.3305 41.2801 21.0004 39.3877 21.0004C37.4953 21.0004 35.9172 20.3305 34.6534 18.9907C33.3896 17.6508 32.761 16.0125 32.761 14.0757C32.761 12.1389 33.3929 10.5005 34.6534 9.16074C35.9172 7.82092 37.4953 7.15102 39.3877 7.15102C41.2801 7.15102 42.8582 7.82092 44.122 9.16074C45.3858 10.5005 46.0144 12.1389 46.0144 14.0757C46.0144 16.0125 45.3858 17.6508 44.122 18.9907ZM36.5361 17.2482C37.2847 18.0674 38.2374 18.4735 39.3877 18.4735C40.5381 18.4735 41.4908 18.0639 42.2393 17.2482C42.9879 16.429 43.3637 15.3739 43.3637 14.0757C43.3637 12.7775 42.9879 11.7223 42.2393 10.9032C41.4908 10.0875 40.5381 9.67792 39.3877 9.67792C38.2341 9.67792 37.2847 10.0875 36.5361 10.9032C35.7876 11.7223 35.4117 12.7775 35.4117 14.0757C35.4117 15.3739 35.7843 16.429 36.5361 17.2482Z" fill="white"/>
<path d="M51.6723 13.5203V20.7991H49.0216V7.35234H51.6723V9.80288C52.0514 8.97677 52.6217 8.32769 53.3897 7.85563C54.1545 7.38358 54.9808 7.14755 55.8622 7.14755C57.8518 7.14755 59.1998 8.02224 59.9095 9.77511C61.1571 8.02224 62.7092 7.14755 64.5725 7.14755C65.9918 7.14755 67.1389 7.60919 68.0171 8.53595C68.892 9.46272 69.3295 10.8025 69.3295 12.5554V20.7956H66.6788V13.4197C66.6788 10.9414 65.7164 9.70569 63.7916 9.70569C62.8907 9.70569 62.1065 10.0146 61.4357 10.629C60.765 11.2433 60.415 12.1423 60.3826 13.3225V20.8025H57.7319V13.4197C57.7319 12.1389 57.518 11.2017 57.0935 10.6012C56.669 10.0042 55.9983 9.70222 55.0812 9.70222C54.1674 9.70222 53.3703 10.0285 52.6898 10.6741C52.0125 11.3267 51.6723 12.2742 51.6723 13.5203Z" fill="white"/>
<path d="M75.6743 13.5203V20.7991H73.0236V7.35234H75.6743V9.80288C76.102 8.97677 76.6886 8.32769 77.4371 7.85563C78.1856 7.38358 78.9958 7.14755 79.8642 7.14755C81.2835 7.14755 82.4306 7.60919 83.3088 8.53595C84.1837 9.46272 84.6212 10.8025 84.6212 12.5554V20.7956H81.9705V13.4197C81.9705 10.9414 81.0081 9.70569 79.0833 9.70569C78.1662 9.70569 77.3723 10.032 76.6918 10.6776C76.0145 11.3267 75.6743 12.2742 75.6743 13.5203Z" fill="white"/>
<path d="M88.4806 4.67271C88.15 4.31867 87.9815 3.89868 87.9815 3.40926C87.9815 2.91985 88.1468 2.49986 88.4806 2.14581C88.8111 1.79177 89.2064 1.61475 89.6633 1.61475C90.1202 1.61475 90.5156 1.79177 90.8461 2.14581C91.1766 2.49986 91.3419 2.91985 91.3419 3.40926C91.3419 3.89868 91.1766 4.31867 90.8461 4.67271C90.5156 5.02676 90.1202 5.20378 89.6633 5.20378C89.2064 5.20378 88.8111 5.02676 88.4806 4.67271ZM90.966 20.7991H88.3153V7.35234H90.966V20.7991Z" fill="white"/>
<path d="M95.7716 19.0809C94.5888 17.8001 93.9958 16.1167 93.9958 14.0271C93.9958 11.9376 94.6018 10.2715 95.8169 9.0219C97.0321 7.7758 98.4806 7.15102 100.159 7.15102C101.838 7.15102 103.192 7.9077 104.219 9.42453V2.04515H106.87V20.7991H104.219V18.7755C103.241 20.2576 101.812 21.0004 99.9356 21.0004C98.3445 21.0004 96.9543 20.3617 95.7716 19.0809ZM96.6465 14.1382C96.6465 15.4259 97.0321 16.4776 97.8066 17.2864C98.5778 18.0951 99.4884 18.5012 100.529 18.5012C101.569 18.5012 102.453 18.0917 103.179 17.276C103.905 16.4568 104.268 15.4086 104.268 14.1278C104.268 12.847 103.905 11.7779 103.179 10.9171C102.453 10.0563 101.562 9.62932 100.506 9.62932C99.4495 9.62932 98.5422 10.0597 97.7839 10.9171C97.0256 11.7744 96.6465 12.8504 96.6465 14.1382Z" fill="white"/>
<path d="M118.494 20.7991V19.0045C117.453 20.3374 116.057 21.0004 114.304 21.0004C112.995 21.0004 111.909 20.6047 111.05 19.8133C110.192 19.0219 109.761 17.9632 109.761 16.6408C109.761 15.3183 110.218 14.3291 111.135 13.6696C112.048 13.0136 113.289 12.6838 114.851 12.6838H118.283V12.1771C118.283 10.3929 117.353 9.49743 115.49 9.49743C114.32 9.49743 113.108 9.95213 111.844 10.8615L110.661 9.09132C112.191 7.79316 113.928 7.14408 115.869 7.14408C117.353 7.14408 118.562 7.54324 119.501 8.34505C120.441 9.14685 120.911 10.4034 120.911 12.125V20.7991H118.494ZM118.257 15.7939V14.6554H115.276C113.367 14.6554 112.411 15.2975 112.411 16.5748C112.411 17.2309 112.648 17.7341 113.121 18.0778C113.594 18.4214 114.252 18.595 115.098 18.595C115.94 18.595 116.679 18.3416 117.311 17.8348C117.943 17.335 118.257 16.6547 118.257 15.7939Z" fill="white"/>
<path d="M127.726 16.4533C127.726 17.092 127.884 17.6023 128.199 17.9806C128.513 18.3589 128.957 18.5498 129.524 18.5498C130.091 18.5498 130.636 18.2548 131.157 17.6647L132.246 19.6606C131.316 20.5526 130.286 21.0004 129.158 21.0004C128.03 21.0004 127.068 20.5839 126.271 19.7508C125.474 18.9178 125.075 17.7932 125.075 16.377V9.62932H123.487V7.35234H125.075V3.13158H127.726V7.35234H131.041V9.62585H127.726V16.4533Z" fill="white"/>
<path d="M142.142 20.7991V19.0045C141.102 20.3374 139.706 21.0004 137.953 21.0004C136.643 21.0004 135.558 20.6047 134.699 19.8133C133.84 19.0219 133.409 17.9632 133.409 16.6408C133.409 15.3183 133.866 14.3291 134.783 13.6696C135.697 13.0136 136.938 12.6838 138.5 12.6838H141.932V12.1771C141.932 10.3929 141.002 9.49743 139.139 9.49743C137.969 9.49743 136.757 9.95213 135.493 10.8615L134.31 9.09132C135.84 7.79316 137.577 7.14408 139.518 7.14408C141.002 7.14408 142.211 7.54324 143.15 8.34505C144.09 9.14685 144.56 10.4034 144.56 12.125V20.7991H142.142ZM141.906 15.7939V14.6554H138.925C137.016 14.6554 136.06 15.2975 136.06 16.5748C136.06 17.2309 136.297 17.7341 136.77 18.0778C137.243 18.4214 137.901 18.595 138.746 18.595C139.589 18.595 140.328 18.3416 140.96 17.8348C141.588 17.335 141.906 16.6547 141.906 15.7939Z" fill="white"/>
</g>
<path d="M147.2 21V18.2375H149.963V21H147.2ZM160.241 21.375C158.949 21.375 157.866 21.0625 156.991 20.4375C156.116 19.8042 155.453 18.95 155.003 17.875C154.553 16.8 154.328 15.5875 154.328 14.2375C154.328 12.8875 154.549 11.675 154.991 10.6C155.441 9.525 156.099 8.67917 156.966 8.0625C157.841 7.4375 158.916 7.125 160.191 7.125C161.457 7.125 162.549 7.4375 163.466 8.0625C164.391 8.67917 165.103 9.525 165.603 10.6C166.103 11.6667 166.353 12.8792 166.353 14.2375C166.353 15.5875 166.103 16.8042 165.603 17.8875C165.112 18.9625 164.407 19.8125 163.491 20.4375C162.582 21.0625 161.499 21.375 160.241 21.375ZM153.891 27V7.5H156.216V17.2125H156.516V27H153.891ZM159.878 19.0125C160.712 19.0125 161.399 18.8 161.941 18.375C162.491 17.95 162.899 17.3792 163.166 16.6625C163.441 15.9375 163.578 15.1292 163.578 14.2375C163.578 13.3542 163.441 12.5542 163.166 11.8375C162.899 11.1208 162.487 10.55 161.928 10.125C161.37 9.7 160.657 9.4875 159.791 9.4875C158.974 9.4875 158.299 9.6875 157.766 10.0875C157.241 10.4875 156.849 11.0458 156.591 11.7625C156.341 12.4792 156.216 13.3042 156.216 14.2375C156.216 15.1708 156.341 15.9958 156.591 16.7125C156.841 17.4292 157.237 17.9917 157.778 18.4C158.32 18.8083 159.02 19.0125 159.878 19.0125ZM169.363 21V2.625H171.976V21H169.363ZM191.904 21L191.917 12.5875C191.917 11.6125 191.667 10.8542 191.167 10.3125C190.667 9.7625 190.009 9.4875 189.192 9.4875C188.692 9.4875 188.234 9.60417 187.817 9.8375C187.409 10.0625 187.075 10.4042 186.817 10.8625C186.567 11.3125 186.442 11.8792 186.442 12.5625L185.179 11.925C185.163 10.975 185.363 10.1417 185.779 9.425C186.204 8.70833 186.779 8.15417 187.504 7.7625C188.229 7.3625 189.042 7.1625 189.942 7.1625C191.4 7.1625 192.529 7.6 193.329 8.475C194.129 9.35 194.529 10.5125 194.529 11.9625L194.517 21H191.904ZM175.717 21V7.5H178.042V11.4H178.342V21H175.717ZM183.817 21L183.829 12.6375C183.829 11.6542 183.579 10.8833 183.079 10.325C182.588 9.76667 181.925 9.4875 181.092 9.4875C180.267 9.4875 179.6 9.77083 179.092 10.3375C178.592 10.9042 178.342 11.6458 178.342 12.5625L177.092 11.7625C177.092 10.8792 177.304 10.0917 177.729 9.4C178.154 8.70833 178.729 8.1625 179.454 7.7625C180.179 7.3625 181 7.1625 181.917 7.1625C182.875 7.1625 183.692 7.36667 184.367 7.775C185.042 8.175 185.554 8.7375 185.904 9.4625C186.263 10.1875 186.442 11.0292 186.442 11.9875L186.429 21H183.817Z" fill="#EA562A"/>
<defs>
<clipPath id="clip0_223_322">
<rect width="144.557" height="20" fill="white" transform="translate(0 1)"/>
</clipPath>
</defs>
</svg>
