<svg width="69" height="130" viewBox="0 0 69 130" fill="none" xmlns="http://www.w3.org/2000/svg">
<g clip-path="url(#clip0_379_7492)">
<path d="M64.0758 41.8945L53.3203 25.7613V23.1055H15.2344V25.7613L4.47891 41.8945C1.54629 46.2871 0 51.4033 0 56.6846V58.957C6.03281 55.5877 12.19 53.5742 19.043 53.5742C28.2801 53.5742 35.7068 57.6291 36.1105 57.8525C36.1105 57.8525 36.1207 57.8525 36.1258 57.8576C36.1842 57.8906 42.2551 61.1889 49.5117 61.1889C57.3904 61.1889 62.009 58.3578 68.415 54.7777C68.0875 50.1795 66.6529 45.7514 64.0758 41.892V41.8945Z" fill="#A4A4A4"/>
<path d="M49.5117 68.8085C40.2746 68.8085 32.8479 64.7536 32.4441 64.5302C32.4441 64.5302 32.434 64.5302 32.4289 64.5251C32.368 64.4921 26.2996 61.1938 19.043 61.1938C11.1617 61.1938 6.50762 64.0478 0 67.6812V118.577C0 124.876 5.12637 130.002 11.4258 130.002H57.1289C63.4283 130.002 68.5547 124.876 68.5547 118.577V63.4282C62.5219 66.7976 56.3646 68.811 49.5117 68.811V68.8085Z" fill="#A4A4A4"/>
<path d="M53.3164 0H15.2305C13.1256 0 11.4219 1.70371 11.4219 3.80859V15.4883H57.125V3.80859C57.125 1.70371 55.4213 0 53.3164 0Z" fill="#A4A4A4"/>
</g>
<defs>
<clipPath id="clip0_379_7492">
<rect width="68.5547" height="130" fill="white"/>
</clipPath>
</defs>
</svg>
