<svg width="150" height="130" viewBox="0 0 150 130" fill="none" xmlns="http://www.w3.org/2000/svg">
<g clip-path="url(#clip0_1_2381)">
<path d="M74.9975 12.5707C81.4943 12.5707 87.108 8.44455 89.123 2.37158C85.2757 3.42841 80.3726 4.06048 74.9975 4.06048C69.6224 4.06048 64.7194 3.42335 60.8721 2.37158C62.8871 8.44455 68.5007 12.5707 74.9975 12.5707Z" fill="#A4A4A4"/>
<path d="M149.812 20.0342C149.503 19.1696 148.863 18.4616 148.026 18.0773L119.43 4.92512C113.344 2.87215 107.152 1.24898 100.893 0.0657357C100.675 0.025283 100.452 0 100.239 0C98.6906 0 97.2999 1.06694 96.9598 2.62943C94.6758 12.6516 85.7681 20.1556 75.0077 20.1556C64.2474 20.1556 55.3397 12.6516 53.0556 2.62943C52.7054 1.06694 51.3198 0 49.7717 0C49.5535 0 49.3352 0.0202264 49.117 0.0657357C42.8587 1.24898 36.6614 2.87215 30.5706 4.92512L1.97454 18.0773C1.13198 18.4616 0.487377 19.1746 0.19299 20.0342C-0.111547 20.909 -0.0557155 21.8495 0.370637 22.6738L12.7856 47.082C13.3693 48.2399 14.5469 48.9377 15.8005 48.9377C16.1254 48.9377 16.4502 48.8922 16.7751 48.7961L30.5655 44.7256V126.627C30.5655 128.488 32.0882 130.005 33.9611 130.005H116.044C117.912 130.005 119.43 128.488 119.43 126.627V44.7205L133.23 48.7911C133.555 48.8872 133.88 48.9327 134.205 48.9327C135.453 48.9327 136.631 48.2349 137.22 47.0769L149.64 22.6687C150.056 21.8445 150.117 20.904 149.817 20.0292L149.812 20.0342Z" fill="#A4A4A4"/>
</g>
<defs>
<clipPath id="clip0_1_2381">
<rect width="150" height="130" fill="white"/>
</clipPath>
</defs>
</svg>
