<svg class="hero__flag-img" width="40" height="40" viewBox="0 0 40 40" fill="none" xmlns="http://www.w3.org/2000/svg">
              <path d="M13.8786 13.2761C12.0323 13.2761 10.605 14.5419 10.9321 15.9725C11.2723 17.4593 13.1485 17.7236 15.2138 18.0147C16.9267 18.256 18.7697 18.5158 19.9747 19.5063V15.9677H17.8429C17.2086 13.649 15.5416 13.2761 13.8786 13.2761Z" fill="#4C4C4C"/>
              <path fill-rule="evenodd" clip-rule="evenodd" d="M0 9.99988C0 4.47682 4.47749 0 9.99996 0H40.0006V30.0004C40.0006 35.5231 35.5232 40 30.0004 40H9.99996C4.47749 40 0 35.5231 0 30.0004V9.99988ZM28.2503 14.9929H33.0527L27.6029 20.9659L33.0514 29.9787H28.7374L24.9932 23.8251L23.6817 25.2597V29.9787H19.9747V28.3276C18.6187 29.529 16.7268 30.2056 14.65 30.2056C11.9425 30.2056 9.86843 29.4208 8.48556 27.8722C7.22259 26.4589 6.91257 24.8119 6.85449 23.786H10.8294C10.8294 23.786 10.9541 26.5179 14.65 26.5179C16.0691 26.5179 18.231 26.0463 18.2859 24.1284C18.3386 22.2803 16.3549 21.9039 14.2816 21.6342C11.6553 21.2928 8.08033 20.6775 7.22132 16.8248C6.88971 15.3366 7.36888 13.51 8.4421 12.1718C9.3062 11.0939 10.9388 9.80873 13.8103 9.80873C16.2934 9.80873 18.2354 10.5322 19.5834 11.9592C19.7262 12.1106 19.8538 12.2658 19.9747 12.4219V9.99972H23.6817V19.9965L28.2503 14.9929Z" fill="#4C4C4C"/>
            </svg>
