<svg width="17" height="17" viewBox="0 0 17 17" fill="none" xmlns="http://www.w3.org/2000/svg">
<path fill-rule="evenodd" clip-rule="evenodd" d="M8.33073 2.99837C5.38521 2.99837 2.9974 5.38619 2.9974 8.33171C2.9974 11.2772 5.38521 13.665 8.33073 13.665C11.2762 13.665 13.6641 11.2772 13.6641 8.33171C13.6641 5.38619 11.2762 2.99837 8.33073 2.99837ZM1.66406 8.33171C1.66406 4.64981 4.64883 1.66504 8.33073 1.66504C12.0126 1.66504 14.9974 4.64981 14.9974 8.33171C14.9974 12.0136 12.0126 14.9984 8.33073 14.9984C4.64883 14.9984 1.66406 12.0136 1.66406 8.33171ZM11.4479 5.84027C11.7193 6.08906 11.7376 6.51078 11.4888 6.78219L7.82217 10.7822C7.69219 10.924 7.5073 11.0027 7.31499 10.9982C7.12269 10.9936 6.94172 10.9063 6.81858 10.7585L5.15192 8.7585C4.91621 8.47564 4.95442 8.05527 5.23727 7.81956C5.52012 7.58385 5.9405 7.62207 6.17621 7.90492L7.35464 9.31903L10.506 5.88122C10.7548 5.60981 11.1765 5.59147 11.4479 5.84027Z" fill="white"/>
</svg>
