<svg width="20" height="20" viewBox="0 0 20 20" fill="none" xmlns="http://www.w3.org/2000/svg">
<path d="M8.71878 11.2811L13.6226 6.37722M18.6389 3.3845L14.4996 16.8373C14.1286 18.0429 13.943 18.646 13.6231 18.8459C13.3456 19.0193 13.002 19.0483 12.6997 18.9229C12.3512 18.7783 12.0684 18.2136 11.5041 17.085L8.88232 11.8414C8.79278 11.6623 8.74796 11.5731 8.68814 11.4955C8.63507 11.4267 8.57381 11.3646 8.50495 11.3116C8.42912 11.2531 8.34144 11.2093 8.17034 11.1237L2.91474 8.49589C1.78617 7.9316 1.22183 7.64919 1.07723 7.30068C0.951814 6.99843 0.980415 6.65451 1.15381 6.377C1.35375 6.057 1.95679 5.8711 3.16277 5.50002L16.6154 1.36069C17.5635 1.06896 18.0378 0.923215 18.358 1.04078C18.637 1.14319 18.8569 1.36288 18.9593 1.64183C19.0768 1.96192 18.9309 2.43593 18.6395 3.3831L18.6389 3.3845Z" stroke="white" stroke-width="2" stroke-linecap="round" stroke-linejoin="round"/>
</svg>
